<mxfile host="app.diagrams.net" agent="Mozilla/5.0 (Windows NT 10.0; Win64; x64) AppleWebKit/537.36 (KHTML, like Gecko) Chrome/129.0.0.0 Safari/537.36" version="24.8.0">
  <diagram name="PÃ¡gina-1" id="Sxj8CtlcfFdg6a7YUcDl">
    <mxGraphModel dx="1434" dy="746" grid="0" gridSize="10" guides="1" tooltips="1" connect="1" arrows="1" fold="1" page="1" pageScale="1" pageWidth="1169" pageHeight="827" math="0" shadow="0">
      <root>
        <mxCell id="0" />
        <mxCell id="1" parent="0" />
        <mxCell id="khh2FQEowtGNTZKCgDfP-19" value="" style="rounded=0;whiteSpace=wrap;html=1;strokeWidth=2;strokeColor=#2354A8;" vertex="1" parent="1">
          <mxGeometry x="440" y="60" width="320" height="340" as="geometry" />
        </mxCell>
        <mxCell id="khh2FQEowtGNTZKCgDfP-10" value="" style="rounded=0;whiteSpace=wrap;html=1;strokeColor=#258028;strokeWidth=2;" vertex="1" parent="1">
          <mxGeometry x="220" y="60" width="200" height="340" as="geometry" />
        </mxCell>
        <mxCell id="khh2FQEowtGNTZKCgDfP-8" value="" style="rounded=0;whiteSpace=wrap;html=1;direction=south;" vertex="1" parent="1">
          <mxGeometry x="128.64" y="60" width="74.79" height="340" as="geometry" />
        </mxCell>
        <mxCell id="khh2FQEowtGNTZKCgDfP-1" value="" style="shape=image;verticalLabelPosition=bottom;labelBackgroundColor=default;verticalAlign=top;aspect=fixed;imageAspect=0;image=data:image/png,iVBORw0KGgoAAAANSUhEUgAAAtUAAAFJCAIAAADbnUaZAAAgAElEQVR4AeydB1wT5//HbWuH2l3r6FRr/Wm1ra3dttbV2tpq7bDiQlGGiAwVBWTKkCrLrSxFNoigorK3LNkzgSyyd3KXnGyS/z85OE5IIECCAve87pXXk8tzzz33edY7zz3P95kkxxymAKYApgCmAKYApgCmwOgqMGl0b4fdDVMAUwBTAFMAUwBTAFNAjvEHVggwBTAFMAXGhgIymexheyfY2tnRJRsbKcZSiSmgXgGMP9Rrg/2CKYApgCnwZCjQ0SULqRfOD22YEYybeQU/Ixi3NYVKAVuR1LV0dFXwmtNpkkpec0tHF3Ie82AKPLEKYPzxxGYNljBMAUwBTAGFApK2zi9jCDOv4PscM4JxIfXCzi6ZTwUP5pLuAME4nwpelwwbI8HKzxOtAMYfT3T2YInDFMAUmOAKdHbJvr6uAj5g1JgRjF8c0TAzuC+azLyC35ZChRGks0vW2tmF4cgEL0hP4ONj/PEEZoo2k9TR0eEfG/b9sT2vWv76Zvg/b0Y8eoT/szptpzbvh8WFKYApoFUF4ohAn2EPzb/uz2KsvUlCXtn8eZdSzHkow8ZFtJpBWGTDVgDjj2FLNwYu5PF4X9vummS2SnEcWPVi5KaXov5EjhcjN32TsdWaYDQGngRLIqbAhFRAJpMtU/XmRXME6RNyRjBucxK1rRObIDIhy9MT9tAYfzxhGaK95HR2dn5r1wMf/fjjxchNX6XpWROMjhCNtXdPLCZMAUwBbSrQ0SV7ZGJHvykgffBCw68/3SR3YqMg2swoLK7hKIDxx3BUGxPXBMVFTNqvHPnoP/4RuWlZajd8YPwxJnITS+TEVEBH/DHzCj6gRjAxJcWe+slRAOOPJycvtJySH+z3dL956cMfkZuWJm85rBz5OEI0xvhDy7pj0WEKaE8BmUy2JKKh/6jGjGDcd3HE/udnBuP+uEtZEK7ikj6B37qKw4yIaC+jsJiGowDGH8NRbUxc86L5OhX8Ebnpk6RH4APjjzGRm1giJ6YCMpnMJJMOG/xYHNE4+wrunav4heEKKyAReNGMYNyC8IZZV3Azr+AWRzTOvILbmUr1KGHPC21YoAzzzlX8+9fwM4NxH0U0zrqCmxuKfzekd6UMQdxrPmRiyos99eNVAOOPx6u/Du/+FDzsgXwq558uvvfvoUbFnA/0ocNEYFFjCmAKDFcBmUx29D4Lnv9hfZ95spTzb1LTgRzG2UqeSSY9Ai9yKGS5P2AH1fJ9yrmOhaxfb5OzGeDR+8w4gsinnGuVy7jPlDgWsoLrBE5F7L0ZtCt1ghsE0dxr3QiSzZAON2nYdZgCWlBAU/7o6upqbGwsHUVHo9GwdWIjyeFHBj+U808X3f33YD/4wMY/RiIydi2mgO4UuEkCkMmnP9wgheEEZtmMkHr+2UruiVJuBF50lyJ2LeacKOH+nkiJbhDqJVPDcIL5ofir9YJZwbiYRlGkcozkOkExUuJYxA6uFfhW8JZENsLvYvKYGH/oLvewmAdXQFP+IJFI/qPuuFzu4E8gl9+uzg/Kv9PZ1YkOnE+qCcq/wwGF6JMTyv8If+xfNdXpp++ztq7M2dbnWJ29bULJgj0spsCYUKBLJpt7TWFqHT62p1C9y7lOhewwnOBsJfdgHvNcJc8og365hm+eTTfNop+p5JpmMcLwgv9HlkvVvMs1vG0p1HOVCruonqWcc5W87SlN4XihdxlX+b4GP/MKjiZpGxNSYIkcrwpoyh9lZWWjjh/+BAJhUN2lEPTlSZNJZiuFgFgKQchhFO41yWxlel0JcoYt5NP5nK6uibLwHc0fUxx++t/tvz+6t7n/sfK6waAiYwEwBTAFRlkBXnP7jB74gOd/zAjGzQhW7PyCOhRzO5Cv+zLpbg84cODe88rNYpAwSo+CaRaENWAWUUc5T7Hb9VFgyPxRW1vL07ErKCiAWUdD/ggvTPVNiwEkIIIaUghKrinyTYshsunIyXXnrCeZrWQBKladdXR1Ghed/iPLeTwdCH9MsV/7v1uq4eOje5uPRp/oUybkcvmFnISzWTf6nL9RkfNfSgTYDKHP55Nq/kuJaODQ0CdJfOaptCiqkIOcrAOoerkn/slxG/dHbFMO8tSYB1Ng2ApQJW0qraojIyJ9PLOu4H66RZ6NQpY+AdBfZ1zBp9Ekw04bdiGmgFYUGDJ/aPhOZCSJIxAIQ+IPhDAG9ljHXVzhayGQAv3T9kCAnxa1cZwdMH+8YDcQfHxyewuBTJTL5X2ke/vYP9OPbuxz8vcLtpPMVtbTyejzDreCJpmtjChKRZ+8ev/uJLOV/wQ6IVLblQePM3nVPc7nd/cjT415MAWGrYCkrXOGql1d0BgxPP+MYNzBPCY2u27YWYNdqC0FJhB/wB2kSuGK+LhpURu3ZntQhKxxc0wyW/W87doFN9WOfHx0Z3NEynW5XB54/86HztvjSrMQhogtyYwqTke+wp7U2gfX8pM4IgH6/ANS/bX8JDyjCX0Sx6D459yii3iI2jZlQdOiNoY2pBIE9HF8TIvauPSOaSfKdSm2/cK2IUUKAubRVAGZTPbrbfLwCGOAq2YE485U8rEyqWk2YOF0qcDY5o+g/DthhSnonm9Qv0oxYf44UHhu0MvHUIDnjq5ZkPBX/wkf8JlV1w2S76fDavhmxE6xWhdakKzdp0NLDfNHStMD7d7iSYvtjZi/P03c16x0LS0tra2tbW1tnZ2dWHOPLgyYX0MFWFD7zODeKagDUMVAPwXj1iSQFkU0rE+kBNQKRC0dGt4dC4YpoGsFxjZ/TDZf/ZHbriF1QioFHZf88WH8X28HbXjd+9cVfrv94vz94vzdo0+/fPz7r/y25hTntbe3dymdTOmGpKGGgdFSTxz++OS2iUjpxGIxCIIQBLW2tmIIgi4MmF9zBfCilnmhgxszVccfM4Jxt8kq3jhrngAsJKaA7hQY2/zhn3f7Wn6Sht0hHEyllOOSPz66t3nR3X++991FpXdPwiULmdOiNv6R6dyidK1K19bW1tHRMSQNNQyMlnri8MfHN42YTCaLxWKz2VwuVyQSQRDU1tY2cRZeofP9CfGDbZ285o4xenAetieSAbt81sE85sp4kjrUUJwPxs++olgjowyDmx/akMeUYmNvT0ghxJLRX4GxzR/9J04O2jX2l0Aul49X/vg5ypBC7Z2ZAfPHhnRHsMdJJBIIgpqbmwfVbRgB0FJPHP5YkmBIoVCampqoVCqDweByuSAIwkMgaEEG8Le3tycmJt4cv+5GfHx5efkACmj3pwpe8+xg/Pg4fr9NQSyS9QeRRRENNwgAXdpWxW+mSdo0XF7b2SV72IodmALaUUDDUgfX8QnEH/ohHnMc9bgSUf/WbVzyx1/hZkQyCc0NMH/8lnqMq3Q8Ho/P5wuFQhB8ZOky+pLh+VlCnmdS+M2qPETqicMfixMMCQQCkUgkkUhUKpXNZovF4paWls7OR+zjIcr094Ag6O/vTyASx+vx4MGDyMhI+MXfKPw7j2oAYPjYcrdpHByG6bSeEY5u02QwiLx7Fb82gexcpJHNRnSpiyloCchoxQ5MAa0ocLd8CEbtJhB//Onv8PLh9WxVFlHHJX/0RweYP35NtmP0OBaLxeFwhEJh/8AjOYNnNE0yW7nx8jGkmZtI/LG3sbERRpCmpiYWiyUSiZqbm4fEHxERESPR/wm/lkajXb9+vQPlOjs7dbdQCOaPSxWcJ1wWzZOXQxUvUmwvp+QPpUWybUlNmU3C2cF4p0IOavWVRqrCvc6dsmbswBQYoQIBGa1hea1wzYbL4cD1egLxB1y9kR4R7ZlY/JFkS+1xNBqNxWKF30/aHOiMthWreVOoMiRXJAjKS8xurEBEnkD8Eb+3oaEBRhAKhcJkMmH+6OjQdN0BCILjnj9iYmIgpXuodM3Nza2timZLF7Nkxh9/SCFIAkEEviSPJi5mABxAYfc5nSyYHYy3v8+El1/Bn62tre3t7QNPfw7IaL1e1KKyImMnMQWGpEBobktobgtSqVtaWgZeADi2+aOc1lhCwg1JIKRHRHsmFH/8kmRLUTpkjoJjQuAks5Uh+feGpOSggdEKY/yB8QdSYGg0WnR0tKDHCYVCsVgskUiam5s7Ojq0/kZmXPIHIibigfnDJpsqVDqRSCQWiwEAQFZgoesj2o/xB6Ih5hmhAgr+yGkWCARCoVAkEgEAIJVKW1pa1NXrsc0fj3P9ragy+Hag/c1Ah1vB7hkZD/iSfjnHz8m9erqKBiK70ggrAhOv32WxMzMuupfRHg3fLzC/7MyN0ARW/2h797h5NIbBz8PvX365Z0NWOniaJIPBwFGIpWQcU8AbaoQDh0e3cRh/YPyBlBYajRYZGUlXOgaDwWQy2Ww2n8+XSCStra1aHwKZUPxhnUFi9jgWi6XJCiyMP5CSiXlGqEBobsu17Gb49T6TyeRwOAKBQCqVqlsAOLb5wzjS2y7Bf0iSoTtFxD+M8Q+QE7vaYtXrzvu+Prn3vUOrXzp1tQB8lAAkVG/fdYviysU9/AGyolZY7TpcT7x67cCmlLpHkt0/MOPubm97L6I2Z4aq4w8ul/tIYnoSPMKTiLxyuRzjD4w/kOJEo9EiIiKISkcikchkMjxRd6gTZdAFbAD/hOKPg6mN8L8LMplMoVDodPqgK7Aw/kBKJuYZoQKhuS0h2Q9JSkehUGg0GofDAQBA3QT8sc0fj3H9rZI/1v6WqzBG3pR1ZKrFfo/GDNsA3yAqKAXKva66etaSvH3Xzbvkt+fs/m/P+wWTxN38gWPGxTuZ5hGkQGNYnMMPJ/evCboURiYqA58xPL//Cx+nE3VcKS9LGRszLt5xT3yQ0XnTL3xcTtXzpRA3O+3EmlNmv0UGWF91dKx8xBr6wKUH44+B9Rn5r2/E/L0Ym/8xGL/SaLTw8PCGHtfYqOgyGQyGQCCAIEjdUO0AhDHwTxOKPyyS8LCuyAykQWdAY/wx8oqPxQAroOCPLEjlBDiVE/AnEH+4JF7987KD6KGKXR+HO/6xZqH/ZfubF7f/t+EZO/coinJ4AwdKxenbbDZsLiB6+6590d3NPTNqz4n103zCe8Y/yPC4CL/EfcZhS5eqkti08FAK2dt37TQ3N4+sqO3H174RlIYKvHaau9uJrAg9l7UzrmaK8ZeXWPzxfUzs+TtOCy1/+iVrCEMXo8YfAkCcVF1UyyIjHQM2/oGNfyBtNMwfOKXD4xX9JZFIpNPpfD4f4w9EpaF64PkfFkl4xCFgJxQK4bk1SH1Ee9TzB1h74ahXMaBBSoR33dzuCR8dAB4MQ1HRgjWhZ6IIw3nXLCxPyyAN50LU3YedbOzCvgrA/AGXwMbGRhKJxGAwhELhw4cPVTaAE4g/1p2znmS2kgUI0HUP9g+XP5TvX07t/+HCSa9aphh+vfIIf3S/f2Hl2k497IRCCsV5gJb4r+O6py03LTrt5U9QjH8oX9aIrof89Yp/Up/AYkgUfWXT64Ep7BybF466RYshKZBv5LDuyeSPCb3+Fhv/GKzjQfMHDofD4/FEIpFGo2H8MZJOEeYP83sw1ylUbWhoGLQDkMvlA/BHmYeBXS7MH7zS6FPOLp4hBUypsDbe18nO1iO6WiSV0LP9HW2dfI/qW1wXwL2RhJp1ycHW+XxAcFw5wC2LPuWiuIwhISeHX7783zEbz5sNEkVIoDYhOpcjhUBcYvSNhIQMhrAmwdfRztYjphrWASSnhF266HHM7tRNnBjiPgj3sLV1uZRJBSFGTqCbvZNHSF5u6I7lP1jE5GcFujo4eYQUMAYreyNRGLt2UAVCc1uuZkFwpUaKn0AgwPgDIrBoVVRChyozUMPlj+73L921hRX9o+Xf+iVcPiX8x8O/K8c/fn47OIUIsG6H73jWya8PUkiFuOxGclV9qtWp9bOvJiL8ETcgfwgqT71nsV0/v7q40v/7w9oZ/0guz/dMCi+j4ActXhoGoPM5+6P8gvLvIKiHjX+oxH9EH7RnIqy/DQ8P7+4nMf7QUpepU/4Q5zjscS8WgI0B5vb3uPj7iXfTMr2NrBKFadZ6ToV8AHdmu2ksR8jl8YT8lENbXYuFQP1pPePoVPs97sVCsCHQ/NidfBf9oxkcYaatiQ9eOWLBvXlwXwBRVOBscuL6cQvvOhEuP/FuuiJeuJ0BSo7rH83kgIRAfYNLCbbbHfI4QP0FfdNwUpSJntcDOpVA4rICLazTWJH7FN+biCSOlsTUsKHDgvVRAOOPviNCfQRCN/SIXyv8IQVKrN1+nmS+9hWnnXOsYP74afrxXW9ZrnnKYvOGTHwf/mBXnv/0yK9vOurNOLJjV0GVhvwhlRCvhBhOt/r1He9Dy478/Ev2EBatqHv/4hgfgK2/7VNOhvf18c7/ABsjDuvZxpA1H47m3nXZeiwB3h5I0hBx+O9Nm/78c/N2E4fAXGrvuq2eNp1DqqmjasFUHTb+MbzSNfBVOuUPfsSuNXs8vby8PN2D0m5ab7W9kRZn8+f+eG64kVEETwoJYiwtr9y96OR4Iqoo3MgwlA1B/MgDByJCei/LzHW18K6VgKUeFidr4Gn1QI6TiUfAkf3+DcVuFt4VSdZbbePS42z+2g8/KVDiZuFdB0LAffu9Lt7GRuFcKSTKsjX0qhMTs4LdrHYaeBco+UMEkLKC3RXf85WmUAYWCvtVdwpMLP541nzNYrfdQ1ITYQ60Zxj8ofqmYkYVmUx7dCGMgEOq4YhUhwd5jU14HH8oi1wk5NjMO9l0WnmJ36dWesZVYtUx9/QZ6F/V8UdubVlQXmIdnYwOPHI/WmFs/GMUxj+AEsfPpn7nUYsUJ5CFL3lQx4BXYIE8UmlBQSW1uyhyiWUP6vFnf35phTdBiRrgA8fPnp+30faEu+3u5bNfXmJxly2FJFxSWX5BVZMIkoqoVzfPXGyZQhNBfaIaalHB+GOoimkSXif84bZ+uZ6p6X4LnxvRznst3P3+c76UQctz09/nExRg9ZdZPEiKtvzXyN7NWf9Xk9ju9y/0O076BtaOTvrrjK4TE132Wnj4/edyKZ1R0o8/IKD65PpPTWKY4AM3C++qHFc43r/N4OcFSo5v/tvG7bjllp0+hZRbx/RN7F2s9M2Darh5/o7uPqcsdrmkcaNNN5gEXLng6Oar+J46/Dkog/xx1SQLsDATiz++OGn852WHIeU6ulNE/FrjD1W9/pCSN3hgYbl3gOHb1utftTNYH59DUL5JHfwqZcLU8Qe2/lZDAQcN9njHPx7lD2aS7XdzF3z7/ZL539gkMWgR+p8sWf7Dx7PeXO5WKCJFGXz48vQPliyd/+bzaP6Y+p1HjYKeGWFbZrz659U65UXffzxr+nL3nJvm/3v5medenW90JQQVlSaTE/u27Bh/DFqQhhFAB/zRJ+OEdCpTqGxJxEwqDenpAQ6Nif5/xc1PvFfPo6Ue3WGfrygeAgaVIeoTlZqvALOJ3jvAphz/qGXRGQK4XZUIaDQOAPuFdCKJrQRrIZ3GBiAhjURiYYMfsDiP73Ni8cdjXH87jAbisV+C8Yeus+AJ4g96wO+vvLfB/sxZD72Fr24IbMi7YLlL39Rm66fTfjpfffGXlxYfyRVKyH6rX1TFH6Kk/fOmrD1bk3fRcpf+PuVF5+iC6G2zPrEpEHPQUcHvbtR0J2raQYw/dFEOdc8fmuYyoyjilIurX3wFV00B0PTxGcU5pUNY36dptCNMFXa5egUw/lBbSUILko/fCZG2NiPDHohnLI1/qM/7QavfqPEHKJFwRIKW9t6NELH3L6P0/mXK107FdDqDyaEEbnhl1k9HTp89d9rv7PVUv3Uvf2JxqzDB7OOpa89VX17/8kKLdL6k0WvFI/wx5WvnIiqpNN5x1cyXvvfIOKe8qCDhwMdT156lKvjj46P5pIvoqKiDlrr+AZ5k/gA5grhE6sk4enipSMVkRgH/Wgw9hSHt/1BqzkjqylgX4qhnU7k1fEgKSe6nUi+VDGHQCKByzsewisVqmzXkvk8OfyBJwjwTTQGMP9RWVO2uvx2LBWvU+ANbf4tYfxrN/ecU718mT1K6yV+45GUcX/Xe2x99sXTBV1ZJ9Cz7L95auGbz5u/embL2HKUp3uzjV16eNX/p/2a9gB7/UF799PPTF/58KLoWEGUqL/pHedFZKlDguOylV+ftdD6MiupJ5A8WTyyFWpB/F5rbHwM5HLMDZe+Y1Kw8VPW+XvkvccLu0f4e6Afp9N+2VztUa8YfYsEFz6pZW8oXmld/rF/6liXxOk18zqns6xC+5q2HsIy0dDsumKe2WUOiwvgDkQLzPC4FMP5QW1GTa4qu5Sc1t7UiDRPimeDjH+WNdUnVRWQOQ1ullsxhfOdlZnvTH1EYG/8YhfGP/tknpBMaqAJ4JYuYTWqg9b5cB7lUMhuZqaqu1gAsUiMVedMPCZoaSSwQ6hNV//sOfEbX4x8hcTlTF+3WMz+bdr+ms7NLc/4QFBEX6VXuShXxISm9nl/Kh8RUrs8F/Hrb2t98mu7QpQh/AAyuz1ncOtv6XeEcHAgJSSyHU/VrjuH2hLIqu8cqpPU369/ZWn0gTyyGIIDBOXmNnkbt4Q+J+G5040bb2nUnSMF1oJTLcfEihZKlUoB/9kyjb5VUKhQEXsD9bI+38sd/NFz+KCkpuXv37sAGoAa2//F47Y8BtaGnowmosgRWnXMNGIaZMuFdV7d73ZNIelASFa26wo+dH7ICGH8MIhnSI6I9E5w/sPW32mqM4PkfV6OSth7w3XrAd7vF6Z1WZ3cfvrj3qL+RbYDJsSBNDnOnwIiICG0l6QmMh0ajefud/9fYDT62mLjrmZ7YfuCUvpXfHusLRrb+xnaBmgilLsya7R6vfWo4ddHu15caTV20e4N18AzvwksVnEGlADkcS4uy1zaXvmVYs+EsNZkuFeMYTpHMhHzGPsuyzwJ4fHj8o1J41qn8k5O0W0WMfQcrNtwUJJypeN+JmlLBuRDPqumeEi6JOFX+5tGmcvQMcQnMH7yahPr3d9da3WJ4/lc1y4Rwo7FnWEXMNtpbvjsbLImsnbW77vAtxinf6tlbNR3/mHmm8Fc7vz/++OPrr79+4403Jk+e/Pnnn4+EPx63/bHU+EwaOSX8kv9/djaeCY3iB64mpt4ednbeiY2glFsSpjBIdjmDCpBTEzIYEEhNi8+gEnvDS0B6zmVHW0eFdbQ4voI8JOSUsPMXPWwdLsdG+djZnU1nQFJeWdQpF2fPkHwmRM/tsWPGyA10c3D0CMlnoqyiSWiZlxxtnS/4B98oA6Be02qIPbQC5qBlbHwHmFj88fUp078DnIaUo2jsQPwTnD/iijL2R/ndb6gakpKDBkbknWj7z91NvX/qwvVTF6/7+MefDrp1MTQpMCr9SmxWSFyOJsfVmLRxzx8XLgWcOBMKH55nwk6dj/S5fP3clVv+4cnBMRlXr2drIpS6MMZ2gS9+ZDD9c+NXPzH8+BebI9dyZwXUacIfiiItEKWmUm396j/dUTrHk1GcRVyxt+LTo/XrDpTN82VzYf4oZWzZXrbQun6jS/0q07K3TjDqUxuXbi+dtbf6j0vM0u7xD0nCmYo3Lcg56EUZ3fzBvXaibI4PiwdBAIG6amuVdQ6t+7VON38AV0+UfeDH5kPQkN6/zAqoXXXAefLkyc8++yz8+fnnn2dlZQ1gAHvg8Q+EPx6T/TE3C+/qB0ojZIIsW2OfumKFnwsQgw2MAm7abrfP44rrL+qbhmUqDIVIgDIPi5OVRb3hq1Os9RwLBWLc2e2m15X8AT44rm+bzcF5b9sbS2dcM9kfy8l22ONWLAQaAw/Y37rWY8esKWrfFq8HNCqRyAUQq2hCpWU1AYDz0zOJ5eT0mla7FYrYQxu0VRzfASYWf0w2X/2R264h5Si6U0T8E5w/sPW3QypCAwR+vOtfBkjYE/WTrt+/hMbnfbjqYHBMlgiA5HK55u9fAArT3IcSXiUi0fmeDmUzHah+J8o+9GNzIDDsv/Je/ijnWpmWfR/EKSUISyp496kgh8AvbhLl5pB/0q80Ley2/8YsJH6qV74qgJlDEhVmkNZbN1yo6x7/SLtcNesgOZ0rqbuH/3B7vW8V7fdtlfvug3wC7Xf98t3ZwO1zlbMOk7N4koaUhg+3aTr+MTsYb34PV1RUtG3btmnTpk2ePPnnn3+ePXv2zz//XFBQoO4NoCb21x+f/bFqhWkQhC2UfilQcMzQxcvYKIwLSUXZtoYnb7laeD0aRskiD64ZGYXzIKkg1tIKHv9QGhqpA2mXLWyzRPxY8wNRjPAeE2luQTlMxI6ZkJQJWzTLuYtYReNHGhuGcqSQIOKAeSwDZZEth4XYQ3uiKtroJ2Zi8UdXVxco0dzao+LVDMIcaA/MHzOvb7mCSxrHx8nK6GlRG3+5ZwPv0E2hUJqamhgMBsYf2qqoo8kfjGQP64DyPhMkNTFRqkkYWBAAF3pwj28ubLwBrLhk8LdL+kD7LYPURBebK0oLIgO9BtU1f3R2dqFrt+b8wcMxjK0rZmwufW1z6Zt76uwKxdX38It2V609jlu7HzX+US3BZRG/21W+wLRy7p66Uzgw+WrN3J0VS/dXzDUnxPSujgELbzcu362I7TW9ih8vsGrE3fM/QCrb4nD5m3ql07dW/hHLZwN8x4Nlr20pfd+s+tPt5buzJQIc7Q/D0tf1yj4+WD1niPwBG7a/d+/eN998c/fuXRKJ5OXlNXv2bCMjIz6fj1YG9g/EH4/Z/phy/APNHy6bN1m7uVjp6fsVkW/Z65s4OFvpHwiqJoYYbzJzdT+0cYtnZVFv+KrGaMvNRg6uCutoPeMfil/R/CGgKU2k+f7ncjGDkhvQbcfsTkaAg7vCoplzckavVTT6HUeFZTVn/XXGsQJ6r2k1Sq89NG21JGM0nonFH0Oy/5HfWJ1Yeb8VtSgUqYoVQuK0qI0T5Pg7xXmc8Qcj47J7WBFdAgGEmzb//rDwk6wd+98AACAASURBVK9WGJ7JYg4NTLVS4UePP8AS569mbwwksBl0tgiSSgQMGrvXRCmfR6dzBJzGkjIiHwJotQ+qaD1TTXvNmIJcBp0t5JDJHKmERywryK+iwtalAHptfl4JUQCJC+2Wzt4RI4DEXHoTHX/3tEdkNQjwGDSOkF5XmF9DV9CPhF1fXFzP5DGoTIEg+9CSd3fEDPIWXNf8gdRr2KM5fyjLgJTNEJUTxPTu9yZSLlNUq6osgUKghiim96yMFfPFNQQx81Hbx4oIARBPEOI4/UqjREIkCnHcnqU0YqCGIKajLxcCtU0gnCOaFE6V61+IRCI8/+P/12FZWFjMnTu3rKysjz7q+aMPRI62/THVTy3h0hjd06hBAZ3KgQs2wKYxlG9Y+qQZEnPog1s/EzKauk2o9doxE9BJJLZypTRiFY1bkHgPx6WlHd3hcF9ZPHpNq/XaQ+ubANVPMU6nwWL8oTb7B1h/K5PJbtMLz+FvncPfOluf4FcT51UR7Vka7l4c6lpw9XjB1eP5V8bH4VpwNQ9Xomv+ILLpHzpvN43yRVo6Ha5/Aau8Ni6Y9Y1FXBM1wuSzmXPmzJw3d8acD760zxz9mj9q/CEuOrb01d/9KUpAiBWA+JM/vPy74Ha3idK93keWvjj7f0v/N3vq6x+vWLF07msvLLRKVw5jIGGMonPslr44c86C7+wSwvU/WQzbRnUvpCcd/WL6G/M+en/29+4F+Qr+iHxwccN7H+gF37RZOntHLKfQbulLby36fMmcV15YfDij9uq/7057c/6SpR9Mf/5Hb4Ig8+Ci6ZvDBlb+yeYPtQ3IwA/12H9VyR999r+Ni4ubOXNmVFQUUjEHnP8xTCm0Zn/sieukmUURp5xdT9+oGMKuW4+9YIxmAjD+UFtnLmYlWMWeA5tVv4JBKmRnZ2dLSwsAAFwul8FgNDU1USgUuMMeZ5/I+xc6i8kRCcRgz1/kEVf7BmbTFKt1m4OcEVV1xx9gU9CmDz/4zrVAyI0z+GTuzI8NrhKqTv0xf/Zq19GsePC9Ro0/uGH/vD7/QArvEf6QQt0mSvmFdktnbAnn8K79/frSY0WCEqdlr/0Z0m1DoseMKaAI9FcIQwpxchVmTmHbqKf8f3/lo0PZAkjE4YoU4x+vL/li0fSv7PO4ivDd/DFjcxgLrHb75qUNfr4/v/iJbSEAkk+vevFHb4KEev6naUvtB1Ye44+B9Rner5rwh1wur6qqmj9/vq2tbVdX91sqjcc/1Datw0swdtX4UwDjj0EqCdIjqvNMQP4Y0+tvgWrfn+bPX38Ox8s6tmzenHe3X6FIeOF7F83+xmb0q/eo8Qc/fPMbH5gl84rslr75dyhHXOq87KXfYf74+Gi+gj8U700EYf+++aVLmaD8+FeP8sfHR/PF3TwhkFK7DZrGK8ycngza+OqCAykcCYdM4YoL7T59ftayL+fNWutTKujlj9k7YvkS/MkVL/9+5sKGVz7Yk0DlFDt8OU3BH03n1k77zHFg5TH+GFif4f2qIX/I5XKBQLBixQoLCwuZTKaL8Y/hpR+7ahwo8Jj5A5C2Zta12kR0fnVM/qq5eMq+1tkmshW2smNhbZl1rYCk1yihuu5fLpcTCAR/pSMQCAMEk8vlplG+9jcDh5RtA0col8s7OztbW1tBEOTxeAwGg0qlwkMglHHnmpqaqFQqg8G4lBH/nZfZncr8ISk5aGC01Lob/5By4/d+OvedH7bt2rRs1pz5a32qxLxky2/nvfXHmUFTqPUAo8YfQKnTsld+uUClR2x767lX3lr42f9mTP1dCnWbKNX3OKieP7rD7A5JVY5nCKSirGNKg6b/KG2jsrNcV85+deY7M2auOAG/f4kh3zuw+I0v7a5Y94x/9PJHIDnVZc37r7z6/nfL5k5Z6UMUpFksmKkXNbCwGH8MrM/wftWcP+RyOQAAy5YtO378+CD8ISHdcTfeuXvXzu3mFwpVG1ARlqdlkPrNbtFsDBWou3DUq1jl8w5sfGwkN1V5O+ykVhR4nPyBpwqPRrA/OgK8vOfhi4byZ/a3Pr2/4xkj2bS9rdP0wcW2bYciABxVjO6WVPo15w9trb9FJwPhDz6fz2KxaDQadfw6Go3GYrH4/CEYhNa8mKJV1SF/QPzck7/Pmztnxpw5s78yDiOI6wK3fjD3w7U+FZonVVshR40/pGDFiR9m/3qBAEo4JAIVNfOu20TpgE/ULwzAJjbSeg1EiugNODIHbThLbXfCSb/oEZiYesN9/Vvv7L5BSz2wcO6em6o7KiRJGH8gUmjRMyT+kMvlHA5n3rx5UVFR6t+/SBou628/V6UoGNzS9LwHyQmZdEjSlJaQTqflBLrZO3mE5OWG7lj+g0VMDQuxBiYBySmhFy662zpcuh7lc8zuTAYDZeNLQk6JCgw4HV2heNsLlHsY2GWjLIxJEAtgNHJqfCYDpGVddLR1uhAQfKOk0NXQxOuEnY3Hjdqy7ptSESthgwx7a1FnLKoBFHg8/NHW1p5eQv3Glvamccs0g/ape9sn75U/tb9t0v7mp8ybp5kLpu7lT93b8YJ+59c2QHoRta2tHd059fFrzh8lTfhiYu0AcvT/qc+9+n/t6upqa2uTSqVCoZDD4bBYLMb4dSwWi8PhCIW9Zrn7KzbsM2htdckfkBTiViSFXbpyPZsgVqSWXR5xOjiL/RiapNHjDwji5Jx3Da/ps/522Jk13AvZRUGH9db/vP7fA34ZVJCe5nMitnEwcMH4Y7hqD1Skh8ofcrm8srJy5syZ6vlDEG2gf5nZc1OwxNXCu1YClnpYnCyNQCxusQItrNM4Wb3WwCKoJQojX2y8wsgXjXnN2CwKZePrTv7xHZb36PCeAEr+yEJZGKuK6LEAxixxs/CuSD609XixUIw7rWcSff/4Tut0jiDbdu/JWrripiJ+r5WwnkSqBWUswGgo8Hj4I72Yudye+eKe9hd2yZ8zkD9nKJts3PXcPtEUU8p0s4aFh4gLLYhzzATTjVte39219igrs6gJ3Tn18WvOH0Naf8sW8ul8DjLrqs9Nka8ymayjo6O5uRkEQaFQyOfzeTwedzw6Ho/H5/OFQiGovZmn6IYVkXQ07J9KxDwum8liIQeLN4RdRtHJHol/NPljJOl8vNdi/KEL/YfBH3K5/OrVq+r5Ayh01DucBq/1EAn4Ja4WXt38USNCLG4p+YMVboJYA/OqUpoMA+gKI19CQewB82soG1+ZObANMSUodPNHr8WOGmGPBbBchR2P8giFxS9IKog0M4++3xPMzKMc5g8p2GMlrOAxVHZdZOJYj/Mx8AeVCax0AF8w6Hhmj2zy3q7nTWXPGcle3vtwqS3t2A3BrdrWQkZ7Fq39BrlznTf02o6WGTu7fjkmamIC6P4J7dcRfwyw/hZ9d7lc3tXV1d7e3tzcDEGQRCIBx6+TSCQQBDU3N2u33DdxWZsDnb3ToxFhdTn+wX8QbPrDJ/NnzFG8gkGOdwwitftQmsSG8YcmKmH8oYlKQw0zPP6QyWTq+QMC6cnHt23ee9jGctcW8+C8K8ab9rt6HNqo51ma7e/o7nPKYpdLGjfadIPJleQ4xBpYrVAxdFGH4o8olI0vBmzPFH66fvxRmt1jASwpXxEJ7Y6TvoG1g8Li1yP8wVLcNCQLsRKWppMR3KFmARZ+tPmjuaXtZBzvhW2tzxvKnjVqn7xf+rRp2zMGbV/aScKKOsEOeXuLvL1dDnTKKHK50TXoNX3wJQPZNH3Q7Tr7YbPqtzA64g/ruIs/+loKpGq5B+ksZTJZZ2dnR0dHW1tbq9K1jEcHP1pbW1tHR4d2aw6e0TTJbOXGy8cQSXXIH8zIHUuU2DF/wdzFi+f1HAtNY7X7UJrEhvGHJiph/KGJSkMNMzz+GGT+qWKUAuRQiGSecoYpwKEyegzg9lrcEtJpbACCUNbAVA3199r4UvVr73uTXgtgUgjiKCx+8agKi1/54t4wkBTqvmmvlbBHfh34FtivulJgtPmjjCD51vnh8/pdL+ztfHqv4FlzwdNmkpeMBMfiWrmgTNbcJYNkD5vlrFZZVat819XmqTtEL+yXPWMs+MKZU9rwEOmf0B4d8Qdcn9E3GtgvU7qu8e4Uf4DuJ37ovD2uNGuoTZ668CIQKCXj6CIeorDu+AOo8l07f87sVTZ3qFqzX6LuuQY9j/HHoBJJIQjjD01UGmoYnfGHrvoqjR6QWRR+yuX46fjybus1jzUxGOIMpsBo84d7ovwlk7aphm3T9rQ8byJ82lTw7AHRHAtyYn1Xe0uXrAUE29pulUNHY7k7QvifOEqm7ml9ykT2lOnDqUbQyQSke3rEozl/BOXfCStM0agc9wj3yJ2wL0oFfDNip1itCy1IHpKSgwZGq6s7/pByE4w+n/ueQQS7J4sHTZjuAmD8oYm2GH9ootJQw4xP/ngCKvVQM2Iihx9t/lh1Sv6cSfsr+5qn7oGeM334lAk0bR/4xRFyCUve3tbV0dlSw+/Y6MJ7w4DzojH3JRPRFMPOp4xkzx5oe8Gk+RfPTnQXhfg15w9drL9FkjGhPLqoM2gBdcgfkLg8YPuiz3deqlEufnmsDRbGH5oUJIw/NFFpqGEw/hiqYlh4rSsw2vwx/bBssqF0ym5wqmHX06YdT+3rfElfuvIQrV4kBzvbmru6UqvbFuzhvGDSMvnAw2f3SF40kE01lD1jCD1rCLxn/sg2lUh3pTl/+OfdvpafNCQRkbtgHrQCQ9JQw8Do+HXIH6KMwz98OGvOnJkfzH97fu8xzyhaw3RqMRjGH5qIifGHJioNNQzGH0NVDAuvdQVGmz+mmrZOMZRO29M+ebd8kons+QMPF+4Xb7FtIvLlYnkH1CXLq2n+0arhf0fp7xxlvWYCTtsun7JTPs2kY6pR20uG6B6q1685fwxp/S2sde9tMB9KAa0XRCn0yD47uuSPNKtv5iHLXhDPmF7/4u/vnzF+XUJCwrVr1+Bt4nE4HB6PJxKJNBqNz+dDENTR0QHbBUcVzxF54f1vZwfj519rGMfH7GD87GC8+b1uXfF4fENDQ5/951TqOMD6F100C1ic41iB0eaPNw3FU3e3Pm8of3qv/Kl9rcs9aVWAXAzI5M2ytg6ZVCYHOmQMoJMv7qpgyr+0Z0w2ejjZQDbVQP6CQeeL+6Uq64OO+EM/xGOOox5XIlJ50wl+UrtVgiXkeSaF36zKQ1TVIX9AEAAAQrG4zyEGh2kTeiRSaGX8QyaTEQiEOqWrra2tqakpLy8vLi6+f/9+dnZ2ZmbmOCCT4uLiUeMPAtC2/nbTd9dJ310nfRtL+iaG+HU04auohi8j8V9EwAfui4jxcHwdiYvp0XVI/BGQ0Rqc1YIdmAIjVCAgo/VqFgT/qUDwVyAQPHz4sKOjA+kOEM8kxDewp6ysDN6ThcvlokPOtWp/bm/bM3vbXjDuemZv87qTTU1d8uZOmbxV1tEue9ghe9jVJZV1tnd0VdDkH1kyn9rX8oJx1/O7up4z6Jx1eFTXv/zp7/Dy4fVsUIhOP+aHFRhJp9v/2lFdfwtP+JCwq9KjLpzx9boYequU+uhSvdGbM68V/kCXSdgaHgRBfD6fTqcTicSGhgY8Ho903mPdA3eTRCKRTqfraPwDrWdHR8fDhw+FQiGDwSCRSONMTHRh0Jw/cnHtMYVt0QWtEXkP3UNrw3Oh8BxpGHZgCgxLgeQHHLzSNTY2Djr8NlL+WHVS9oxp51Sz5hf3PHzZoPVXD14xJCe0yh92yJub27s6ZFCHrKFD3tguDymTv2Uiecq46znD1pf2dU4x6lrrNdL5p9j7F3TbOmz/7er8zYHO6XUl/UlieGe4IkFQXmJ2YwWSJJ2Of4DMLI8tX76FGB+b98lquwQ8OHrYgaikO/4QCAQMBoNMJjc2NjaML9fY2EgmkxkMhkAg0MX7F6QQyuVy2LQxzB+wmHBbOS4/EWGFQmFzc7PKP6CIOJ2dnc3NzYsWLUpJSaFQKAQCYfyVtPFVb57op2lsbCQQCBQKhclkikSi5ubmzk4V3f1I+cPtTtcLpu3Pm7S/thd6dY/0U0vGvjCeYyKd/LCzraNL3iqvI7VaxxKMI2g/ewMvGUqf2df1vEnb84ayaYayEzdHOv+0nNZYQsIhrb8mHqS+YR5EgZOpkZPMVobk39NEQM3DIPHr1v66hHHd4qtZc+bM+vjHDXtNDfR/+3jBnBlzl2y6XK95UrUVUuv8AW/I3NzcLBKJ2Gw2lUolk8kkEok4XhyJRCKTyVQqlc1mD9BOocvSSPxwLysSiVgs1vjuZZEOgMViaSJsZ2dnS0vLtm3bvL29aTQahUIhYQ5TYAQKUCgUGo3G4XAAAGhpadEJf5QSwM9dmp/dJXvFqOM5A9asPdy3DFhf2tZXSWXtXTJ5izy7onnBAdwre+mvGnNeMBU+ZSJ9bn/X0wbyr+07Rm5/DFt/O5K2GLlWIFWYC2MK4I0etDZsgMSvW/5gRu5YPGfWl0YheHj9rYSeYb98/py3fvfRFlVoHo8u+KOrq6u1tVUikfD5fDabzWQyGQwGfbw4BoPBZDLZbDafz5dIJK2trYPu0IQuV0P1I7tbc7lcOp1OoVDI49dRKBQ6nc7lckEQbG1tVdkBIALC+276+Pjo6+tzOBy4mI3fnTexJ9O5Akwmk8PhCAQCqVTa1tamsl6PdPyjuaXNPVb4/A65Yv6Hmfhlw7bXdnV9dkxQKZW1t3fKW+Up1W0z9wtfMGx90eThCybip02bnzLpesag3T1GPHL768aR3nYJ/pp3D30WZSB1T9QmXXBrz8vRm16J/nMcHy9Hb3ot5i+/+hvIgyOeIWmoYWAkcp3yB1Dj99P8Oe/uieIilj9Emdbfz5v1zVEN06nFYLrgD2RDRIlEIhaLhUKhYHw5oVAoFoslEgn8jkC7i1/QhRDe2qmtrQ2CIJFIxOVyWSwWc/w6FovF5XJFIhEEQeo6AEQfuJilp6d/8803AACIRKLxV9LGV715op9GKBSKRCIAAKRSaUtLi7pFbSPlD7lc3sQEVzk8nGrcMWl/2+Q9XVO2yz+zBaoAeUdrV1eLPLG+7bUDksl7ZVMMOqbsbX/GSPa8aetyNw6FCSJFv49HR+tf4G6mz73gr0V83LSojdOiNi67YzaOj/dv7JgWtfHP7OP9RdBiH4xEhb6LDud/MMO3fjRn1jf7o8ndC15Yua4r5s956zdvJCWj5tEFf8C9ZkdHR2tra3Nz80Olg8aLgx+nubm5tbW1o6ND5Z8kdEEauR8eAoGUy6bEYjHc0QrHnROJRGKxGAAACIIGHfyAVZXJZBUVFR9//HFLSwtS0uAMwj4xBYaqQHNzc0tLS1tbW2dnp7o/FVrgD7lcnlZEX27PfMq0/bl98mm75V/YCqsEss42eVuz/Dah9VVz9gumXa/slr+xW/7ybtlyR2ryA8oA7YiO+MMl8eqflx1EDyX9bw3zx4HCc6PWUT2WG5GFzNHhDwEgTqouqmWREal1yB+Spsh9y2bOmfPOl79tszi03+ifZYvmzpjz0W/nq0dfZB3xh1wul8lkXV1d8LaIHePOdXZ2dnV1qWukkFKkFQ+8u2R7ezvMc83j2rW2tra3tw/QAfSRtLGxcf78+Z1KN+5KGfZAo6oAXIoGrtfa4Y+2tva0QtpSB85zu6VTdrZ/6yDAAbLOdllXmzyxoeU1c8bz+zqn7OiYvr3te2txahG1rU31zrdwZdARf6w7Zz3JbCULEPSpcnK5HOMP7XbVo7z+FmxKdtq0dDay/mXuR98fiq0FtDaRRXNxdMcf6EIL74w4bj7RjzZqfoTn4FZyvH4O3Pr3VxuPxy9cuLD/eewMpoAuFNAOf8ApwzWJDofzlti0f2nDxku6Ojtl8jb5veq2mRbAZKOO/9k224RxcBTxoI+hI/4gsGhVVEKHqlVAE4s/slzQe/rKZLJiSr1nUngZBa95RztwSDqfsz/KLyj/DpLXOhz/gKd9gIySxBDvk55ufoExBWQhMhdkdD2jwx+IqpgHU0C7ClRWVn722WfajROLDVNAnQLa5A+5XA5IWrPqOr1uQhSos7NLJm+Xp1d1/OjWah4hS6tvFUta1KUDfV5H/AF3megbIf4JxR9/ZDq3KF2r0rW1tZ1IDh+L629BHgVPFQ5MQv1/5ZMK70YGnj9z7nJI7J38xt5Zq9ogFYw/kDqFecaiAqmpqatXrx6LKcfSPBYV0DJ/aEUCzfnjWfM1i9129+9jBjijMoUTij82pDuCPU4ikUAQVEbBB+Ul1tHJA+g2jJ/QUmt//EOYcfTH+TMXbTxZmHz4h/+hd56D/Sr3nxNkum5c84e+qdVRm8MHjHb8sWLJ/IXL9ZxiyjjaeVmD8Qc60zH/mFPA09PT2tp6zCUbS/AYVWBs88cXJ43/vOwwpK5RZT5NKP74LfUYV+l4PB6fzxcKhSAIDklDDQOjpdY+f/CTLb/9YMaCX1zzkkay/xzIeBB5fOcPX//hlkYFRzwEgvEHOtMx/5hT4O+//46Ojh5zycYSPEYVGNv8oS376xOKP35NtkNMz7BYLA6HIxQO+S2GJgiCrhLa5w8IElKrH9SzQJX7zwmZFBpffSJBcuYlW2N9A89klpI5QHK6t4VbImOkoyAYf6AzHfOPOQXmzJlDIBDGXLKxBI9RBSYQf4QWJB+/EyJtbe6fVROLP5JsqT2ORqOxWCw+f4CuejhdMiiRcESClvY2RGpd8Ec3XoizHdd/9ck/3kXIghdRtsPaRe/+cUYdf4iLXNetMgu4c0l/52mCqPSc/aVyLW0Wg/EHkuNPlIchba/it4z7o1rQ0tElG7byHA5n+vTpo7MKetiJxC4cTwpMIP7A1t/C9j9+SbKlKF1TUxOVSmUwGDyeli2vj9L6Wwk19/qVywGOGz+ZO+urHc6BQZeDFMdF3wM/LJwz6+sjavhDQjq9aes1rlR4z8LgNEEivL3vL7cK7byBwvjjCWwcRa2d80IaZgfjJ8JhmMEYahaUkTvuVrTdrWi7fJvkea0E9mOfmALDU6COoWKfOXVlcgLxR3JN0bX8pOa21v5ajGj8Q1QZfPvKNUJPB8YvO3MjNIHVbYtTTReoflBhhJcPOIOhmz/u2ZCVjkKhNDU1MRiM8sa6pOoiMocx5NSquR2Zw/jOy8z2pj8itU7GP8SFTms+mIGY/XjUM2dLgLrH4ScY/Wydye3mD17c3t+cSnqyT80TqYuqz3mMP5Acf3I8BKANJg+LLNo4PkwzaLOD8b/dbhqq8gEZLQEZrdiBKaAVBcLyFDsNwW5Q8zMTiD/grkJl5RwJf4Cc2NUWa3/LFcDxg4y7u73tvYiP9mdg7Ylzu/7JGnyGo+rLR9YpIn2kOv5wjA8Yi+tvpWB9xHGzPSZbvlo0Z+bHa/7ZZ7rHVHHsNTXb73j+TgO8HZ0q1ANrg7Z99b2e3g+rjXxd9b5c5VKAvLsZmdQYf6isX4/3JMwfRmlUpCKMS48QlM4Oxq+/RUGMXGrYBwRktIbntQjEEHZgCoxQgcCMlrBchfF+2A1qfnds88fXp0z/DnAaUmuisinUIn9IeVm2Ab5BVEFl4YU/ffZ9e8blaGFtbsqxhYdXT3e3cazkEqpC9c+afeXjZFdCFkOcuHjHPfFBRudNv/BxOVXP77mc2fc8xM1OO7HmlNlvkQHWVx0dK7txZ0jPro4/4ooy9kf53W+oGlJsgwZGS62T8Q+YFcQ5Thu+/exf3+IhMYSEXhjx31EzUwvHgMyejWMGfaJBA2D8gc70J8Q/ofjj15tkZJ8OTTbgkMvlARmt14taVJdtCemOu/HO3bt2bje/UMhRHQYSlaVlEiWqQL8vzYNV51wDCPDYMFgTeiaq26+4VlielkFSNWwM1oaeiVZ9a7D6rGug6p/63lp9/P1CahjhyIMpH1ncRwcV0SofsxFWuK8amouvSQaNNExobktoTjO8+ZxYg+2HxjZ/TDZf/ZHbLhUZpr5IqWwTtcgfICtqhdWuwzXpO2x++zGxIK0k5r8CfHXp5dV2a+Zd9L9WGv6j9ZZNyVm3sjw+Omrl1UT29l07zd3tRFaEnsvaGVczuy+v73tejL+8xOKP72Niz99xWmj50y9Z3CE9NRxYHX9wucOJbdAEoKXWIX+oz2t1KRSmH1v52Q8b9C2dz4bfKyZxNWo6NaqZGH+gM/0J8U8o/lgXTxT0OJFyC7qBNyAdkD8kDZf1t5+rEkCQlFuano+rSvB1tLP1iKkGySlhly56HLM7dRMnqAjbsXyFRVROSkImHZI0pSWkU0nJUYH+p2OkvLKoUy7OniH5TLj6gA9cDU28TtjZeNzAicmpCRkMRk6gm72TR0hebuiO5T9YxNSwSsI8bG1dLmdQAXJKVGDA6egyYkpCppRXHulpZ3c8IJPGr+lJhhQscbXo2WYSCdBE6k0JnTZg/GHnL3rYOlyOjfKxszubzoBQCZZ03717ZhivLEpxe/8sGqsk3MPW1vlyZpNEQk4Jv+T/n52NZwKuOj4mlw1BAD4xJotYGn3K2cUzpIAJklMiAwP8YnK7k1HAlApr432d7Gw9oiseKB85Kjs5IYMBcZBoAXJy+OXL/x2z8bzZ0M0cJccN93mdOGbjEV8vJivUYOQGujk4eoTk5irFj6l95HKF+FE1CTE5HEgK4hNjsxhDbyTVNZ4Dnw/NbbmW3QxvKQ1vvywUCgfYfnls80dXVxcoUYXM6uVW2SZqnz/qGgMD9aYc+PlN14NGOXVSsOKI27rlSSRWru0Ui7+X+lmt8jN+/+C633Pw3r7rFsWViyFR9JVNrwemoPjjkfPsHJsXjrpFiyEpkG/ksA7jj0erAb8+I+K093/HPU+4nOg+3KJLHw3TCxAg7eahrYeCYoO97Pb9+dns6e8u/u6vo2EVwxlS6nMLjD9U1q/He3JC8cdPcY3I6nomk8nhcAQCgVQqbW1tVbe3sPrxD0G0QnH8RgAAIABJREFUgf7lbnSApBCAy0+8m57pbWQFlBzXP5rJAQmB+gaBFHaghXUqX4ECtRKw1MPiZGWxyw7Le3RRtsMet2Ih0Bh4wD5JATEQ+OD4Tut0jiDbdu/JqiI3C+/ySBM9rwd0KoHEZQVaWKdxsmy32+dxxfUX9U3DMo8rYgEVkHEy+9hO+1wuSKuvZ4qQZKD4A+gNQHvQm5LSiAHj17fN5uC8t+2NpTOumeyP5aASfCcfvruyKxHnHNvpkMuR0Oqq7thsd8jlAnUX9fdF0B4oZRBk2Rr7lN84uM+fJMp3MfEIO7bHvVgANgaY2ycqY6HxopBkSAH8/cS7aQoVE5WPzH/gZuFdkWmLRBuW5aJ/NIMjzLQ18cErezewxGWndRpHmKWQrdjVwpsftW+L1wMalUjkKsXnZD9yuUI2CeemlbE/SZjvZORZBqjvEPu0YCP8GprbEpL9kKx0FAqFTqdzuVwQBFtaWjpV7XwytvljSPY/8hurb1fcb0UtCkWaxZHzx/cJ+Sk1xSm1dQS6cvwDxynFVddRyyJiTV+2OyEFK4+4/fxlIp5T5f2+5R7z0roySm1qTTmOS9GQPwSVp96z2K6fX11c6f/9YWz8oxcmpJAw3++v+XPn9JmI+o5BpLq6RL28acNpUre1MVq0pfH5zETX3344cJeLjnY4fow/kDr15HgmFH+svd5A6nEUCoVKpbLZbLFYrK4DGHD8Ayh01DucBi+OEwk4ydZbbePS42z+2g+UuFl414EQcN9+r0cFo4c/vBD+UBKAIHzXmj2eXl5enm5BORyYPxTXSYAyDzOPEgV/1ImJWcFuVjsNvAuUnTEr3MQojAtJRdm2hidvuSoCKyHDM8LEWHEegqSi3mSg+EPQG0DBKz0pqRENFj9Iu2xhmyXix5ofiGKgEpyZo0wq3IbwI02MwpWDxIIIY6NwDgQJs20NvaoV6KB8HIuTNYJcJ2OPgCNm/rVILO5BGbmKECAEIskQKpJ/Iy3O5s/98b38UR7eG63yubuVrFHOI1QO8yjPHPAoUfCHFCRlBrsrZaMrxGehUtV9OSQFch2MXC8c3HcR9ZJLXZOorfMK/siCGhoaGhsbCQQChUJhsVgikai5uXmi84eO1t8q55+unGSmPCwO+RKU/FGVd9Bjw4s2enNtNiwISZFKGFf8Nz1t/svqlNLQUINXD216/9iG6d4hRWKqhvwhlRCvhBhOt/r1He9Dy478/Ev2cFbMjtr7FyKb/qHzdtMoX6QT0uH7F95No8/mzvjw242HHPf/uWz+L/tsnc3WLP1y4/kidZWKFar3rUVa984vYJXrmi0hPFHG4T9tcwF1l2h4HuMPJMefHM+E4o81sfiGHkcgEMhkMpPJHKADePjwofrxDwikJx/ftnnvYRvLXVvMg2Jd9Pf5BAVY/W0GlBzf/LeN23HLLTt9igFelOkG4yv3Qow37Xf1OLRRz7NS0UfWSiBaosteCw/f/1wuZrCVNQhEOuxu/ijP8Xd09zllscsljRttusHkSnKcvb6Jg7OV/oEg5QBJN3940xId9Y3tj9u5hldmu/YkA8UfUG+AalJvSkqzB4sfzR8CVIIZcFK7Kz490UHf+Jir3fGw/AR7fWMHFyt986BaEfI4FidrALD65PpPjWOZUnqi814Ld7//nC9l0GFQE+QhyRDnucHJ/8ssHn7kCGcL75qmW0i0yhGOgfmDnxfg4O57ymKXcxpdKX5yv8sVo01VJ39ZvCeKPlqDH1IIgvkDr3SNjY0kEonBYAiFwocPH3Z0dPRvEybQ+MfFrASr2HNgM9RfhZGMf6jvmUAWq7GMwRXD2Q9y6inEJsUcSQmH3VhO5ygHJDX+ky0hx2beyabTykv8PrXSM65Sv7hDfWlTxx90FpMjEoi1Z4W9gdk0xWrd5iBnRGrd8QdQ4/fT/LmLDiSw2DeNv1p+MF0khcTZzquXmN5QmzWCAs+flny70+F0YJDfobXzv3EqBDjRu34/Xv7oqiX1SqqLGeMPJMefHM+E4o/VMXDjr/jUpAM4cuTIAPyhLOcgh0Ik85QvAgBmE11hK1k5/lHLojO6GzEhg8oGpQCHyuj3ElPIaGKK1NUXxXkhnUhiKxtJIZ3GBiAIFNCpHBU1sfd8TzL6RIsKgEqJxvF3x6YuwRIBjcZRvsiQ8Ok09iAWC4V0KvORXbh7kwGJmVSaEG75ux9ZeWtNou3tLwR0Eomt/L8Eiw/1uxzgFJ3YdSRVJ7at+yiPfA3NbbmaBeFwODxewcEwfwgEAow/unNOZbOoG/7oLStI9gzfIyz3DjB823r9q3YG6+NzCMOaMqmOP8bq+lslH4CESxvmf/ClQzYn//i38787mCGUQuKc46veXm43kNoAMT3Q9aCJoclRv3t4AKj1+2vDfw+GtIJGFZ1g/KGyfj3ekxOMP3CIa2hoIBKJdDpdXQcQFBS0YMGCwfhDVTvGKM4p1cmk9YHqrKoah4VXpwBQHuN7JZc2rJ5CXZyDnn88/MFgcrPyGq7EES8FsE6f4p09yTt/iu3tSzvtQ/Z3b7rixL1qz79mT00405QUQim4Q2TQ+AM0SZrvf2sa5Wt/U9P1V7B2Ku87BvhDG3VPHX9cTL/xnZfZncr8QYvXkAKgpdbd+IdUfN9+1Qdv/eyRW3xq9fw576/caX5k7/dL5r611kNdaoXp9quXrdigb+lyLiLpAYmvDW3he2H8gc70J8SP8YdK/khNTX3rrbcaGhqGwx/aqzLqKil2fiwq8Bj4o4nKdnZJ2r75pt6GtJ2/5ZiuzT68Mv3Aj/csf083XxnnsCLe8fM7HsvSnZYkuC6Ld1ka5/z5jUCTZAaFra550pw/noT1t2OolKjjjzG+/hasDdrx+U8HrlRWXd6+dCZsBfWDL7aG1KvLGpB83WqH7bX4UD9ni20r5s34wDhGoOpP3tAbWYw/1FXqx3ge44/+/FFVVTVr1qy8vLwB559qp1Koq4bY+fGnwGjzh1AInXDN3LX6psXq3P3fp+z6IebA1wF2n5058O1Z489PW33he3Cp57HPLtgvvmS/+IL7ggtBC6MuLLh97oMb4fuSBVxAZaukOX+UNOGLibVDykWVd5zg4x9jmj9AVumNa1cCE0oZEkjKr08K8XP778yVrMYBptdQL27YcJbSXWyA0pN7j6Vi/KGyYoyLkxh/9OGP+/fvv/POO9HR0XD2qh//AGsvHPUqHsak7L62xTRsooHa0NPRBFRgtL0yGIaEd93c7nVPnlCeEZWnZvasZUP9YVBnzQyoPnc8kNC99g0VXgrHoyY2VJIGZDLhXVe3ewO0PFLNbLUJ7rq53lPOs6k9b3IsWTlAC+R7mJwoFOJuOO7daWCgv+PAuTwWBIGkO27d9uEuFnAGTBv6YXXmH23+qC7lGa4KPPJlgt3S2wafhXgeSLsfWVUVW1+V1lR+m1J9t6nsVmN1Iq00ilgUhQvdlej9jm/InOvXPrhz+pMYYjJXZfumOX8Maf0tW8in8zkqF8Fj/KFpBRtKwUVnrg7fv7Di9iyd+9a6/zS3f8oO1/vSJLHHJg8vZtca24JhNLIqajs2/oHO9CfEj/EHmj+CgoJmzZqVlJSE5M4A/FHmYWAHLwpDrGZV89GGrQhl0adcFJa2GBJyt80xRRMhUdgWo/Wzo9VjNSufiTK3JYEQ22Lp5SnxmQxBbYKPwkBXTJWoe72MonWS0LP9HW2dfI/qW1wXCHtMkFWUK+1vRZdXdRv1qlbOdQUruq2ZgdwHCmthLpcyu/e+AEpcjfd7u9vZeSc2AhCvx1AYTRnPAV/f7ctXWETXgtwBnosBgdS0+AwqETE+1igB6TmXHW0dFamL4/daXesxYpab1cdcWO8zCtAqSWg5/g62Tj6KaJQzecFar38No5iQVJhi9bfD/Zrz+vqBdYppaoyUI38dSqq5pL/9bJWCVDilGfe1Z8d52N3BaPNHiFv6vi/POC27evDDM7f8K4S4ZlYSkxyMq7hYU3+O1OhDJnmRKT5kZhCdcZcGVkhLzlUGv3/++syrwe+F5bpUIXUA7dERf+ho/e2ws2r0Lxy19y9NXNbmQGfv9O4/WHK5XIf8AYlLL21d+OFPdjkaT4gTFfv8vuSzf454BwRfPL7100X6Mb1GllRQheY5hfEHuiI/IX6MP2D+aGlpsbS0XLRoER6PR2eNRvyBsprVa9jKPVRhaUsINgSaH7uTr7Q5BluDVHJD9YM+drR6rWbRUfayIqiI6bCaLIXFDzFeYeYsQ2Ggi4csghWmWes5FfIB3JntprGCXktoUoX9rTQhKnlwbVWa1hAJFffJ4wD1F/RNw5V1vMdyGjHYwCjwtgNiKOxekzKe7thy7Ad4rm6DH5VFvcbHqlOs9RwLBWLc2e2m0am9Vte6jZhx+5gLE0G9z3gzv1el6lRrPacCAVB/dvu+6/BKIgkpYKd+EJl9w1TPq5YTY6AfAK9khoSZR/Rd/Az0/Xv+R42o4dK8iRs45Gjzx7ndd44uCzr6P58I/SQpuS3C8rbnh45+7zicfNvh7Dtu5151Cpvl6f+Gne8Cu8tfuSSZRrfWtqTvSAx53TP+rSs5+wvR1QDx64g/rOMu/uhrKZCqeOmDjX8MXKqG+iue0TTJbOXGy8eQPNUhf4gyDv/w4aw5c2bMm//2/N5jnpGaPSPgIRwJtSDCy9Z8375DJ6LLNAaXwYZ/MP5AcvzJ8QyRPyT5aVT3yCaPSKrPbVZ609DMKz9SU4Si9Ay6Txwt5IGIDUFSAf9aDD2FIX0kzIAlCqByzsewisUadS3w/nOrY5DlLzhk/Qufz79+/fqSJUs2bNggFov7ZI0m/IG2mtVr2AptaSszF7b5oXy6bv7otUPabUerx2pWVmivuS2vcsR0mHJZb0WSwkBX+nWbv0zjuQh/cMONjCJ4UkgQY2l1nYUyQaYkBjbKqBcsL8wf/AjYbpgoy9bQq06RlYjltHx7Qxdv/W77aO5B2SQUfwgiegynuQf1ey4vhD96jY89uGZkFM6DpIJYS6vIqz0XuwX1GDHrYy5MJOp9xuv5vSo9CDUyiuBCED/W0goe/4AgKTvGaJvbqT27AkgScaGDnk228v2OhHB5x54rqQ56h1N5yuIhUtg517xo6SjkaPNH+I5C9wXhjh964UIItXH4EwtcYt/1TXj7bPDbnqHvusV/5Bf1nmvwa+a5uyIl9wR31p+tCS4hRTZefdctfWZwgZ5i9lN/pyP+gBXvfzu5XD7B+cMnKfJD5+1xpVnaKpQiECgl4+giHqK2LvkjzeqbeX2Mn86YM2cA+6fCzEun05naelh0PBh/IDn+5HiGxh8S4KJL6eu7q1fb1S7fV/7m9qq9qaJuEz6o9l2Mp/1t1RBMVwsTfBxdb1/Z9J2VX1hWva9X9tUFdiOV/tv2aodqtZegCxLsF5aRlm7HBcMdDOru/UMq9m9T7n/bnz/i4+O//fbbTz75JDExUSaT9c+XgfjDbf1yPVPT/RanztsjVrNQhq3oSgNjfv+5XEpnwPbX4S5QNX/0Ws1KIfbay6oFEdNhobeOW3hX5brpm/gE+Vv9vR/FHyAp2vJfI3s3Z/1fTWI5eb0myHjR+zaYBF91RiVPkQalaa+Q+8Rbx/RN7JXWwmqUFjuAEpd/Nlm7HrfS0/d70NRrKIyljCckK2zfBpOQQpKa55KQQ4w3mbm6H9q4xbNSab9VYcvV4mRVY7TlZiMHV0XqrhN6ra51GzHrfXDYXFhIXu8zovmjihBl+a+Rg5uT/q/G3eMfkBQSJlt88uGeGJbiJRQ10XHrv/uO2lru/NPwYolIQkt27bEPZ3G1ToXRFJVFRXcnR5s/4rcWX3431GeRJ/VuU4ljcvD7h+7M9Qh91/G+xW0oniEv7RTcZeRZhUVtdGu6VB6xwqPUMZOdSI+ffzLnxculm0bKH0H5d8IKU4akZv/qh/DHtKiNBnle4/j4Pd1hWtTGX+7ZIPb5m5qaGAzG8VtXplitCy1IHpKSgwZGS61D/oAgAACEYnGfQwyq/ecKkq4brdziD/8nYxYFH/nvDnpG22AN/QAPjvEHOtOfEP8w+GPmCSZP0dyL485WvWnQEMGRNjygmp+oX2NTvzuSQxAJzv5X/f6WiuUeTXcJXJ8L+PW2tb/5NN1BcEQiOudcPtOSGK84IyXmUx1v8RoQ/pCI70Y3brStXXeCFFwHSrkcFy9SKFkqBfhnzzT6VkmlQkHgBdzP9ngrf/xHw+KPysrKq1evGhkZLV68+L333rt48aJEIlFpgFLz9S+9VrMeNWwlYFAZIk3/efdazXrUXlav6TBF7QMYVLqKWZwAh4aYMkOZIBMwaCwQbdQLTkyPaa9eu2FIIiUcxHIa1GsoDI4H/pRCkJrnAtg0hsoV++L/Y+88wKI4+j9+Jqa/eU3yJrY0bInGEpMYk5hmS4wFY40oCja6IArCHUcvggrYkaYiHVSK9N6kSJPejuu9396tFGn//95xdwvcwdGM4u2zD8+wNzsz+5uyn53yHQZZbochImbyB++XC1PyjKCATh4oXDakOeJTsS1EjnwKLcDEteIncBPNYdq3EX961vxx/1imz2eel76zp+TgayzC7i7SC/7sWIVx6NOaJ9TAjALjy8SA/KfNYKlVyM3PDUI+PV1jnslMJsV86fLwvWtVu/IUtlCq939M1PpbrJD2ftSudyK2vwynfrbnIP54ode/iEAWtq66oqpqwFldXdVIoCvXE2MXu2/bYHr1svFvS1ZsR8c2jKBmKGu5RnCo+UNhjf53L46dP0AQ6oHQqraoEJYl411TGXHJmB8OVFuWceODGxZrVWuF0h7VUezDqbGFFMOTFd/4s/r7wLm0g4fK10Zw4ft+AWRJ/4ewNrbh88N15vEUd4/q2QaY+y3SfhE+Xe9Y5eFcoCy8bvbheot4ynnvmjn7R9H/8aHzgzdn/O/9999/8803Fy9efOLEiejoaDweD59/OjQvlPd/KC7t/4qw1YhvPrWH58ECz5o/Eo5HRS89e/0bS2o2rs48KO7z/Sm/nxY+pFSfuxe0YFfCx1qRGgdq3O6B+cysHzziP0LVm6Qz0/B3l1vnzXIv3Z04tDL09fWpzh9+BQ/uFKaMyu4KY+zr62O282v5+Fo+vpqLrWA0F5Nr87AVWc2P0uuL0uoLU+seTo0zra6wubVlSvEHT/H4y0wNjblfbzp6oxBalyv9huCXBKJsPW/FFdRTea1RRxYv1g5umEh9YjV/KKtf/+L18fAHOat5vlatUz0v+kbdF0erf3es/1b78bF8Ib8W/6N2vTdBiMlt/e3Y46+tGjadqJjvTe//MuYz9I+Vf3+TDR+Sl/IHcOdshYYXjQWCAgxx3f5qyzxS/7hMP38Ibp+tWHARCmq04y+zLpcsOHDa3NxcR0fnq6++ev/99//66y8fHx8Wi6VMAFv1/g9ZJVI71BZQZoFnzR85erdSlyLDvzVnZeCaT4XlfXG0UvfCk0p63O+nixYZNXx2ouTjYzk/neko5JTtDo3/n1W9cRIzA3f3G/OcueiyAzEKWyXV+WNU628lJlMYI/xid3d3e3u7QCBgMpkUCoVAIODxeMkLe4r9xePxkvGXF7v/g5/vtP27zzQ0Pvn6h2/WrPlmzar5CzXmLv9+5aplH0OTUn80fiCf6gGQHt31cT19ZMfv3y5b8vX3S+fM+e1MUEoZTkFnrxRZlNU0hdfV/AGvSs+Jewz8MdMWn1rJjEnCaeqXf25LqmBRtbQfH88XiljUAzpi/qjD/3SgzgMD3HGvWHSRzgCBEI9KOX+AQOL16o906ywy2LV4Tph/w2/nyI8I/f0fGb7Vs0/hMpnC+uSmRdoN3tWkbQeqDB8CbAxpm07l4VzBg6tVsy1wOSxhc1rzogOj6P+Yc7MJPv/j4cOHXl5eq1atWrFiRXx8/NOnTxXmyGj7PxSWfPVFtQUk+8890/1fck5de/iD/oNftLn5DYQzAY+/3ldtgm6rbcr9/Vjdcq3GLw88WnQo76dT7SWs8l3Xs2cbNRtHsjJw8UutSv5n9/ifaIX1YZL4QyfITcNOiynkKYxUdlHNH+OvSDQuyz0lNK5aPr9nEud/CKmJqHWffW8QhpdM+OCVef2t8c3+q1WshrtmqxZozD8WPuSJBK11DTRma0lyyCVHM53dNvHq+R+yCjDlHGPgj/f3lr+/t3ymTvUGL2I6VSQS8gLcqzSM63e41n99AOIPgEY7dKz8w4P1zneblhyu3ujUuNEY1v8BgiI257p37TwtKJyPjtadyOJx+8dfRACRbmZR+ZFW+Yf7q/6OZtMFbLtTFe/vK//cpOZr7crDuUJOI+nv4+UfaFUsP1WjMQ7+kKx/IZFIwcHBixcvXr9+fVVV1dDsHY4/hNhE1359q+vFjCH1SN6zOOAnoOaK88BtMZTqeglbE131Dh3WPaR9wqcYWiWk4ORVZGS3wnoxFflReCM0laQm1PqI7tHDh4yvFrNE9FxP/QNH9PSRIXUCkJ57yfTwUZ3jrkk4ATk3+JL3lahSaKovUHvNEJUqXv4qKHIzcL0fdDniGW5hP5qnU/bU/9r1Z93/UWJxqfTXY+lbj/JKa/CuF8s3/JGvrSmsKmj2vpm6fFP5ii3xX6xrORv0JJdQ+KNF7hzdFtNwVjohYbFd9QfnanfcH1oZRjX+Mqr+j51+tv+12EIHuAojlV3s7u7u6OgAAIDFYlEoFCKRKOkCwU+5g0AgEIlECoXCYrEmttA/y/W3ADHonyUanx4NZ0hbLv7jC+sXzl+JzOLwi+3WL5i7yWPQ0/GLbH/9BZUtWVZATb98JW2itqhW93/I6tHz4xgdf0hL0aAyIxIKsTgeDsapfBa/Cg9wQRGTyqujKp7szGXyqzB88tAFtEJhayu3kSldC8MX1GL4ZPgkJK6gjgDAh28Gp2dIOpWtf5HsPwcAwI0bN2bNmhUeHj4oa5Tzh7DZV0f7ajXUO8gszyzE0cogMS8H32yCAJcacv26GxLtezfcywZ1JUskxKWG3rjuZoM6H9fAhdbCiAarew3U9RKnH2iBIqiCrMosyypsxabHZFNEQiKkXkbKH6TZxZDFLhTi0kKu+bghbX2jI7xQqCuZFFCZYhgZg6GDIL/YTss6q9RN2yyRCgh5TI5AUOF24GQyA+QV2h5AJgU6nqtkZrmffSBRHb2w93gkBQQ5aea7bAtb0mOzBoTfkngvlwZyCsMiSgVCQsa91OdA+GvE4vFsPDxr/mhGn2vZrJ23Zz+vtIhw1atGa13xP98RLiN7MK1AWGqdtSsvNKynphVv6p37ye7iebqtpnfYybjkZeiS9xzq99wdVBMk/05S/4ckAxTGCL8o4w82m02j0UgkEnHqHiQSiUajhT5M2RvgkFlfNlFllMnjBBYk5LY8lhl28vo/BA2X/1qoMedXiwf9GmJAQ6D2gnkaCwzvs/gFNmsXzN1yYeBzCbEX/9p6ldR/UYi5sl3Tq0nx+2PgjSN/Vaj5Q5bjz49jYvhjyPt+tGVjsv0Pzx+S+R81NTULFy5EIpHd3d2yDFLOH5zIIzq+Mmk+Hkw0LCTHUQeZw2jyPHAsiky9Y2AiAsogHS0m0BKgc8Qv3dnMk583RN1LANP1SoHe9OyoIzp+8uHRfnEOoMLV7FxZmOG+C6UkYmsrE5L4SGfAYg8jlTrpIHMZjZ4HjkWTKXcMjCPSlSiGgSKQl3NVf+f63Z5ljHCd3/acsTpl8M9edBImQvegH6TlxY48fMi3NuPWpctXI4qZ4jouxPpBol+Me5DoFw/SIKnOkYefQoo2NwvDxqG27HTIaA08YTlRq+cmu4Q8g/CfNX8QnM5Q9//5WHczUJJEu329SfdPhvG66gM/0y54dD0s6yMQnzzMx1qfL1q6t2mJTt7nezDIMGZ8c/xXJvkfW1Ro3ZTVAbhDdf6oJLWUYRtHZVZ4RArdPT09nZ2dIpGIy+UyGAwajUaZugeNRmMwGA5xgQiTtUGFyaOy5Iie4eadPP4Q8fNRaxfO1Jin8es/Ry3OGB/bunShxkyNr3YENDEKnX9dOG/xibhBSWXHHF1zPFba58EI1d5gU6LWX4dn15Ryq/kDvv6FzWavX79+27ZtIpFIks3K+UNQbKdlkSHpHOVxaGFy0bBz8ZBqFkC+YYbM5nGiTE1FQL/+B78QfczlnrOZJxsm4tWv7gXX9RKrFfOL7fZZZDDFbMfl8iD+uFAPiPmjhicVKysiQ/wBj/1CjViXDCD5miFzeOxo0xN3gqSiX4MUw/q/GYCG8zrmiUmndM7VC0VAncd+0/hUywMuFQJQiLly0CBm8CR0WpS+WPQrACsUa5lUhsrDz2PSwk+aWKCc7ofZIy2MLOMVLscd1Oa8JP8+a/5gXzIl6/1cfnIrtyySUxHUcOZXnuUPXIt1TIMNmCPfYQ3+qt2+pXXtNvJv+4gr9+Uv3UMLKyTfqYzWMCn8wBq7T67PDW/wVOePiVp/C4+9t7e3q6urra0NAAAul8tms1ksFnMqHiwWi81mc7lcPJ1cjmukciZ4FAZu1UnkD1BIyvLY+u0CmATZl98bBFVw+RVBxmtW/oHOZw+u/ECt/76Vq/6x8vIPvGqzY8UaVJ7KAgaDgxr4Wazu/4Bn+nPiVvMHnD/6+vqePn2qq6urqakpUQRRzh8gQE51kupbmd4sjEXr6NuKxbyqHw3lD8d/dlu7Op3UOuRVVAKNv5CHqHvBdb3okp4GcorzgT3HLKxP6v5jdrsGG6S3w8TJ7fR2LfeyXH9bV+/zZroOEs2uW6kwyTJxn0Q9jD8iWpUohjHTPY4dP4U6c3S30e1GdomXzj4T5Mn9u5GJZKDaz3C/gaXJvkPnC2HDav0VnJtmCol+0UWgmD/qifLw6aCIcufAKuMHLHqYznd69ye42Ry+hXnOf33W/MEJcKZZbcLYbCaGWXc9ycHdP004u5XmsImOXk8lipV6AAAgAElEQVS2WkE0Wk3S2dayY3Pt+j+Lftpca+7W1cyt0vbNnm3x+H0n+sF4hS2U6vyhH+6JivUbVZYojHHQxZ6enqdPn7a1tYEgKBQKgal7CIVCEATb2tpGZUMVPcOtOpn8ATVkAmpVYqjPWXd3l4sBEfnNkHiU5KOKJZVkkF7pT7yQVBjifsbE0NTOLws7YbqBav6AZ/pz4lbzxyD+kCDIpk2bTpw40dvbOwx/iCsLwMC34liSAUohm0yiw+epyKqVuP+jlk4mD3iXD1b3UqjrJWDiMXiWRFCLzyCRpZtRD9HsUh67OBlKFMOEbBIWx5DWcS4ZS5KJdwF0Epmt8sxWJeH3NzUqtopT29uz5g/W3UCm2z9Cj610zz30yhtdgpT25qiO0uCOR4FthWfb8i48SbsKxl8F790UZqU8rW1s8nuQ/blB1SyLyplouukDhS2U6vwxqvmnkoxXGOOgi729vd3d3V1dXZ2dnR3io30qHpJH6+zs7OrqmoxaAbfqZPMHlH4hC99QVd5MkysDyhrHgQ5uJnr9d79p6px0vBqWUoqdwO5TNX/AM/05cav5Yyh/9PX1CQSClStXent7j8QfKr5fKY/yy2VzwCejPVGH+fxb4FnzRyf2MdlXr81/d2/gnifB2oJ86zZ8dHtrMYB7LKBm8KmxXOxdQfNdblEYLTWk/oxN8UqtmoUGFQvM0hadECXWKmyhJok/HBNu7/S15T0RKox06MVe8dEz1Q/JY05syeYI+Ck1JXU0nMyqk8sfQmL2tRMbVn0xS2PeQuMYjpBaGBaU1L8cV0HrCeDumh9E3okJvuhgduC3+TMX6EdJP7nGaQc1f8hy/PlxqPlDIX/09fWRSKTPPvtsgvhDQUUbZ21S3/7CWeBZ84dQwGPl3uiI13mSuPdJ4l52xl5WgT43E8l+4ECLOUmN0Kf6H8ad29WC1iw9srFacwf2p8MVywxLvzhVdPwGn85R2EhNEn9sumqJMFlLEyiOVGFKXp6LE1vQn+X6WxHILfTcPn+extzlPyxbNn+hcQy10HnNwgWr7fKUPRTRR1PzCr7/V0H5uWM26Wr+mLplXc0fyvijr68vOztbzR/KGgr19dFa4FnzR19fH4tO5lUGsIts2x+j22tP8KuPgOWGvQWW3ZlGnfHHnkbqt1/eJfLcxT6znfbPrta1Bwp+1s/UdaNjScpavEniDwyNVE3EdMEWnilLwMt2vZTQ6J4SWoFvGm1pU+afzGYYR1wMLJTr609i/wcz5vjKeZ/8ZZ9GwF7/ZxHU/yGoOrtl4VDZD1lq6aFa3xskUPoHZVhRuhuQRer1L1O21Kv5Yxj+GFZ/Hai7qrNZW09PX9/IKwM2tgJUX3X2H5ckFzfJxSVZPFNEUC+OQ//YoeMeGbK1vgMHTGU1dySHOGFNNcGXIxX7lMigAXVKPYwxXnXfT78F/gX+6OvrYzPpHHzdU/qjp8yUdnZwGz2kFxfe3RrY2ezfXn6jK/+S4IGTKNSl7eZ1wc0wSkoOk0QeprWbJP6QlMhh4n1pfzqXHv7irr8V1F78c+HCtR7lfCGunz9AauDBRbN/tFLcBoGgiPfIa9uyb/ac8fS/6eO0/+slOlHjbfj6q596/OU5rERq/hgzf1S4HUHlS9BciEsLveHngbJ2j23hlzofN7hwFmXtdr8R4NTFetmjkG5R1Rxcaqivr4eNtXtcsxBkVka4o1CO/jlEIas88ryDo3tQEVUkJOf62SHtva10zO6KOx0FlVAcfBAk+uzVDibIfAK4tPAA/4tR+XkBLmh7N+heZlmIGxLp6JtFFAK4tBBfP3FULQC3LsYbSkFkDRtal1uLTYvN5peFOKKQSKRNYDGzNtbbDkrg48qQgz//ZhZZ05oWmy0CmaWQmprjjWwiHx6aGkHGYYF/hz8mttFRnT9eM92w1OWw0teMIjtObFKnRmj1NHxgQUI9GTcqS47oGW6cSez/oITsWzJvwX6/Wl4/f9Cbgw98O2/uVs/hUigkFoVdQJoaGp4+G1nBHM6nolKkzL+aP+CZ/py41fwxdv5w2fKzlpGRsclJn9xCJx2rbAYnB6nvVf/I6ZBlJoOTizx2ro7TVJiQlJnlqWceVwhJkDG42UgDr7oc1CHbPKaQ2NBIyJELkcUnW2rZF7MFjZe1jaL7+cNF8w9jOwfrI38fvhZuc9T1EQdo8TdFJxQ6HTyZTGJFGGhdKCUTMVhyDlIbXcDkN/joGIURy6DU0Lk5SAOvRl7Tw4SkjGwoBRB/1JSK1VdBEbfk/JHT9/C8RiiB0M8iSMksgyteqsOF9MwKGIKG6zpGwTmw0FReDqOsEXiZr79c/LHqnP5OX9tR5fdz0iY+b8kYlQ1V9Ax/xknkDyEh3PC7WRoLF2/S2rB6wSdrtqxbtXCmxpItV6sVppNSHHoWhXQOyG4VTHyvqZo/4Jn+nLjV/DF2/pD3f0hkMISCCjezc1UlLmae9ZDbxO1RkuV+5P3Mu9a7jO4WQqIgQqDczexceai+fqhkyAYuRJZ6U08vjCUCOVEnzWX9H4fMYmtbsDQBCPeZlQ/FAYBAa85NF/NDRzxzQg30QpigiJeLPH6hWiJAJlYqq0iGUpBxz3qn8V0YfzAy7HVtMxgiXqrlfuS9zHvWu4zh/MEOM9ALZULqqMjjYjU1qe6ZwtXFo/kIUdjsvCQXXy7+mKT1t89Ju/kskzEZ1QOe/knkDxAEiBkOO7+do6EhlSBbssYsombophsgCGB8NTVW7Dllpbfxy2XH7xMn+ltHzR/wTH9O3Gr+GDt/9Pd/GJteSs+TMsdA/ijNddEx8Ar0M99tDOePWkKCnY4e2hnlHFZLkAuRUbCRJ//RQ7s46Gw2kPZ/9I+/QE0QTLKMXCbmD06Bn52r13kzXcc0Yjxax8DWwVznRGAdV/KrmD8qc110DL0C/c13mcj5g5t1evVqLUuk7c38LGfJz7tNRKxIQ02DoIcQJwGkeBsdA7RYTa3qkTguie6qmj/GAVtq/lD6URtclOqUGCTqaHtOmsXnKhkTyx+AUMjgcdqfdsqecVL5A0o8QC1PDPI6L9Yfe4jhCFlk6mBNZUj7KPboN7r3IMEPbtbJb7b7kpWWlrEZRM0fshx/fhwS/tifTKDzhVP4JHKBOTeb1kc1yg7J/reS/eck+78ozJRxr38RUIhkaI+6wSdcLkwuRCYSMEhU3hDPstthPiUBcsmtWDpf7AY4ZKJMSQwWHZ9KJA3QPZOFJnYIqARyf2vAoZBoMsIQckgkhgAWjvJUDQxQfYsSC6j5Q2lBUa+/Vdj6SC5ObMV7putv+bl2W1av2ONZIhtP4eXablzy6d+Xhz4U+/7hH4ySoLZS2Or1x28uNVJVRCXVaWgIw19R88cwZezf+knCH3NuNr0M54Yx8Yd/VkdOXZv6VFtgnBbwz+q4nQM2NjY2NTU1NzdjsVgKhTJM9xtCxUahoqLCT3wwmUwVbxmzN9Xnn45q/CW1tuROYUpbZ8eYEzZVbyTxmCk1JTgGZfiXq+q/4hiUNRdMkHF+MotNSv+HkJh/95avv932FfNmrz7oEBDoGwidPt4nfl2sMfuHM0MTzL6vu+hbbYdrEWnlZR4b1fwhy5+p7Ojs7j3zkL4riSg5dyYSdiTgNeOwW2NaNt9r3nyv6a+7jVPm9CmQdX80qtj/EZzX7p/VoT7VFpgQC0TkC9T8obQXZCo3tGN9thd1/S2/2H4DfNs52fwPyKGxz38ofwCUioSbF1BGWptWfznrP+8tXLtXz9rD734JboImgqj7P8ZaBp/dfV1dXU+ePOFyuRQKBYvFtrS0NE3Ro6WlRfIByuVyhxl/aX/ayxD0ULlPW0j8r779vbyOWFlPKqsllNbg1afaAqO1QG19f4VSpfi92P0fP5w32u1vP/Q1M8yVZ9fOvTgxZTVVGEdcfNiseMHIMMYc/ie4ASal/wNoCHMyOWqwb/USjVnLN+wxNDpqBJ3HjEyM7a4lNvOHT56IR6rKvuvrbqW33zFxmMHj0QzNqPkDnunPp7u7u7utrY3H41GpVBwOh8FgmqfogcFgcDgclUrl8XhtbW3dw0ovSsyycuXKBw8e4PF4DAbT0tIyRQ2jfqxJt0BLSwsGg8Hj8TQabZji92Lzx3TT9V+56I7wmhn4/ng+28R/PVWjsqGKnuEPNSn8IclZfp695k/f/OP9SDb/Y2COq5jaCfGm5g94pj+f7u7u7vb2dj6fT6fTiUQiHo/HTtEDj8cTiUQ6nc7n89vb20fkj/b29qNHj7q5uZHJZDwej1MfaguMwwJ4PJ5MJjOZTAAAlBW/F5s/enp6AKFkY2ilAy6D3ivPZ5v4r6dqkJUm5F/4Q00if0hoQ8hnMelUGk120lgTI6k+KlOo+QOe6c+nu6enp6OjQyQScTgcBoNBpVIpU/SgUqkMBoPD4YhEoo6Ojp6enmFypKenp7Oz8/r161paWkwmk0ajUdWH2gLjsACNRmMymVwuFwTBzs5OhcXvxeaPUc0/LWypefD4YQdsUegwtfFl+2lUb1kVPcNtOJn8wS69afTrioVS8Y/+WSCfHAkfmk5BQ3p4bF4tZbLQRM0f8Ex/Pt29vb1dXV3t7e0ikYjP5/N4PM4UPXg8Hp/PF4lE7e3tXV1dvb29w+dId3d3Xl7eqlWrBAKBxDJc9aG2wJgsICl7AoEABMGOjg5lfW8vEX+o198O0/oMfVWP50ornbzIQdsowlsW4yTyBzX84DIxcyz8Yt7SpfOl52Kj6KGPIKiLtj++a913y75a+avmITOHK6HJpVhIDmSCTjV/yHL8eXb09vZ2d3d3dna2t7e3tbU9maJHW1tbe3t7Z2dnd3f3iPDR19fX29tbVVW1bNmyjo6ONvWhtsC4LdDR0fH06dNhit9LxB8+ObHm0VeBNvB5bhn/lbR1dj1l8Dh8YMLEMJqphLfMN+0NdJA9zuTxh6Dae+NCjTnrrBOJqqYfwEaYaFnfiQm+6GB24Ld5MxfoR4m3ohg/haj5Q5bjz7mjt7e3p6enW3x0TdFD8nQ9PT2qwIckv1pbWxcsWCCzjCQE9V+1BcZmgRHL3kvEH5K3y3PeLP4ryXtR199KOi2YsXrfzvvsSBhd5T4MwnVNzSv4ftoQlHscRqayJqYLRM0f/0oBVkc6URZobGxcsmTJRIWmDkdtgeEtMF7+MIot+I/TfYRdFuJMJgKZiUBnvGKT/frp9P9aJyDQAQjXaIRDKsIuBYFOmmaTOM0mDmEbi7CLRdjff9c53jD+scLEqa4/ZhThjY4LGNVnq8IYX/KLYaUZay6YJFYVjsqSI3qGW3Xy+j9EIL/SX3vJt4du1I604FYKKPRQre8NEij9/7KidDcgiyZmRoiaP+CZrna/cBaorKz89ttvX7hkqxP8glpgvPzxvnMcwir2NbvcNy3T3kQlIRyTEHZp0ywz3rTOmIaOQdjHIOySEOikV1CJ05GJr6IeINDxCNt4hG0cAh03wzlBodVU548JXH8bhsu62HB/yp+XGmNJIGuo2UeEiTF4gMcyifzBy7L4ddFsDY1ZCxZ+vFB+zteLVJpm3iOvbcu+2XPG0/+mj9P+r5foRFHV/R/w7FK7X1ILJCUl/fnnny/pw6sf+5lbYLz8MQ2d+IpD+ltnEj6zurfMPfrD86EIuxCEXSrCMgOBSkfYJyPQca+i4l+zTnjdOulVVDICnYywFf+1SXwFlajweVXnjzJC06PWOqWvGen3LtyDwhjr+IR3Ira/JKdW/tmhRoCbaKLc8Fgmkz8yzH+cP2jxy0wNDYXrX+SPJiQWhV1Amhoanj4bWcGUX1dUZlT/Vd3/Ac90tfuFs4CTk5ONjc0Ll2x1gl9QC4yXPxB2cdOdEuacCbV+UBNPYtnXNcy5HIRwiESg0hDoDIR98is2sa8hH7xunfiadco0VCoCnY6wTUegUxGolOnIZIVWU50/RrX+ls5lk9kMhauQS9iN70Rs//S+dkhzxhQ+vWvuvROxfWeu01Czq/6KVd0nPJZJ5A8QFAgEXD5/0MkHhhGGAXDZN5D6OkfcU2njA45B1lDzBzzT1e4XzgKampoxMTEvXLLVCX5BLTBe/pjumPzameh17gmP6eCTjr6WjqdHYgs/QEW+iUyHaMMmEYFOeAWV/Aoy9RVkBgKViUBnImwzELZpCFTKq8+WP4ZZfyvhjxPFVwe9TqbYvzgu9dnwB4FJ2xvg4JkZKasVk8AfzNr81ISUFGVnUhlOWfbxS5w3rTPxT7yhc+gShld+FX2jUrYl9/hwRM0fshxXO144C/T29s6ZM4dEIr1wKVcn+AW1wHj5YxoqfbrVgzVeOTmUNtHTPlxn98HQx+9bJrx2JnuaTQbCIQ0abbFJnYZMnYZKRyDTEDZpCHTqNDsITV61SVJotUnq/7C85/O790mOSDA00peLP3Ice2BHr/hQ9qoe2/UmCgFhsna7r7wjd+L5Q1Dm9OdgzTH4KIzy8Rch9tKO/XeYIm6y2ZFLGCH3geEul8eqrt0d3iBq/hhauZ6HK9Xs9jSiaMqf6USR6OlwIqcK84Ij7MHQuzH07uJaxp+79DH0Lsm/6r9qC4zBAqL2EWTu4IVwvPyBQBYg0Bn/tYs7GFMfXMd3yiXMc0p75UwGApWDsE1A2MVPQ8VPt0l+2ybxtdP337FNfM0mfrpDEsLuAQIVj0CPd/7HqMZfJG8O+MPL3C8Vf/yd7dAuPjrER2dnp29+/CIH7XvlOcO/XFX/lQcIynGNZJ58ousk8Ee565Yl8Amng9zDzD9lx+r9aZnN7OcP1r1jW+3LniP+aGpq8vPzuzl1Dz8/v2f5kc1u6/r0VtOcmy/FuT+VLGvWVHQE5bVPyMbr6kDUFvDP6ogs7JDo6UgkQ4aXABkvf7ximYpwSkU4Rn7oHvqF/Q0N56BX7aIQDkn/dUqc7RwyyyHkA1TkHGTECreEH73SvnC6+z/roOlngqdZR06zS0LYjnf+R2BhYkhxmurvRRGoWHxsfPzBqa1J9k4OvpD/sGqCtlEd1ROp7lky/qKZaQdID6FQCIKgR2rYW+abgotSVQ9KFZ/w5m/i+WM8AyVAXeCB1b9oaf26Xs/bWev7dY5FE7R33YT0f5SUlBQ8fMjj86fqmZ6eXltbK+l4U10aC16cRuXGCDol8OFWQp3Cp2MRdc7Npq0PCKMyTl9fn+StWdryRH2qLTBOC/hndQTntz958kQindrR0TG8/O54+WOmVdLr1tGzz0cjq7DheLoPlvrt1YSPHSOQRcRILNO3mrL/ZpZbXvMDiiCTDYZg2UfvP5qLuv3GmbDpDmkIVJrCqqL6+MtErb8dO3/w67x9/nnDdPMcR53PLDa87eQRRhtm2iMoAoFHyZZL/GNbhBOz4FMVDpD5kfDH1nQbpvhgsVhsNpvL5QITp3wqi2sQ6j1f/AGCIiG5OMzDysTIzM4/Gzd8lo0ipyaEPx49elRSUgK35BRzZ+fkVFdXw0VHu7u7h/9OUthQqHhRwh96GcQpZsZBj8MFRHNuNm2Jx8sMq8oHqIQ/7pa0DwpN/a/aAmOwQHB+e3BeG1d88Hg8gUAg2ftQ2fZD4+WPN07Hv468u9gtKpnMEXb1Ydue7vV7sNTWLxrH4fX2Cfr6Ssk8ZkeP6OnTJ709jL7eR2DXzqCsGWeCX7FJQdjmKWxBVOcPv4IHdwpTRmUmhTGOlT+AujTz/5gdOlpK4IOggJbjdC8yGZuF9PcOJAIiQeWF287u9XwuIc3C13T1hdP77qeV1EX87bT1VasjW+ILRUJC/AOXdef0f77u7dPMFLFykH4e1vEX//Yy2XI/KTzZde05k51JZTQo5CK3IMs150z3xObUAyCp3HdXsK9duKNdtaqKWxITSfhjcypKtt8njUZjMBhcLndUNlTRM9zUzxV/cDNt1n7zq6bOSWj/l0dY5sSxoJo/VCkb2Tk5FRUVoPiQbL3S1tbW0QF12ypcngYvSGNwv1T8sTkOJ9vNRsX9X/yzOtT8oUq5VfsZ0QLB+e13ctsoFAqVSpW/XESiydr/FoFKQdgmLHaNySJwe9r6mE8699+IXYS6fhfHBnr7Onv6hN29DKCDRBc86eh60t1N6e52fYj9GBUxzSoRYZOtsDVRnT/+7fkfnCDfzdM9bpbBXmAALeI3c12LRkDEzzxgrbm3mBF9e8cM79tJddneKakVhBzrS7un26NQxTVVqWYzLA3102Mcbux/A+0WiY34zWzz10GhFyMM3zXd9Xt01PlbB19Dn3/Aw1zw3va5b/i9ylgdl+1r01pa0sxeN9fWvBcRq/KOJ5Jy088fKUii9CCRSDQajc1mj1iwxuABnrnPFX8ApLjT+08HRt+8gDLc+c2cDz9dumaXVchjzhiecdAtav4YZBCF/2bn5JSUlHCkB5fL5fP5QqGwra1N2XcSvCyN1v1S8cemmFapXTk81fa/VfOHwlKqvjgGCwTntwflPsFisTgcDo/Hk0gkBoMhEAja29sVboE73v6PN62iXrVJWOCWmEDhd/b1sjo6dgXEfOwQFEdgtvf2gb190U3MNY4JK60T/IsJnJ4eYV93LJ77JRoSBUGg7ylsSiaJP3SC3DTstJhC3tBIx9r/wYu+vWO605Us2OyBIfzBrst3nGe+/k1r3fWh8aV8IO++7lueoXVCTsD1Te8FpDFBUIC/terkAeOSUAm4cGsvzjc/fYkBMgtt/4s6e5+VsM1845yz5usuma+y/evt6/EtaWZvOV/PHf2SUQl//JWCxIsPAoFAJBIpFAqLxRpDURvmFhqX5Z4SGlddIDP1c8UfRN8dmpewgGQGCSnypP617ATnrb+eSGKOYqhF4eOr+UOhWQZdzM7JKSgoIIsPyacSnU7ncDhCobCjo2PCu0BeKv74416LrHeTSqUyGAwOhyPpA1dmWDV/DCqf6n/HbAGIP3LA5ubmlpYWDAaDx+NpNBqPx2tra5sU/njDKvpVm8QFbskPKPyOvm5mR8eOwITZjmHxBGZnb5+ot+9MTNFHp+L+Z5mue7uQ2vG0va87mcBfap/8BjoJYXdf9n6CO8bFH9y8M1dsXOoVDEzs9LP9r8UWOsCFxyVxj5U/QErFOQ3TbavCE7IIrQ8LvX89i/asCvv95G6dMiYbH/q7xba9xTw6rrKIjMkuufqjxW7dCk7+/cNvnrtdAfCTw7TecLmcyuLXZiM/Mjc9Wx+umD84Rfq2f66IzCnFN5XUPcql0MfLH8nWOPGBx+MJBAKFQmEyJ0wAVFJwn8X626HzT4UsfENVeTOtHyyGepBeoQVr/WSWwZT8C1Q7b9gXxOJlWexE5o93Fxg1f6jScmXnQEer+JB8KhGJRDqdzufzlbVTQ+us6ldeKv7YeLcZKz3weLzMsMo+QNXzP1QpsWo/KlpAwh9N4qOlpQWLxVIoFC6X++TJk66urqF1drz9H9OQidPQqV+4JiRTuE+h/o/OvwPSZztEPyAwn/b2AT19+ney/2MZ/yYyeYd/Jq2js7O3O40k+MolbbptCsIubmiC+vr6xsUfQsJNv3+WRjzEsBlk6GQyBvYTKIxxzPwhAlkPM5yWn9mAMFmLMN3+TXBSFbfM0uVPhOnGGfaHNMy37S2mJkYf++DUjnl2Oz5wPBtCE+Ae2n50Yv07lyIBSrqe29bpphteNdu9IbGcIh24Gdz/IQDqizyWWW6eabvnAysTZwx/wvkjOD9pb4BDZn2ZioVsRG9MHiewICG3Rb6/4OT2fwiJ2ddObFj1xSyNeQuNYzhCamFYUBJe+axSTpH7H8t+OmR7KSDw4umNC3+0LxYwInW3OVWOdxWumj9GLBsiEMzOycnKymqWHhgMBofDUalUWTs1sYtiXir+2BDdJLVrs8yww3yACgSCYfo/2CV+p47r6R3WMfUtYUvxfUAWA3XBl+EbLQHVV539Mf1VD8AmuugfOqx7SNvUp4ihsHORV5GR3Qobvx4QuMIYYRdHTp7Us6Au+FIkZlSBqz2PwQLB+e23c8DGxsamJqgcSviDw+FMFn8gUBnT0GlfucRkkjk9vX3sjqc7/PPm2N9PgPijR9DVdzwo/w3r+FdsEjQDM2jtnd29PelkwZeuqdBGMHYPFNKA6vxRSWopwzYOMJMg74jNeogG+s+NW/MHjOsrjHEc/CGuVAJGA76pniXtdOFTqnE4Eox7+FxiFR5P6b8CkMlNtUyxZyEHg2+U3yitLQOeSHwR4JGr8DgSbKBnqJ8Rr/SPvwzp/7CL8UeYrA0qTB4xhFF5gJt6MvmDW+i5ff48jbnLf1i2bP5C4xhqofOahQtW2+UNl1pBa2aA8ymD4wZWF5ObBIK6i7s0PUrHZ14RCKr5YzibS4t3dk5OZmZmo/iQtVNkMpnD4YAgOOFTQF4q/lgfJfn4hP6q8gGqr6+vnD94yaZ/o4p4IpCDxVIAZlmIGxLp6JtFFIpAVkWEOwrl5JdVmRqbLeLWxXjbo5BukTXsUhczz3oxfwhbbuhoX6mG5rYzyrPyS9NisikiITE9NotEyg9wsbVzC8rPDzn4829mUXUieeACXFrINR83pK1vdIQXCnUlkwKKWBUR5x0d3IMKqUJcWkSA/6VISDBwYPJAVnnkeQdH96AiKoBLCw/w97p6LTKfIQKBxoTozOp0KHZWZTiUav9skpBZEXneEfIt3QdbIR6pL47OAs+cP2yyX0GnrHCOzCGxenr7mO1df/sWfWx7PwnP6Ozt5nX1Hbn98FUktBHuJv8kevvT7p7eNDL/C9ckhE0Cwna8/KFg/a2QnPso6dZD2ZmSShrwUQt/Kcrc4+UPacOqSuP7L/pRxh+N+NZyXCOVM8GzQGTm7evrm0T+YMYcXznvk7/s0wjY6/8sgvo/BFVntyycu8lDmam5mej13/2mqXPS8WpYSilW8YfdmPJUzR/KbA6/DuePxsbG5ubm1tZWMpnMZrPV/AE31KjckuunskkAACAASURBVPW366MkXAf9lRlW2QfojRs3li1bppw/QHZZoNm+HTv3m17MbM5CaqMLmPwGHx2jMEKezSHbfIaQVF+X42TmKRI0PUxIysj21DOPk/MHJ+qIjp/s7S4og8AEACpczc6VhRnuu1BKIra2MukBZpbpPF6OPPCQbCcdZC6j0fPAsWgy5Y6BcTQj1/aoyyOuoCXgBDqx0OngyWSyZIwVljw8N8/2qOsjDtDib4pOEHsi0eNOGfq38oocDDxKH7mYeVbn2hxC5zMBUkMDMQd91PURF2gOMLVJmZTVf6PKuynj+ZnzByp7OjpphWNINonZ0dNHbe/a4V/2ie39ZAID6OuldfUdC3k03ebeNLvIrXcyCB1P23v7ksm8RS4PEDZxCPR4x1/0wz1RsX6DMw8gpWXfOBp4/gqGz6QRSQM79+AvRZn7JeePCZ//IckRmXknlT8EtRf/XLhwrUc5X4jr5w+QGnhw0ewfrQYXDClSALi75geRd2KCLzqYHfht/swF+lGc0WG+spDV/KHMMvDrav6AW2Oi3KPlj/T09Dlz5mAwmGH4QyBWBgJI8Yaap5yO64UwQREvF3n8QkWYgV6oeNIYUOZs5slNtdyPvJ9xz3qn8V05fwiKbbUs0lnimsXjsspczC7080cND5t909X80BHPIrKYPzihBrLAz8U7Q6BC8jVD5vDY0aYnIiihuhuOul+4cMHdJTA7T9a/AoKw5J1JuyP15BqYlS9mHVCQZ2/g5n/G2K+VB9FPZZiBPvQIICjihMl9503w7LeJytAXMZxnzR+v2GROR8UvcwlPJLPYvX0t7d2b/StmIqNj8UxqXx+mt29/cNFrqOhX0BF/3Mpo6HjK7O2LpvC/cE+chrz/GjoW/oqSuVUff1Gw/lZICQ/SesvqwALrfcfL8vQdtI5VTv74i/TF9pyXGGX9Hy80f4goIfuWzFuw36+W188f9ObgA9/Om7vVU1l2EH00Na/g+38VlJ87ZpP+IvIHvSzc1Uxn/wE99M2HZOWTXSSFk4mtaSByhi2oDGxtPVH8LQhUXjpq/YAJ0soiXKAY9G1uFg7ieGW2VeW6mj9UsdJo/YyKP0pKSmbNmvXw4cNh55/yCr10/9GzRFkc2nU6sjIOrWNg62CucyKwTkBOsNXRt3FGOYXEO5p58gtcdAy9Av3Nd5nA+AMUklKdD+w9ZmF9Unef2c2CW3o7TJzcTm/Xci/L9bd19T5vpuuQQY4w0tQPKiTGywKvLhHDA4w/OKQEx2Nmbt4ejj5ZFDnfgPDkReOICQ7HzFwvejjcyCJL+lpAUFBzbsvXBlFUUNL7Qkqw09FHO6GcQ+sI4iAvejjeyKRPzLfHaPNrSvp/1vzxmnXKK9YxGm7RNgVNwfWUG1WUH66VznRIsMt9HFhPvN5A+/VG9nRk9HRk1KrLqT41pNsNlDOFhM/dk6dZ3X0NNQnrX1ixmy2OIVvIV64eOF7FCPbfvjK2VpLTjgm3d/ra8p4IZaAjc0xu/wevNaUw6mxyhH9Vy8Tu9j7aEvzM+IMj4KfUlNTRcDILT+L4i5AQbvjdLI2FizdpbVi94JM1W9atWjhTY8mWq9XK7EMP1freIEHaM8yK0t2ALBrvyhdJXM+u/4OTZ/vDjBlL/zZBWmp/P3Ompl+zEBQB9Maykio8xBACFoXE4JLriwtryQKQR7i9d9ayk6lknkjIaq0oKqwmciUsApBriwpKsRwRj3h776ylJ9NIPFBQ7rh+l39jnt0PM2Z89fcJaQwtAChkYisKi6oJPKjJ5hJriktqiWK3OOrSOopKZlTzh7KSOZ7rqvNHQkLCrFmzEhP7t98apv9DBIJ8OraVxJGMdwAcMpEhHc4WckgkhkBKtHwqkaRw9wmAiWvFSyT++AwSWQr6HDIWSxeXFi6FSIfCHBC4NFi5QbgUApUn/1fqAZ48EcglE6n9BVvqYdAt8Fg4FCJFUnqVeB50r/rfES3wrPnjTWTqK+iE11FhHzuEfWETshh9912bpFeRcYvt/BfZhnzueO9dVMQbNolvIpM+RN6fhw6Zh74z1+n+G1b3XkM+eB013vkfCvo/2PHbLHRO1OAuXz1wvKwCefavH5P6pz1vumqJMFlLE3BkL0WZY/L4g42J0rT949VTu79w/meG6abFwemYgeNBI+boBHp4ZvzxjNffAsQMh53fztHQkO5/u2SNWUQNX/lnDe+R17Zl3+w54+l/08dp/9dLdKKoyj2Ppm16ZvzBjND6cMZf11rF3R4MLJYBishJVqtnfbRg8ccfLdzrX/kQtfLduUu+XaYx482lFmkxJ77876uvv7dQ79ZtnRVLf/51+eyPfnYtFlFSrFZ9+L/5X30+5xeHayb9Xu4ySx3W7wpoCtf6aMZf1yXFlY7F0kGQGKazYtnPvyyf/eHPrgU5dqs/X75x8y8rd12uI6Ui18z74qdfly780TqFOmKJVfPHiCYagwdV+KO3t9fDw+PTTz8tLi6WtX7D88cYUqK+5aW1wLPmj//ZpiLs0hAOCQhU9Fvo+P/YJExDZyDs0t61uv2adfyrDqmv2se9apX+pmXOGxYpb6EfvG53fxoyFoFMftUmfYbdePd/UcAfQvrd4AOvm//9ocXGGRabpiNRN6TzTzE0UjUR09XdLat4Msdk8YcQ63lx8+tOHlFUQAQCmPIgy/TiFj4+IfncNi/D770dbCuIAMi4F2N3NOamUeBNkZCUnOz25wXDX/3975Kl3xmjef8NX+6V8UdqZaF7SmgFvmn421X/lcxmGEdcDCyU7288if0fEvsA1PLEIK/z7i4XAyIeYoYfaIAeREgsCruANDU0PH02smLCBoCfGX+Qrv/51qd6ibAvTpLf1hlLLXJ5Qqzftv8tPXXTeuXMvSE0oMblx3c1A1jsqAOzV1gXChj5Pid1dYys93/9zh/XSP7bZiw9ncMFuUwmF+REQl6K+ECZ3fo9gSTyNXEMcEvSC6CbDcU3e4cd++yjZZp66OvpGLz/thmfadpcvuqmteQ9zQDySCVWzR+qVyXVfY7IHwAAaGtrr169mkwesEeumj9UN7La5/AWeNb8YXyv9h3HbIRzFsI+GWGf9YptBsI2F+GY97pN5DTbPIRDNsIxadqZ7Dctil49k4dApyGcUiBescn6j2OeYUy9jADgjnHN/wBBEUBIzrh6yN9uf3hQJH7A5I9Bm6LJIp0s/uAl7zy14bsHjbJeSijzgLpr9wN8y3KuB+m8aX8xlUf09N74lgPKIi2nOu3ke7bo8+UFPkG6H16MqJnonhJl/PGCr78FRazH2cVEmOwYsyyvmDCM9YTEvODLl2/F5tZR+CO9LIevb4N+fWb8ISh3/ek/c7d5F1GEnJpga8OzyY8Dtr+/2CydJWy+8sf7y8/csV4552A0W9h07rf/bpPwx3KrhzifTf9dYRZfHHNi+dsbr5IDt7/3xYlUppCOxzPE/LHcqpBTar9+700iCJSJY/AqogKc2mBro7PJ5dfENxfFQjdfaWotSbx9/vTm+e9v9b6kOWP2H2cuXb1y6dLlu6WMkUz6nPGHiNRAv3GP6PWAljG6nQiB/ES8Z7FKQ0795YTLy8wie90jBZXy6CDIqKV6JDBHo34haiome2QNbtMkgQ/lj+Li4uTkZMnCorCwsPnz5x8+fLitrU3W7kkcav4YVIvV/47ZAs+aPwYV5Qn5V3X+eM10w1KXwwOMBTSGZyZl06RSHEOaQoUpnCz+4GcftN7wZVQ5fEgSoKbrnd3xoZ3eugsH3j7jFM4lenpvWnKvkg9Ciuyvo46vvWS+1mPfO+ZIf9jX7YBnHPJQKv6qjD/y6yoCCxLqyTgVw1HRG9zUk9j/IaTEnV4zd/lOj2LJOjqgPuTY8oVf773ZoCydjIgDi1YdsDh1fNf675cvW/nzdtf0CRoGHsQfhY+qIuNyJOpPCuX/4CaSuVXb/5ZbHqD7zUevTX/jjdffX64T8JjPyHH947P/zZ774cyVemF1hagB/MEvtvvu3ffmH3I4vWru4g1796z55K2NV0WMHKd1c96b9clHs347W8YtgrzM+3v373tvkSHTcSv8db/5UB4DKxsN3bxnL3Szxy29ZRpLf/ppyYKfbLMI2Y7rPvv4q1Urv1htnjLyKu7J5g82T5iU8/jp0369xWH1P0Skh63f7K9cerruZ8PKjw7Ve2FEyorN4OtCftjVeu04VVdvshvJWoYVHx6qWnWy+nOtitXXacWxDXPMcQ9hQkGDoxhc00WZftVzXCkKvcH5o6amxsrKavr06dra2nfu3Pnxxx9XrFiRmZkpK2Nwh3L+AOqu6mzW1tM7dui4R6Z0vtTII5XcyowsLL82+HKEVIhMUYKBuutWFx6Nht7E1hDUi9OkD6UpgzJiYgbooYmTIVY84w+STRsxHLUHlSzwcvHHqnP6O31tBxRuQZG+7XqE2Y6VPpc8yxvJQz6C4RVP5p4s/gCZscFa0y31jQrKq0jVQeGmK32jcnJRb1s7h3NBcoHNjAH8wU8K2/em2+V7rU0VmNK0RjxlSOIHPOngtmnk8qGMP1Rd/yIkJmf46N85qxPkBp3BkZnDCnbJzDup62/F61805vyOTJXOY+dWXfzrS425W84rMxfRb+fOayTprxxsRQ1ugkwt4Y+KxzXnfe5+tw359pLDv+yxnxz+EGe3gN7a2AKb9wfQcViSEpZiE1ta6YBIQG9tIcFGVXiklkYcU7J8hkNowbY0N/VPKRUXMD4d29BClvoX0LAtRBkWc8kYDIndbzoeCdNC4Iy0DEcc5mTzRzOO9vaSwzNXGZ5wCKqoxbXwO+bcbNLLIEpzHF5ThEnXqz7Sa75DEIqEwKMqLh0amxOk38PsQtdt8STEEUQiJsPxQqtjBPbw9VZ9T0IiCxQJ+ZG3mk+msuJDmi0yeCIhPzGi5W9k3aaz2KBGoYDC9LrSuAnZoBvKaJSxhZB31aFy1snWGLJIBIpaC4l28cwiKX8IyEz3Sw0brOr3+VOKWSC5EK/jT60Vgtwakv5FUp4AZDZQTJ3rN7m1nnarGpE/fH19P/7443fffXf69OnvvffeypUr/fz8hEKhMgIehj8q3I6goE0JSNf3Hrj2QCL8RSsNhWTIbmQTAZBbG+tth0K6RdXIFckyc+8c/PlXs4jc1Nj0oliZAlg2Va4PJs4IQBw4IS/ABW3vFlREJecHONtCLooQlxabTQaFhIzYTDJDpiomyT5BJZQmPggSffZqB7NgMmIUWVAwNTM+tF6mFisLMC0vGFI8i8hLi80WgUz5swhxqaG+vh421u5x0FTu0beu6ltEIPhy8YeC+R8gyGfUhKV4bXPb8brJ+nftTA/GJcC7Q+AvRZl70vgDFHGrvQOPfGAK6bFOtzp+9GELhxijabNt3vnTf53XenMAf4ACcupR123vWu/7+MzfPyfWTezQgAgEx8kflEK790+sn4HWWeZ6BDrdvaOHmeMJgjLzTip/CKq9Ny7U+PRoRP9+LiAo4mVb/jJ/9o9nlLUIQEuwiXFAwyS0Mh/c2T3r0JG3lxyWnR//aLxyi/U3W1HfbrP5TlOl0+jM+ZKSEmWJnwLXs3Ny9uuhl67V7z/XGSxbb7R844mv/zRfudny263Ib7ehVLSVQm/LNll9sFLv7SWH//NVf158iE5Swh8iUmHr99rl7/9T8eWpBsN7TIxQVBvXoGHUfLmQefNK7QIHUg2RvHV/xXfuuCt5ZH29yn9SBHwMcaN2tVUl76p9xQ9BrNrYhs8P15vHUS7fxHpVsC/bV644R4ovoRieeqwZJ12ywaUdPFS+NoILG4oVYeLE/R983mX7Sg1k67Vk4gGTiqVX6P3XAZBd0LLocEsUh+NqVTHPBns9mXjUvGK28v6Pmd7F72j8NF18/Oc/EH9Mnz5dIiyrTAB72PW3QIWL5h/G9vbWR/4+7BPjAAl/sXOR2rYFDEHDdR2jUKqgsTAhKRPSHePLFMkaqZQAM8sMsRBqWYxMAexRtlwfLBlCWDF/ZIQaaF0oJRMxWGK4IeQitGIZYk2ROiFQ7mZ2NsJGpiomvgsUVEJpsnNAHt997EZltlxGLD5YGhR5gJqZi5lnTamzmackwHO1UOrS2WLZEvizkMocdayyGNxspIFXk0oYPQVq4oQ/gpo/xOjKJ2QVBOx02jxNrMI+zdLYsZkfXJTqlBgk6hg8/NnX1zeJ/CHmaC4LV4HHEaW9BQCPXE0ky9+XcNYWcloJzQ0yKXf4T+N2j5M/iNmW76A9YpV8XsOLMiAUMnic9qedMgSZxPEXauj+rzRmrzYMkw7e03Ltf1moMYz+B7/4wo6VX3658rftuqecroWnluGk3/fj/e75X9TuJZFHz12P/mknesaKY28vOfzdNmRReX1FTWt1A6GuhazKmZiSMeX5IyI65kFKjuRMTMtLzizIzC8tKKkurWquasDXNpNUMZQyP0nZlVD/x3eGc1YbW7iGxhU3K+//gHKcgWMG3cUdt6v++J9KrXRe0NmKWXp1mo4NmtbVH2s33cKQt2rX2NaIRKAw07/6M0fSg5DauWcI5Xy+mD+Yd85WLLpM71fR5VL3aVcstmzY7tiwzqhi7lnpaiA+Q/9Y+fc32bChWCl/sKj7tCsP5wpFoKgqsm72idbB/EGn7tN+fDwf8jD8+Mtsv7rV3tn+wfEHjRw+WbblvU++mfPpguSMh8r0TyXVc9j+j0NmsXXNWDofBCTCG+x+5TFeDvL4hccplvuR9zLvWe8yZodLFclAkCbjj3qeTAGMCVP8yoVEwCT9H9zWnJsuYiUyATZHoklWyC1zNrsgwQXXizr90mOugeK7QEGl2yGzmCK/Y9pelYIBMmI0aVA5g9XMIP7oDxDOHwOeZQCjTPzcf3jzOIXdLz1/CFuDo858dWYjwnTbl5fPuRTXtNKLTFz+WB5T86+sv32uito4+QOgpR5wMXdpoYk39mOQ2RxlPTTPdP1tv/6Hxiertx00tzQx3LtqybyZGku2Ktf/kGQKwGotSQ655Gims9smXjamMD7Ig8//KHpUaXMuxNI1aBLHX8aX2n+rcE72+AuezNI2v55ZWNvd3QPtZynoVM4fovrU1sN3aPl4AaaWuPlgxV8xvBTf6tkWuPhmblUjK6uGTybK+APkN+B/1a5aple5LY4HCCX8wUoX+89iiPC1rHIa09yo4pdARjmGW/aY9ZAoe5MBiderP9Kts8hg1+I5Yf4Nv50jpcaI+z+4rFPGFT8Fssh8XsDZx3Ntia3xDbP1MbEsYVVMw2eHW6JYDCO9il9us6h8/m2Px8P0f8y52STTX29oaEhKf2juGPjxj8aoc2F8ATCO8RcIFyT8AZDibXQM0I7mOqaBtdwCZ4nu2G4TkUyRLKyOFmmkaXArzAHaCEamACYiy/XBxDJIkv6PXD87V6/zZrqOSfn+di6QJpljOhsfpL/D2FksVfYwXqYqJhFP6h9/EbbcOqrt/RgmI4YvkAaVNljNrBYnD7CWDime3Qp3NvMc8Cw8qEdE2kciy7XxfpD8W1Xs34r3pecPQYGxh8GWOzc8iwuz6suz6isqmKzS0iifalJqbcmdwpS2zg7ZR7nMMdn9H/9WaRgUrzL+qGypT6kpwTEUz2uTBcKp8Jh7Qrax31qEmbW/kr4QHIOy5oIJMs5PZuFJ7P8AQYCYbr/zG7n+x7yvfjkdXSftbZKlX+Z4Ofd/AVrCLPbs2LFz5x5tA3RAvoL1QSpopMpsOB7HZPOHrNRJHMPyh7A0CfPb0fL390LnQhQugSYSEGgnTld+eqz6q8OPN0VzuGQ5f4iEvIt2FR8cbgqiiUT9/MEWEGmmpys/1Cr/cH/10SxefU7rGt3KL4yq5h2tP98Im83K5lz3rp2nBUX00dG6E1ncJsn4CyBqzm39Raf8I63yWfqN56sBbhX+pwPlH2pVrjxZPfdwSxRfWBrT+KVW+Ufa1T+aVqrIH7L9X8of12seO/edpk1Zdesgy0j+Vd7/oeTtC1ceE1AJZOkMXPl1LplEh400ycJRpA/GJbdC/SugCOSSsFiapNoKGESKbJmPortg5C2XEZMHNUTNDB6gVPEMKsPyNMsSqXaM3QIvPX8IKeHBB9/q3/x2LcJkFPvf7s5xbmGTpvBZSKl9J2L7X2Pd/xagV0bIN/ZLulVYUjfsFAp4Yzd5/AHQyu/fCboZm5P9IMjzHKT/EVWEg/VyK6hLL+f+L4Iyu2/emL8dedYFefjnOf9dapZEA0GAhS0vKqoi8kTDaKTC2vrxYIfs3ueJP8TFQwi0YrmPCYC82AiFWCyvqX9aroIiJHuWfgfkn9vI6KcNgCuobeWTFc2O4jL5VRgFPwFcQTWGT5ZCM5vGe0wA4P2LTCpPFv7g2MUZBF//ItmDTrb/HJvNDrqb8+maE96ByfBaOUb+mOjyoPBx1BdfRAu8XPzxw3mj3f72A/KJFbfl1I4/HsSd9jY9+ajA1cf0dN2AtbhDq19fX98jdtM7EdtfknNzChInPvB4PIFAoFAo90qyjCMuPmxWKlgutbAQVxumc+nYFw5HfgkIuD+SQhrc1JPHHyLavaMr583d5PFI2nZLU6v0tTFF9n8Z5WsA4o+317jVQX3L5NB9M9/bebtBLGgqVkN1yYtTrJE6ylhGNL4IBJ87/piEZ1TFDhPrZxj+kMz/IFJYK7cgPW4MVp0edf/HlDDXxBpfHZrEAi8Xf0w3Xf+Vi+6AvGfc23DKxA0Tu83WOZzLz7t3bFVcHdwD/KUocz/p6rAo99uT57Inz2V3rvOuHKcdWfbb0223paG3ptpsTUFtmSrn1hSb8Mepg/hDxfW3AtK9Py03vOds8U8g6lvkxrfPBgwvXSAz76SufxGB/PIb+xcv+gOl8j6WU2H/l9G/A+D8wU01nv/Wxst1BdflaqhkhRqp8LozUW41f0yUJeHhjMgfXV1dNBb/683I834J8Lqp5g+4GdXu8Vjg5eKPnp4eQDhwrRRQb39u+6+JUQdRGz900P341JY/swas+4dXPIXu7u7u9vZ2gUDAZDIpFAqBQMDj8ZIX9hT7K+v/UJE/CNkWb6NcIthQvwK3yWfpyePo1uEmasHNO4n9H7wsi18XzdbQmDl/4ccL5ed8vUilFenF3/9F6aMp5xKIP976wb6E2FoRY7t+1ru/uGVKBE2LY00gNVQixB9DNFLHENGIt6j5Y0QTjcGDKvzR19cnQZAL/vK9EZTzxxglwlROPDBQo0z8b1PVFeeAFsnALgCphAlqrjoFNIl9cioysofKxQrqgi9F9m/yJY5arDA27NCwshSKldMkL5RBaVPamao4KKDiqme04p+G1lCg5opzwADPvMr0bCwgfvwB14feO0FXBttwaJJUi+jl4g+F+h8MfFUpC8DWRhjfctZLymuQSgAVttQ8ePywA7YoFP6ClLnV/KGsxJPzUe9aWl6G9tMREsrcNE4aOsun9yuonzKTTm7/By/D/Mf50p3nZFvQaXxyJFzZg0DXX/D9X4Z7NCUtBcQf0xEIBOKVNz5c/OfpiHoBN0csaLpXLGh6lahYI1VJaGNIgOwWNX/ITDGBDhX5A0IQJm/ZJqvw+EJJDR2GPyCJsFwMXJiLWRnhjkI5+mdVpErkyOgwfTCYHBklP8DF1s4tqJAKwiTCoFZCUCcTJYu8HxubRZHphpFx6bFZxDInA2NPNxTKM6GZDwmRCcogBTFcemx6fsjBn387cdUXpmkGBQjg0mMyq2SJbKiAvJlF1cFUyCRIIcSlhfr4uKFQ52MbBZy6WC97SDqtmidNQEF+MKScFlULvTKEUGLkaZPLo5Fw6THZFJGQmB6bRRLCRNVgjywov+weTsKlDTERzA+jDNJxc/DNJvChpTfQU/QHm54r1kiLrGmFRNKYZSGQ3ptvFlEI4NJCfP3EGmktACwocSkaVksN5lkerxAUsSrD3VEoJ//MyrSYbIrcJmJ9lDEUTjV/wF6EQlx6cXqGdJrCMOtv4W/K7u7ujo4OAABYLBaFQiESiZIuEPyUOwgEApFIpFAoLNbImtlQPWdlH7bf+KrFnsUuWu+brp/pE6ts/mkrnbzIQdsowltm2Ens/wBBgUDA5fMHnXxgYMeY+D3KSTrz+y9bD5o5XAxOKsYwYVvGwIrNON648PW3GAwGj8dTqdTnef0tn45tJknXL4CgEo3UiTGOrDlT84fMFBPoUJ0/+vr6qhqIn/50gkBhj6A/5nYElVMiF+aqy0Edss1jCokNddmOkBwZNw+uKiaXI2NHGO67UEoitrZS8+QSYSniksaMk4qSnb3rZOZZGS7VDaNBS3xrSqHomADm5hG9wAxnM08xf9SIV/9SIekwcpy5gV8rr9BOz71c/G0JeTgfL09kk9gbjwdTIQsTi8cDpU46VtlMASZA50hASxMknZblqWd+XyZcxhQrl0gk48TrjeVpk8ujUSEeqgeAClezc5UwUbW4YOkjMwWll93DKUCp02ATyf2QIe2zfKag3kfHMCRH+pj9wdaIFdy4kA6bB/wpiGXQA9C5OUgDr6pwWXRQ9eQOq6Umzw54vGHEXJtD6HwmQGqohZJQz5fZJK7Q2cxzDIVTzR+wtpIbt9lMvv7FJyfWPPoq0DZAl1P2gpQ5ZPzBZrNpNBqJRCJO3YNEItFoNCqdxuBx+MBwgymSssinFHlFue32czFKyqxUsvhWBILNVMJb5pv2BjrIrDqp/AGlTUivzoy4ftn7gk9wfDkRvnAAXov4ZVe2z/vgk9U7Dmpt/mnJZ3Pnr/x951EL9/vV0k4yuOcxuF84/hjDM47/FjV/jN+GQ0MYFX/09fV5ByZvPHi2u7tnhP6PnBK5MEZ5qL5+qHh/QZkcma5cH4ycKpMjEwHYbImaWE6w3Ef/DC2BVJSs+RH0KudLdcMKJPwhjg7kF6GPu9yTvphh/MET5NnpOfmcMriBkXw/SPhDnkiJPYvZ9QAAIABJREFUwimPA1MhuyD+UupPs0hQaHPMKcBiP/J+5l3rXUYxTGkCigbzhzxtRTJ5tPwSF7ML/aBQFiJ/uFya9JHzSy66R5CliilsuPCazE9OsL4eZEluLvL4ufj+x5QGC+MPd/hTVIspTII+NTxpdEXQHjojaKnBskMe74XKMAP9EEgLDhRDnlhOTmKTu2r+8PPDYDCyF5gyx9B6KL8ykD8k15WFI7ve09PT2dkpEom4XC6DwaDRaJSpe9BoNAaD4RAXiDBZG1SYLDfdoD4AIaOeROEAPBqbIRUfG05/bKipJ5U/AGqO277v52pIB1/mr1iPim1ShhT0R7fMNny71tC3iMyl1OXEBJy3889VzlJKbTLIROJ/1fyhirnU/KGKlUbrZ7T80dPT85eux3m/hFHwRy0hwU5HD+2Mcg6Jc4LkxQaoignkcmTsAn9bV0hNzCEDm+B4zMztoofjjUzpDk1SUTJJH0OeVDcsVcIfDnt3WLo4mWvpeBdD6APr/2BA0mFBxYKac38tOxou3XxuCH+IFcaCCmEqZHViMRKg1OmfXdaujie1DnkV5rjoGHgF+pnvNo7MlCYggwkppwUVieXhocRUytIml0dLbQ7S22HiJFZHqyHIRdVw0ke2C/B0j6TKFNvgJpL5cUhrjUfr6NuKddyqH0HjL3hYsPRIQ02DoIeFzmbn4U/BhXW9lOXKLAz1Kg2vpSbPDni8dQApwU5HH+2Ecg6OdzLzrM6X2eQF4g9tbW1oVFl6TJs2LT4+XvY6H+oQiUTffffdkiVLeDze0F8hvUIMxk98jMgfRhHe6DjpzB0h9VF13v3yXPn56OpqU3n/h6Q+K4wRfrG3t7erq6utrQ0AAC6Xy2azWSwWcyoeLBaLzWZzudyAvAdrLpgkVhUqa/JwOVb/MTtuneamov7YUFNPIn8IKXfNVs/W0Ji9/HfNY0ZHdLYu/0Jj5rxlO3yV7n8rAoWkQl/9td/9cfJ2qbRNVPbso7qu5g9VzKXmD1WsNFo/o+WPvr4+Mo3z2RpT5fwB60uW07aQTSbRB8A9TB8MJkfGIWOx9P7tbeUSYfJwYIHDdMMkTw0wyWSFksSQdBiXXnJW90z6cHsmSBXGAA6ZyJB164pxp45OokgGHAUUonRjRXkChiinwX6SyaPxGSQyR5Z++eP3PzKT2q+iJn/YIX6gnwZbEh4sh0KiSY088Clk8YJwC0N2G1ZLDeZ5QLwDA4fZRJ54eYwjlsl/YfxFIBB89tlnv//++wPxsW7dupkzZ/7/VzX8pS5zd3V1bdmyZc6cOXg8XnZxkEN1/hiw/pafo4Nch5Arj0mUOkfNH319fT09PU+fPm37P/bOAyyKa+3jKCiWtJuYRE3uvZroTb039ZpuLElIjN1r7FjBCqKigIB0O/aCgIqogBW7KB0F6Uivu8tWtu/M7LB9Z75vdmB3dtmFpSvOPPPwHGbOzJx555Tfvuec/5HJYBiGIAjsuxsEQTAMy2Sy1jMW2JATlpxWyHoW9cek7JjFn4wa/l+nqCpc6AViJnv/MGbUyKmhrb+UFKIlH1jw1acO22KLza/F0/4SSPJHGzbXmZTkD2us1N44HeAPFEUj41LayR/taI3a+wpWxQcL4w6eSWeaGd3V5uXMnIw8XXdDmzHJCB2zQC/wB4qiqampAwYMSE5ORlGUxWK98cYbU6dONaEK/F8nJ6eXXnqpoKDA7Fn8oPX8kVdflVPXLO8BMR/nJ17Mfmi8JyWz9PyLlZxWnqs/hSCIRqNRq9VKpVKh2+R9ccNfTalUqtVqa3IbwMw6mZz+FJ/YJngacftGSqvdFnp7duv8F6D04K/m17/dZual+DVZdy4e3+W5bvH0n7/+9MNPPv/h979WbT1rvXaZmXsSMIXkj9btg58l+cMaK7U3Tsf4Q6lUP2f8QShu7TURGb+7LdA7/IGi6NatW999912RSISi6PXr1/v163fy5EliC4SiaFBQkJ2d3d27d02Om/xrPX+YnX9rycQNIgFTwNVqsSWprNkQ3abt6xv+mpaM1nwcqi1/cPKq2xtua9al3grPuHXyjvco12Xbqo3Yrjly0y8kopG7sf8FX//223Vx+vVvMwLHW1j/VnDN8W3bwe98M9f92J0CZvPa6F1Xo5H8YZIHzP5L8odZs3TyYMf4o9X5L73t6ui6gtlJ25KXW2mBXuMPpVL5+eefz549G291nJychg4dWl1drW+Ezp07179///DwcP0RS4Fu4g8r599aSlXfPt5W9pJci5rT36hva+LQgAPxOi2yltfW8zhzI/z2J8XpjdaN/KFf//a/fy503bzO6X9fYevffvznsZKWCQNZBbdP7/NaO99h3Ad///vYrybPdfLYdepqNrVDakUt70/yR0ubtDxC8kdLm3T+SDfwB1h21PGPRU6rli9evv1SqdXrG7TjXUR3A4PutTaSwwyCgMVHA8Nrif0vOsExCSZW1sajdbpeYlO9MmsxCyg/vm1fjm5uHSt6m+/9IhPds5YJM3NnoPzIvBm7s0WwFKJEbgtKfqozsfPKJat2J7KF2ac2rXJyWuboejK7efk9gpQZSLkT5Lxk2dIli1xOZHFNIgNPQv6cuD1RCNFu7VznNHfC+BmrVnudf9o8iKQNy5ixs5nEt3mTXuMPFEXLysoGDx4cERHx/+6QxsbGDz744L///S++6HNiYuLAgQO9vb31DVIrgW7iD/erJ34+sFEoBVp59At7qs2MBUj41PwDn+4IjmrApsCwBELDYl0t8m4Vq95m/YTpYdv19uxG/oBhsD5hx8zPrV//tullxYynKVfCdm1zWuB/x+xgtxbv1aaVSP5o00S9tf7LpGuUIo6kD++5TPGI01WTLuFrz2F/9evP4eu/4FWxvkjqA5b7X0BMfywDkMJgddSyebsLAX5B7F5/v12YqhhBuiohJiL84KUiKeGsQclKr+6VxSZGAJnpYb6evge2ObpeFWAFDTKj1gU3K4NlsQkyXBJsZkop5UF8ChOG6hPjH6Tr5Lpi0zG1LtggwyUhqnVhjwALdcpkMekJ11MY1Afnj50I8fQJuxwb6uV1JIllqpMm5RYlXL186fLlS1dTynT1A1CImUPHH/Rjy9fdqMIUw0BG6glfzx3Hw09fy3sSuGr1vp1eHiHXKkHCy+pfDfMWA4XBs8dPmuGV1ADWhC53u5vTdE/6ibmLztzYMGN7phiWCil1rCbA0kmZ6VYmh2pOOi46UowNnuXmJz+uumcUWZSwaYG7p+OaWDbGDYJrTsvDG6wpjF0bpzf5A0XRQ4cOvfTSS7jbo6CgYODAgT4+PsXFxa+++uqSJUv0Ob71QOf4A6wpvuR+cffSqBBHbN8TWt72+nOtp6fPn414fGes36Kr+alt50WAVVhdkFKen1yen1xRZWYNd12bLQaBfGolU8zXm65b+QNLNsjKu23t+rdtv2b7yQO/Z5fwR0FBwalTp7CKr4/up06dSk1N1beT+mZSIBDAMKxWqxEE0eeczgcogHLE6aoXZP/1st6uXcgfsJQftWhRRILPiqAcEVATscH7zkODdBWmRMaAgDTD2ftcvZKVQd2LTYhw6677fN8nQknlkUVrr+j4w4xa1z12bLM0GZMgw3U+RSdTZir4oZPsJMpwRaca1LoqcQdnQ4SreyIfm8Vakhvg6JnGrdy/cOVlJuvc6nWxD0110sSMiqLCgsLCgqIaps6LABQGTflh/pp169auW/nrj87xmUGu+4sSNi8IyBFJKg/NXx33OGCJexJXmOa5cs/TFIM17mTqhMia1EoKQ5Z73ru1eZZLfK6OP4Km/brO189j+YxlJ0t4uZGuf82ctcDlUCIN5w9cykznihBeWu54SiekhnsmhMTIrDjnJUeq6qNXLQ2ngC8sfyAI8uuvv3799dcqlQpF0T179tjZ2b399tuTJ0/Gj1hTm1jPH5GZd84/eWDUnAjuz3afaLtl7ofByz/Fdqe1eUbd/NYk4EWLcyD58mA3h+isBCNLtmiDQW7SSn8HwwwjV4/w3hx/CuSfWD3f/0Z5d7iFW7x765bRn+0S/tBoNALdxufzuVwug8Gora0tKysrKirKz8/P6xNbRUWFvp3sbv7QaJHQQsH6VDa+r01hrU5irHpAW3631vF29ZJbVYtvVvaZ/fwTvV27kj+4iZtneybqpcSCIh+eMZKuKgdh4YVmLa6gyKR495bqXqmECA8inZwu8GGp8PJGN9z/YU7QjAc2K4OlEmS4dHJdJbmBrvvKIDA/xHUPLjim4w+iDJcuXrOiKN4NQeQPnYopI8zVM1UsuOyy4VxUc/KDI3U6aSAjI/rwwQMHDx44cjmHjzX5Jv4PHX8UXnReFc2FpcKY9S5xj7F7QkBByPqQJwRbpaTrjuO1BH4TET/Ne+aMP6ZvvJsTssQ1vrSGopuyCwJYOiH6zbXTtqZh8YE8nZSZDjiAJz7ztzzUpUQqFolgQmT362EzPv3Zcd3aVb99Oml3Cfii+j9QFGWz2W+88YaHhwc+kXXy5Ml2dnZMJtP6Rt16/jCaf4u3GfzrDpvmriho7jxr0ZBYn4wXKqa+BW0lwEjzeMljy460Y+NDj8QURk8LPfaw1bafaMCu93+AFftnjhk5ZW8+P9lj0r/HTN2d2Wpi8PeS5MccvVmlEyPCf0N08d8u4Q+93XApGhiGhUIhk8mkUCjV1dVVVVWGFub5D1VVVVVXV1MoFCaTKRQKu8P/obcnHlCr1Y2NjSKRiMViUSiUmpqaqj661dTUUCgUFoslEokaGxs70v+C/eBfu3rVkr+W7U5iwQydlNiB3f4nkhuMpavKQZh4lmlQsiKoexEuZ1PiNs518gn0c/xjdbP/A2+kmQZFL47wUbMy2AOCDFdxtm5BmCjnmesCdSpgpTrBsTMxmIoX4+Z2x9XeOlmvpzp11Sa1UJw/+Jiu15kYP8z/YcIfsXUtddJMKkNz/FHOuLPDcbm7j5+jgzORPwrrDbZi6Z7V3J/S3Ikjytk54YsN+v4X7FnirNCl85zcvbYsmbP5Mk0Kw5LcQzopM7yaghgJgQvnrtzisXHpPNezRY/0kd2O7piz7CITa+z4d9bP2P4EeEH7X/ASfuXKFVtb25SUFP103OXLl5vUAq38az1/nHp061zmfaNcAjGizyybcLekvkmpk8fFc14ziLTy3Bf5lJENm21lcpCavPmlfdFPUj3/cTqxAShyD3He3ovr34IV+2aMeevDSUsCt0z5z+jhX83zOHwk9IhhP3yj2CT9um7RZd+svYuNd2PEbNkUqxt2KmYxuV1FJN3BH3hjyWazqVRqbW1tdZ/bamtrqVQqm83WN5Nd2/9iUq41Go1MJhOLxX3YpHge0RsWX4FIo9GYmAL/1/L4D3N0LmLVs5s8ysbSVbrIhrMEJSuDhBcsNUSAJVwmy7wD1aDWJSVca/o4gEtnNf/ObBYcw4p86zJcBF2vlvVDGzpp5ipGbtbte5V8euK2xT6Zpss+EF625bMsHAE4FApd2Dy6tqWUGcij1tF4TePljSObS56Fp5j7sl1xeS+P/9Dn76VLl+qn4167dq1fv37Xrl3Tn209YD1/mJl/C6Qv3z7J0EewviP6Y60nr0+etSabSupO/3ebS0Bi8AjX6WMD/zd0i/sRTnM5MZd3iYbqev8HDD49+deY0c2a63rx9eaA2fVvBdea+AOkHPxtQgi20CWQ7fXNjHDcq2nuLayxjD5O1/IHiqJ4YymRSBoaGuh0OpVKpVAodX1oo1AoVCqVTqc3NDRIJBKZTGapmSRmp86E8QWu9Sal0WiUPrrRaDS9YeVyuSXDto8/Ol1G9IWljwTY2Rf2+gccul7YRXXIc22WZ4U/vLy8bGxs5syZg9cUTk5Ow4YN43A41lQcneIPiJmWc/fMY/1+PwFbLx7DPceokFG+83mQedF3axLWh+NYl+mFhVXlDIiZ8ODgwtN7gwqoprzfXDdxRPxd9y/cKH6kt1g38AcshTh51w97b132w8ej3/7P74s3b15P2N0iHrd8qeeOP7RarUKhgCBIKBQ2NDSw2WwWi8XsQxuLxWKz2Q0NDUKhEIIghUJhvUKPPne1K4CbVCqVCoVCLpeLm7RPLvHEZrO5XK5QKJRKpa0YluSPlhUFeaRjFngm+CMiIqJ///6bNm2ytbWNjIxEURSG4Q8++OD333+3xrPaKf6AYZCbsyfK7TP/RZ/u9/PON7SRs075vLJlSgOIKaSRm4kFrMltnIITv508l2zFMIsenX8reRT816QfHI/mWZEwwbWlY79c6Hvkwr37vhN+fg78H/rViCAIkkgkIpFI2Oc2kUgkkUggCJLJZF0++cUkn6MoiptULpdLpVKJRCIWi/ucRZteSCwWSyQSqVQql8tbMSzJH9bUfmQcayzQ+/xx7969AQMGBAcHoyjq5eWln46bn58/cODAo0ePtqwRTI50ij+gusNHptq5O/4aETBt1+yBbqu2G2t0mjyL/BdF0VslmXMj/JLK81rPYSD7zmyfZeuKGM1L4Aot+T94YmHko9tpNUV683aL/6PZ3cJKDgs+n82EYKD2hsdfP334n3HjVx1OZZvpGyLoj4196413Pps018lj09R/TXtm+1/wQdxqtVqhUMhkskbdBvehDX8jmUymUCjUanV3Oz/wDIkvsKBUKuVyud6qeEr60l+ZTCaXy5VKpUajaeWHn2X+aNIfc8LEsZJ0wxuNxw20Uz1MeDco8B6+9pvhPkDJ0YCIWnxuauv1T/NZsPC0p6u7q29MVXuuMnliVQsRM0OE5ge1dUSnZmYpDYBO5UxUmJhMgfCwtbdtrtaex/i9zB8FBQUvv/yyk5MTXs5VKtVXX31FnI47ePDgiooKfbNkNmA9fxQyavIolUbfiXftV7c5C3N42EHg6dag3z6/UU6MYPaJL/jBPQ9jbNZPiMq8RzRUy7CwYPezuP4tWLxv+r+Gf+t6tZ5+cfUXb48a9fZ7o98a9f5/vVNavoLRkWdVf6xlbkQQRKvV4msSqfviptFotFptK21kS5t08ojepH3bqtYYthX+aNYfYxyfuyi63iA+RlQP41ExGS4pRH8Yn8zgFsbs8vIKCE9hQLyCuL3+/ruislgwxEg/5eO5IxQTG2saMcorjN3l5eUfnkrNDVy1Zt/O7R4h1yvFhFvVUx5gsmaxyQkXwsJ2b/fYdaO6adAl+7TTmrMJQRv24FKkOu2yh/HJLBikJ15Pptc9uHDiRIiX1974SoCZERHosyMESwM/P26vH5YcNoDrfxDmxHLzLoR4evqFpdQD1IQLJ4+HbPfae6NCTAgDMEEADdBJpR04sHfRD+Nd40rq9EpoD4sSzoed0iW2RkJ9eD0xI3rxDz+5Xiquw0xEMAhMSFhblPNc4Uhv8kd9ff2IESOmTJlCnOhVWVk5ZMgQ/XTcSZMmffnll61rgVjPH2bm3wpuTds81SGZIoFhkJfi6PvrN3dqia1OJ6utPnm5UIrJhbGFfKKhWobBhmdx/VuwPnLm2Pe/D8wS8a4u/8/ot/+9/Gxt8d4ZY0ZMCmz5CqZHwIbqnAeXztwqsKLvxvRac/VCl48/bZnf8PV6+tLflu9IHulJC7TGH5g41o4dnqtmrzx+cbtefMxIPYyLNee4zMbOGM8l3hk8kFFRQU81yHnduuc+f0eWEKg4smjNFR1/AOleS3zSeRC9opKei4l2NYh0ol2EGbNFOZhoF0OS5++4LZkrSvFcHVql82jyc44v/+bz+WdruKX55TjNNGmHAAUhrnueZmOqYzygNsJx+YmwNfP35TLr6yisdJ8VwTlCsCbcxfs2phuGz7/V3VCc5rnIJ4MHlJ9wXHM+FXscD6yJcFx+6qEhHFFtJICG64np1EREYJ5eCW3XDT/HbSkNolTP1aFlukm3HEzwTIwRz544g0Hus2OaE8Y1V41YU9U8m3F6jT/EYvFHH3301VdfSaVSk8Jz7Ngxk+m4np6eJnGI/1rPH84x+73iTxl9Cajh8rkFA1ymvBO4dLT7ZFsPrxPN40/xaMQHkWG9BYxsaKFISGqvrjjlPTOsaZ91ys/x8qV7HItL0Olv3r3r35Yc+HXMmClHK/mp2796b9TfF52hQfwLKz8a8a2HmZfiVabfPHckeJvzgj9/+vz94a8MHDLiP+NnhSSanwfY7p8mPcAfRKuSYdICnbdAa/wRssT1+pOwlYtCC3mW1MMw/tiH80fwQWfn8/gC98KLBjmvB6ednC7yYFiAiY3piEEY4+x8AW96dd4I3eUbQnJz9LfaU9TEIobWfU8pVtXQI5zWXaWmBC9eNH9V0CN8JjDGH/t0wl8Yf+CODSBz+8qQvJrU08FuS5bvT9HLgQVHJmcY84fworMTlhhRmucqnWZZGQRLMr1XBl3VgYUuHJJtKoBWDkkN/NGkhLbrRkAzijWl38Afuw4ZDJLOAyhNCbNGtchMPWahiu71mL3DHwqFYvz48aNGjWpoaDBbHv744w/idFxbW9uMjAyzMVEUtZ4/zMy/xaS4aXcfHlkS7rsw5lwcrcndp/8wlh76gh/X26eVgKji9Dj3X4YFrP5mr9N77r8M81s+yn3ykN2RWcYKK/o7EE3ajeM/eNdXfjb63Z8WLp351fBRY34JLZbwEzZ+997IGYf1KdEHBNcch7/8r2mbdh4/fyutmFp79M8fAwq7SvxDCsMkfxA/Ohl+LizQKn9g67+ANWdWLDqYdtN/pWuITnzMSD2MR4tymrk+QKcE9vimr6Ozd4BX4IUyXH/r4G7/k0lsSuzGv5x8gnY4/uGM+z9g5m1fRyfvQK/AiwaVsA0heRTDrSzxhzDFb95Sv/2BLo6z5m+5XKMrvBA1ynnm+sDgzdPn7XqaHfDXbI9g/43zl4RmpIb7Bh3Y67rU/yHFIGvGNOl/gRg3vR2dfXSaZcU5/n/N8QgOwK7OyjaEc8SmAmjlkFSnZhaVWa1XQgtpwR+8uLXTVkc9wjwuWQR9M2GGPmFdtPKUvorr3UAv8AeCIPPmzXv99ddbGdjR0NDw5ptvzpo164luw2EFBEGz5bOj/AExmXVUABSIeM0DJLlMgUF/zP/22VlhPuJGyOxDX/CD1uRaYdmRD72DYrECA1HSPEfsi8qinPt+k5MPxdQFIgQk90uyyzhUvVW7kT9gQcaeqe/phEBGjHM+Xyspj1jw/uixv4QWmXkpYellrz8//eS3LefzG2CYcYzkD/0nIgMvqAUs80cL/x9BUIuoHibhMpjCpshElTCCnBfQwGQbr1gJCZiMhhY/XYi3MlN+db/7AR6jnmtS5wANDFbTOjJBrvvLGhgsfKCriEHBpc1hKUyQNTP1HzQnRteZUtrAZIpgKTGsi098NTxtQlzNjKiEZnpnEZPRoP+FQzAIMWEt7Gx6k+cmQi/wx9atWwcNGpSent568Y2Pj+/Xr58NYbO0Il0H+YMb/8emXz6/HutoQX/M4ai7zfoJHEDYejpfzLOWijrhOERJdLPf6hWGaY6BxQkbX97iE8VLmLN16ZZKk7oA7tH5t1hZ5RXdP3/yzJW0Wt1agw2FFw+dTm2wWGi5Bee3/PLBh79uPrZlEun/eDEzPPnWegu0gz+eh3aRmZORh/cBdSS1rJyM/OYxGcSwxcqEUEOSceBe4A99Pu6qQAf5A2I+SLt6jUazpD9Wy2EU02vVFkSIuyrxz+N9cusrd92/UECrar0sAZTzP26ZaOc+/+PAua+4TBx2/Hp6hs/bnv4XBKYFjyngros9GJl5R2+N7vR/ND8d4tMqnuZXcyzNiDN+O3Z25IafRgx6d8bRHMukYnxJ84Ms12tk/4v+i5OB58UCfYw/2ltmyfhdaIEXmD/wVgGi3ku7er0e/0XOzcg4e7LCaAjI81Ip9GQ6rZx/K4UhRvXt7ecDZp0KXH3rQa4IloprHlbQ9N5Fk3xMfIXu5Q+InnJsw+Sv//X2qNFj1l0XQuzMi1F3mxawNoIGSen9609YekABGRnHVn37z4823O6iXliSP4gfnQw/FxYg+cOk4iL/7bAFXiz+GOAy+ZOgZXpjgZz882knJmx1+CY2PjzjVnha1EzfXz65ZrQO2XNRI/RwIss5tMhHt8uZVL0lLQUknJyj13bPP381GxDWcrj6htxsfOJbdCd/iDL3T39v9KiR//7m00/fG7PuOjsz8Psx74/zTW+ZKpCeGDx7/LRtUVmGWVEgNT3t6fMz/5ZoVTJMWqDzFghPVoQny+k8mNxJC3TSAuHJirOpcGVlpX5daxaLJRQKLS2/bGNl9i0oKDil23g8npWXdDia9f0vX+9xnhXmo29mhPk7R2yYQFh8bkK/TUvWFui0yJp95mZTBaoaP7+zdviVeSOuzu/D+/Ar8965uuB49a2WRtDbsJUAyE109HUY5rfwTZ+9Vwr2j/Hdc7PVaavEp3Qjf/Cur/p89Lu/73hQTzn+11jM/wE83TllzEiH3ebfBaQkHlz100efTliwMST80p2kzJycrKRb5w/vjEzreLdxk5eF9H8QPzoZfi4sEJ4s1yGIgvxLWqDzFjiXJn1R+MN0/i0k5nBT1wYvWJzJ1E2B4fFa/K41WyNkCyqHxk4fGjv945ur+vD+5uW5Q2Onz0oLaGkE8011M7ThZ+mp214JCctsuOrgt/c2P2HOtlVetaYjT4n3IT6l+/gDKD3425gxE3bnSyBqE3/A7MjFY4d/u42YGNOwsDYtZv+2VQtm/j5p/MTfZix2DYhMru50LwzJH8SPToafCwtUczQZlaq0cmVKqSzsJsUvIu9Ojuh2tvDWEwG5kxZorwUeFzGqdFtNTQ2FQmGxWCKRqG/6P0z5A2svJbmPL0TWchml52bvWz0xOj5H0vTbNDorIeBOlFQha1kp4Pyx4clR01bKuAF+3s9SRezO8Acz3fPVwEP3mRh/XK4I+2LT2iC6ef4AIYgrFspVSr2pu4/5eRJIAAAgAElEQVQ/pKzz8z4a/f6CU6XiJv5oqI5e+OXokX/u7/nvRfKH/ouTgefLAhqNRiaTuflF+O6NptFotbW1NTU11eRGWqBDFqipqamtraXRaBwORywWy2QyjbmZH893/4sZ/hCnOm5f6FRQErTvt9d2ev7sM9UhhYm3Q63MvyX5w5qmGuSnrtjxy+BtM15x/fNVt8lvn7hR1rQig9EYTyncs/NvofqYNV+9PWrMhw7zJ497/93vp0z8esxboz6actRo3I81L9j5OCR/PF+NLplavQU0Go1cLv/DMejC1UQGg0Gj0ahUKoXcSAt0yAJUKpVGozEYDC6XCwCAXC5/IfgD5MT9vGXbCfo1h01T52SxL5+d8+9rT/F2JaE0+1zmfZlSoS9y+sCLxR+p/lrChiAIXcS9X5JN5bLabIAl7KzQyyFzTgWuuZNUYHnwB5XL+n7fes8bp/QW7kb/B4ytO+U368sRo0a91bR/9L1rbEmz36vNl+rCCCR/6L84GXi+LKDVapVK5Xs/ri8qqeZyuRwOh81ms8iNtECHLMBmszkcDpfLFYlEUqlUqVSaXdq6z/k/gOz1fg7DvGYM3LLtOCN7vf+fU9LYxAbGbKXQUf4QZjw6430jAt99kzKJD2o93FB12z8pq9aC/6D1azt8Fu9/mZHiJ9dtCt2mVCp3JlywZv1bgJl1Mjn9KZ5mwdOI2zdSLCOIFIaJpu5W/sAMArLz70SF7t0VdDAi9nGtsJc6zkj+IH50MvwcWQBBEIEIfOPzlSAIAgAgFotF5EZaoBMWEIvFAABIpVKFQqFWq82ubv1888c3e9fOCd9h0h431N71ijkYkFcn5GYFxUTdM1bHMlsjdJA/INbBQ7/027po3N413+xd833EJZOUWP4XqnngOjjweFoL+WHLl5j2cXQgJs4f05J8weYNgiAYhu+VZK2LPfi4upUOC6i2/MHJq25vuK1Zl3orPOPWyTveo1yXbas2P/4DTxvR1N3OH70EHCZfgeQP4kcnw8+XBZIzy8bP9VcqlQqFQqbbGsmNtECHLIDnH4VCoVQqNRqNWfhAUbSj/KGQoUoFqtGiakSp1vIRhIOiIhRVaVBUiSJqBNGqUbUSVTeiGimqlCNqtQpFIRQFUFSlRRCtBkGUalSpRjVY0LhLxPr5t3Yukz4OWmrSBkhBxoOUkysi9x6plfA4dIaxj8FsjdAZ/hh4/BZP3/jxUz1P7fa4eXBG6Pop1+7G3AuesGf9rLt5HOz4rq3Xd/+6b93vF2/miPX8AVYXnll4aM1X+z3XphazgMJ9Z3dsL+BKYagy6+jsCzfyAca9eyG/7VvzU3j4FSYohcHa4mjHI+vHhe7wyqNK9M+1LoDzx58Pt/N0G5/PFwgEIpEIBFvDCJ15Jdei5vRfT5zbPHFowIF4Y7Yz+RBEU3c9fwD5wVM+emfMGEv7e05xJunpgX9J/iB+dDL8fFlgY0D07pM3tVqtRrepyY20QCcsgOcirVZrCT46zh8aRK3RUQaqQjVKFNaiEhSFUVStQREVqkIQBaLVaDVarRLRyFCVUqtGlAjaiKIKBFUrNIhchWgxPJGiGjmCKDVG5dR6/tBqtSAEGbUrECsmav7gbQvf95i3Ki/d2W/+ysK29U87wx82rlOGbZs+bNv0EUfjQE7seNc/Pou6cDB2zcsus3++fGnvmcUDvPfeYGDH/3Mm+ljC7s+3OHx3twL3fyRTY8ZvmTruYtzxW9vf2zjXMa/+0tk5rx69VgtU+u1xGBuXnfdg42s+3nvzH52IWjrsYGwRLfZn93kzE1JvpoZ8vM1tn4XpJ0YGIaAJzh9/JHjpe/QMXXSEaGYvByR8av6BT3cERzVwmQIuSyA0Xk3KjHuG+FG7gT/yAn4b0zzgQz/ywxB4d3mM2Rfp1oMkfxA/Ohl+jiyg0WhH/ehaSzO/gPlz9CJkUp8jC3TQ/6FANQpUo0a0iApFFSiiRlUIqtaiWjXGH1IE83M0oqgK1WpQDaLVqjWIHMHgQ6tGURmKyrSIWiVDVAJUI0YRk2VwrecPM/Nf+PF/bFnpWcM8cnThqqfc6PDpn8eX4k1OZk3JraLHCsKkUP136gx/2O0+eDorITor4XxxFcYfbth6bKLSg++5bT7EhXmZPq947bzCaDouhfnhxx1eDb+P88f9NM8h7n7nxbAUqvLb/euY2Bxh2eGxm1xCco597LbKu44XcdxhoNeqCYfcJuyeN9TN82iK52DXOZ8fdJt40PmfmxymZvDb1Zo28cd9T3rzxmAwOByOQCCw6j4Q/V7iCedzOx2jQrA9Oi6phbwK8T5686Io2vX8AcMgCIgkEku7BDQG07YAi5jyDodJ/iB+dDL8HFkgI7fym5m+z1GCyaT2AQt0kD80GkStRZQoolVpUBnWkYJoNIhGi6ow/sBcHQiq1CJKrVaBaJUootAdUWmxsyikRkEFopArERWMahVqVGUsydEp/hDcnLrFcUMJ9fDRhavyCjx3/v7t3Vq8Oen6+be68R8D9p+6U5rzoDTnYTWlNf7YOGdeJl3IfeTk98t7MVk4fyQW7R+1cZlLKVfIuD7Vw+HH+3VSqNx3t8Mwj+kvH4gthyR3L84bFHL4al1VQW3ug0oapWj/PzeucMkvL6CVPSwtrBS0r4nF+eP3+5403VZfX0+n01ksFp9vFcewMn3/tmHSq96OnwYvx/ZdBy5bmGNS18Ac67dobewBfQnpDv4gUIKgIvniof27A3bt9N/ZtAfF5RMimHHPdMdZkj/0X/zZCai1yKUaIKpC3Of32GoAVmk7Znm3wOjdJ80oI3fsbuRVpAWssUAH+QNVYF0tUoweFIhKjqplqBpG5VJUCqNSGaKUa1VKRKHSYj0vCq1apVWrNWo1olKijXIUakSlMKKG1ahchWqxwR/GDpBO8QfUcCV64UC3GcO2/PLqFgc7T6+TzSt9nEiNd7t8FJQZzcvAbdQZ/4de7t024Gir/DHtPb+ZA10mDtjueZgqaRp/KqFdOL/iVZfJdi6/jDwclYzpb0IViZte2jB1egYbhGGAmbAieOrLHvPe2TrjhztlEogaHb38tc0z/7l92rD9UdntHL7axB/3PKi6jUaj1dfXs1gsJofNFQslbY0Coae4D/XeHd/qnBe8Ua9m1w92c5gb6afPgt3JH6LMg7PHjDb0vOCdMmT/i974L3jgLg0acbrqBdl35fM78Lk1Gu3on1xryM6XDtiOvKQTFuggfyAKVKFFBKgaRmSIFkClLKShUsutQxg12rpqDa1GzaSoGTQNg4rt9VQNnaZh1Ws5DITDRFhUVMTQaAUACgpRuVKtxbpqCFun+AObill/L/HoknDfBTFRcTSjwR8mk0L1z+wgf1jt0m/ikgpuDa2WauozgLic6nwmFx9OIeJW3Y7f8Mr2kCt6LXBIWFdfXcGXNP9eh7gNNYVMbgemmFriD9/r4dbMvwU5CQuD3IJqODptey5TIGx9AKzevN3U/9JkEP4Npy9GvzX2u+mbfdfN+mrM72s8/dZP/vy/049lN1ush5wfUhgm/R/Ej/6MhGOrgRGnqyZdo5wp4fXhfXUSY8Tpqh1PuPi4P2tG/+k/0OW72RPmB+n/JQOkBXrGAh3kD1SFqrVamVqmAfnSrDQw8jiwY6vQdaVkxSLRX/9jzZlVM3tG9dzZ1Llz6LNmMmbOZs7+i7lwkWDlSnDtOum2beDxQ9CTRJW4Xq5tVCtV2NgQwmY9f6yNPeB9I8KomQFLD0f7zAzzbt595kYdPVBC168RT3iOIdjt/MG9u2z39n2UNqeZgE9urntzu/PSR7X6BBu9ndXEY/YqS/xxIuna9/vW33nahn6JsGD3SOLyfq4e4a36Qgz27Z7xH/g7AqUHfx0z+qMN8ZyGG87jftiUJJbCkjS/SZ+uvWbWCN16kOQP4kd/RsI4f5ws4nbrp+/1mydRhSNOV3k/ZuNTH/UTIFUqVSsTIFEUFUGamRvO3Ein1As05E5aoJMWkCmNWvPWK4EO8odGhWCTZwGx9ObdkvG/l73xTu3QlxkvDeIMGsgbYC8Y8jJjyMuUIa+wXnmdO/hlrv1Qnv0r7EGvcOxf4dq/xrZ/vfTV4YUTfxFGnUFFPC0kQ5RGfZbW84eZ+bdAge+eqQO2Lf7v3jVf7pg6YNvCf/tOtXNz9qlpavvNmqO7+aPX6yY8AZb4g8czWiLYUmrBhsLYx3fP6PfMbEv66/gdiKbuvv4XsPbktDHv/9cnjZsZ8N2Y7zcli6SwJD1g4js/eFl6ke47TvIH8aM/I+EXij880ugi3SYWiyUSCQAAMAwrFAqz6tf4B4pOJ9e/Jdf+7TILXH5iWParzRqgg/wBajRyBYw2sCpXbqh4aSRo/xrY3xays1EMsNH2t1H1t1Xa2cvsBkvt7JW2tuqBtqp+to39bbFwfztt/8F8G/uyv42oXbQULS5G5VjhICbUev7Iq6/KqSszak6A3I2BcxfmYAMqwYYbU73WBdRUBO3748ubFS0bRf1DSf4wsmELLwvILbtbkHYt33gvKK4x1lYxuYnevN3b/yJ57D3x/ZG/hWTk7J00ZtQ/Jyxx2bryx09Hj/wlxCQ9PfAvyR/Ej/6MhF8o/nBPprCbNw6Hw+PxxGIxDMOWBLA1Gi2+5HpWlYzcSQt00gLhyYrzjzC1U7VabU0PYAf5g4sNHwUV+dm1v87gDximGTRUamsjtreRDrTRDrSR2dhANv0AW3up3QClbX+5bT+ZjQ3cz0ZmZ6MeYKPoZ6MYaM8a+Cp1/K/yh4moshFA1MSqynr+aDn/Fmy4NHHj9GlpdBCGJfSYnzdPmZXJiQ6f/vHVwgaRgCngmlWhJ/mj9bZZkB/yNrHnBRciezb6X6QwWBa5+MtfN5x5Why26PO38SVg3v96QVQTcbb+al17luQPYkF+RsIvFH9selhDbd5oNBqTyeTxeCAIWnKBxNzMDE9WXMmWd21BIO/2YlogOkMenSHHFVNlMplcLu8W/VMx0qhVgbLEBMY3k2QD3pT166982YYz1EbQ30Zta6MdOFTzwefif31aO2iwpL+teoC92qafup+NagCGIDIbG82QwdwBL1V/8Y3o8iVULgGwWbmGrTP8IYUqdoZO6ecydVTQ0ne3TOq3zeNY1a1ZnrPmPeF1/fzbJj+BJDsryudmzNXmiTZNOQ+ixj88G1WjHzfac6MgLWX9Dve/gA3F13IeXsw23nPzKy34P+p5nLkRfvuT4vQftfv6X3QvCwL4VCBBxf2og0G7D59JrenA+FxLdrP+OMkf+i/+7AReKP5wvV+Fr5duzQLoANQ4duJmkj+sL+BkzNYtgPFHukwoFIpEIv36L3K5vIvXf0G0chQWy27dYHz2HdRviKpff+lAG+5QG+lQ20ZbO2DQ2+i2QCT6Am/V8ppPPmQMfQ20sVf3H6i0tYGx3hkbZX8b7oDB5R/+B4i5iDaKZVo5sbbqFH/AMMgvjryxd/4p3wUXz5yv40th4dOygkoIdr964ucDG4VSgPgsPNwp/4fg4QKPSTbrJ314ucBIEhTIXuPr8HuqVUMrWv+oXXW2w/zR3gRUsept1k+YHrZdb+ru4Q9eenTYrWbCk1TfDlw1ddz3P/4wa23wnerW5+a0942sjE/yh/6LPzuBF40/qpq3mhrMF8JisUQikUwmU6uN3Mwoiq7eHuniH0Xyh5Wlm4zWpgWiM+Tn0mS4vjabzeZyuUKhsOvXv0UUEAqJwKuXWV/8CNkO0dgPhvpj/S+w/WDI9jXKoH+ghyJQERtll0hiTlT/7sD/27sKu5eV/WxVA+2U/fup7GwFtoMq3/tQEHEaFQtRpZEmR+f4A6wpvuR+cfdSXKMzak9ouZEHwmy12An+gKgZXn9zW7MgfOEAn313sLm1wqyUPb/uWz/lYuiU7Q6/J2fql3SpblrSpf7mraCJe5x/OH7gRDVGJwArfcfpTeN2r58aeytbQLt9b8/U0DX/PeDnU4D1IhHOxp+5F/K/G+kMGAZZCW6n9p2ktjmhxsjpYok/Qu/HjPVbdDU/tc3sZWUEMQjkUyuZYoMUQXfwh+hJyE9jRo0ct+YCFZKKnwRN+dAgx/6vX7anWSWqZuUbWRmN5A+z5at3D75Q/OFyrxLfqqowRwiFQsH5o7Gx0YQ/biUWfDh5CwTLSP6wsnST0dq0QHSGPCqtkaLbaDQag8HgcrkAAMjlcrMjoDs4/gNplKCAQHw5jv7Zt1Lbl7T97JR2NrB9P7ifPdxvGGXIGPTQaUQuRBAuClHQjGTl4tXQwGFa25cU/QcobGy0A+2B/kMrho/mHj2JioUqTQf9H5GZd84/eWBkFMH92e4TbbfM/RDX6Ax2WpsnJkYwWxV2nD8g2oFDfww5EFtccfwj19kLc/iS2ogvN077LubSsTv+H7n9+ntqfeyZOa8di6eAVYF7HcbEZecmuL7qvsb54XW/kwvsvUMu82r2Hvjz9b3796fFuMacT+SWHLsWEZaXejzKcdCOgwlio7M3HwWP2OJ+lCPJu7V6sN/hh63KnxPfGg9b4o+Am2cGuzlEZyW0vKQzR4im7gb+ECd4fjd81OiP116hQXBD/IaPRo96a/R//vDY7zFv3IhRo99fRa4/R/wCL264Y/zBL2PviqnfnybSOTWlzCLWzpj6g4/FlifGQ48f0k/mAWCL4dumhYgvCDtHv8OSmh5v88JWI+Dzb63kj3qW4J8/uOQ8rUNRlOSPrv0QL/LdMP5Ihaurq/Xdf2w2WywWy2SyruQPbOU4kC+6Glf373GQ7cva/raqATbgAJvG/vYKu2GMV95HQ08iUAOibEAZJZKw49SfHMABbzb2s5cNsFPY2qj795fbvUp59wNR2GkUFkPGC+Ba7/8wM/+Wf91h09wVBaayY/o8YbYa7jB/ALRz322c/En0rat5MbO2T/rbydvl6R6DtwXGSmBpc/+LsOTAmC1ue/PDPmte0uW1iAc8GAZoZ77euHB9YfxUt5mLc5sgCWQ/dNo5c5iv08R9C4dsDYjh3SaelQK5Ln5//HQvcXOQwxc3ytrbxWCJP6ycf6u3oZUBoqm7nj/AygOzxrw1+qt1twVSWHRny7jho0aNGO+bIoaBssMOY0aN+NnXynR2YTTS/0H86M9IuEP8IaXdrnhrbv4bTrXxQlgKiY/sKPjb3PwPj1rW/YMkR3cUfBMlsFQqJVWMOW7Vp5lSkM5Z51N9pLrX+AOUyn6Y43f47H38A7XGHxDlTrDzkmVLlyxyOf7EvICKqDAxmdK+hSAMJU6YHbZplZPTMkfXsGyhkbPWEKdV6jKOJi5ITKkzGpSmOyIpiz7c9q8RoODY/svsphsCT0L+nOSVKDK+f1MKhXeDAu/xS6MPx9a2/8Uh2q2d65zmThg/Y9Vqr/NPrdaw1tlZ0sGHtsOGnfoKOH/gHYA1NTWtuN/wvNdB/4dK24jKheLb12q++lZsO0RrayO3txEPspEPsQXt7KgvvY4e2o82lKP3Ljf8b27tu2N5g4aBNnaqwYPBwQOAATaS/jaSAS9RP/hMePosKhWBHeWPU49uncu8b5RFIEb0mWUT7pbUC7BlWpkCHtf4A5utEzvKH2DW9RV2GybbuzkMdnMY7Dqp36bN+zNCRmxcsamMJ2TdnOHxGzb+AyzxDHEY6T375QOxZZDk3sX59kGHE/iS0hTPN91cdlMfr/b97T+Xc+ggK72srC7Da4hHYIwIZj7a/urWgBhBFvEsBwZzbzoP3jZz2OaN+5ntzvp9ij+AguA/xrw1xiEoH5BKsnwmvf/WqPf+vfmeEIbB+shZY0YNH+dulDF6pASS/GG2fPXuwY7zx18F7y4pWpgIiCrrxy8oeHcxxh9cOi/0eNUUz7I/Q+vvMKVSHtd/X51/LGVFDAfnDyGHF3Kg2jNFLIWAh1drZ3uXTdlff6NOcGR3yT/nFf0QUp/A4Prvo0RTgZvnqzecr98YUj7Rt+ZwCSSFwce3amd4lc8Lr/c9XB2S274CbqX/A5TKJswPcvGP0q+Kbpk/oOowx0VHi7Gh3Lz8pEe5CfEpTBiqT4xPYjLSI4K8d4REPcqIXvzDT66XSjl550M8Pf3DkukQSH0QffxEsKfPySuxodu9DiezpPyC2L3+fruiMtkQ9UFsRPihuCKs71h032XG9iwRDAsoFCYE8wri9vr774rKYsEQPfWkj6ffsfDTV/NrE84fPx7i6R12JSZ0u9eRZClMiAlREy6Ehe3e7rHrRkXB+cU/jHe9VFgaf8DXyzPkUglQpDsSm/4gPkUK83IvYEk8mUKXUB+cDzulu6im2V8F5h3edZHVTBgJmxa4ezquiWPBEPVhfDILBumJ15Pp9emnfDx3hG5zdL3Kx48b0kxISTUE8wpjd3l5+Yen0rn6dzc07YJrTsvDG6SisusHdnh5hsSViEHqg5iI8IOXCgwvXggYbg4W6ewcm5YQn8wwvHI1RDBUIdDzNZ7JE6Mz5GdT4crKSmL3n1AobNn91yn+gBEYVQFw4l3KuB8l/Ydq+9vAdjbQy5gLRNjfBnjjFfWqBQ0rZxV/MIoxaJC0v71q4GCVbT+prQ040Aawt5EMtOEPGEr5+EtR1EVUCsiwVXENm/X+j5bzb6VA+vLtk/Rrstis/+XPDCNfiOExhFAH+QPzRkx++chVXAZDUhP2H5dfv7+dsuvwLLsNk4f4LB3rruMPGCy57zJ4w9RpGSwQG7rx0CnkTzuXybaucybfyefAYEXWnk+3TLJzmWTv43+6/Oq07VNH7938+975g7YGxEiMzp7lQCDz0qRNmKOFaoT5hpxtkiGI//Yp/oDqwxd98Nbo/8yLquGk+X7z/qi3Rv17SRz280WY5PHFe6NGOuwivnvPhEn+IJSqZyXYcf5YUOG0/+nf/Rgx4cXDN9cs36zjj0rWjhh2fCZrzcaCL8L5AibzzwUFX+2iHsniY/wRyQ71Lxqzg54tkpbeqBi1tvpwJu/0kdL3d9AizlV8OL94/gVObj3zz0UlPsWYv+SdzbWh9xkrXQr+dYQrKaN9v6Doj9PMiEvV4xYW/O9++0Z3WcMfOHy4BpzTw0er/S/CuOWOYezmugXMC3TdXwaB+SGue/Ivrp6/L5dJr6XwOBGu7oncVM9F3o94kooTjmsv0vMCHD3TGqr2L1x5mcE+57w+Ns1nRVCOCKiJ2OB9JzNg8cZ7zKZWX5gX6Tpv5qwFGw4lUcXp3iuCc0RgdYTL9lt3Ni8IzBEBFYfmO8dl+jt6pnKx211iss+tXi8FCDHvZPo7bkvmilI8V4dWsSNc3R+KgcrM23eTUvY7uUnhBuyIAEu5KM1zkc8jLlBx3HFtdGqA47aUBlGq5+rQpkl8QN6hXbHMpl8p7FjnJYer6NGrlp6iSHKDXPeXQ0BBiGtI9Ob5O7KEQMWRRWuu8LDjxamGNBNTUpbqtcQnnQfRK0rveOvf/b5+Ul4TfwBVj2/fTcRSehvIw+zCED4gvPhDw83vi3R2FmAPLck1vHJJgiH+FaOWrmdqPJOn9Bh/NKJKUJOewvjuF6DfK1pbu8Z+NhJbG5m9jWaojay/jXCoLeV1+/rB/aRDBsgG9Rf2t1ENxPhDPhjzlCjtbfl2L9V//r3s6i0UatRojBRbO8UfEDMth6DR+fh+QvO0WMeokFG+83mQuGW92EH+sPiTWlhHp9JbGZwBCWtpleWGJV1gUMx8Smu6BBQzi+lMHuHmhrMAq+Bp+I9b5jjmCUw+vDX/9hh/cET8Xfcv3Ch+pDd11/e/wFDVmUXvY2M+xowcgy0+9/ZXa+NYsBSsjlj62ds6X4g1NunaOCR/6L/4sxPoBH9URWRTvlxQONqx8M9rXH/3/A+PNpSl1Y1fWfTZtgqHDQXvHWjgMXUwUSKV6vpf3l1a+NaCshCsbwU6t7Pgbaeyaf4V0zyK31lUdTqf9u2i8gP1UhC/RMcfuv4a6NqhotGhHO6DquEraq5JYKmE57qm6/lDJIF+nhdoAh+t8gfwxHf+lkR8HLdYiLXi+5r4o1Rcl3o6yG3J8v1ZunaRc2G103keLBWnea7aV6xrsQFmmKtnqkh4eYPLuQtLJ6/YtW/fvl1BkSnpuua8qdyBIDaeBmLcXDtt64NzzbGCIx+ecVoV3QDDgpgNG+IyMe4BmSddPVPEwksuLlLhRUPMlAwDFZWyMNrgJrgv8LyadNVj9joifwgurna6wJPC4lTPVXtuBrruLwfBgmDXPSU6B7kEww8WniqQcmrGpxMc161b9dunk3Y/zQ5y3YfzR9CBlU4XeTAsuLzR7aqOPwr1bxYcSUxJ/gVn5wtcrA4X6mMERabrjmA8h/OHCEvptcSrHrPWXQfyMLuAwhjDi1+MMrxmOs55TfxheOX8C4b4Lw5/KBAFqoTQp/msmQs5A96S2QxU2fVrtNexRT8blY2NdoBt46CBoF0/yK4fNMgG1Ml+qAf2k9thWmQy24Hsga8zJ89A0rNRQKY1XjO6g/wBsXOK0001OvPTH3OafkbMOuXzypYpDaCoZc3Y1fzR/IuBwBBd0s5Jak9/5/G/r6JuF7ff+SGF4R7jjx6afwuUnV03/h+44Ni/floVUwnAsPDJ7skfjXrrX38EZRvNe+oS+7d5E5I/WhauXj/SGf6I4gsD3PNfX1YVxRIGYvzBidxVMPZgAxcGz+8ubMkf//CoXetVODaYVQpCD8KKh2+h3qwWPa3kJ5dI6CW07xaW7a61yB/C3Lp/LyhZkyzMz6X94djF/JFdWPX5FM9NQeeJng/801juf4FBZkLAwrkrt3hsXDrP5fSjM84z1wWGbJ4+f1d+2inf4NC9rkv9E3lxa6etPpNw1dtxtY+fm+OGyDKRrikl8Ecs47b/SteQA7v9TySzcHcCXpREWaFL5zm5e21ZMmfzJRpdF+vgbv+TSQ3MOzscl7v77nB0cGrJHzDTEJNF8MqUNsSuneZ8+vDxFqQAACAASURBVGyg45rQyHC3OeulMB87ciYm0HU/yLi53XG1t7+bo0vk0xxdY2/gDyD30K7YJk8PWLL3f8su6liEf2fdjO13zzjPXB8YvHn6vJDUixv/cvIJ2uH4hzPu/ygnpNkoJfW3fR2dvAO9Ai8+vql/9wZ9BYLzh+RREJ7S2eub+QMmvPiVOsNrNsC4nS/6Yf4PA3+U1hsM9eLwhxJRa9UwymfxdoRUvfMJrf/LwsFDWYNtBUP6AwP6Q/aDQLvBgN0QYMAgePAg7iBb/mB7aIA9ZDdAbDtAPGAQZ9CrVW+/T1uzCaUwUECGqDu4/otR/4sk1dFzIqHnZYIu3J39L12NF/rc2U0BS/wRnXF3boRfUnleVz2XJxZGPrqdVlOkb3u6wf+BQx6/6vHtmMs3Uir1s20hdva5vRfy+b3xdUj+0H/xZyfQKf4QScuuV3xxpKEBxPmjoeBe1UfLin8JqPxlnRn/xzdRAn4148+lhQ6XhEA9Z8Pmwr+vLP54WZHDZaGIw1myMn/Y4oojZQx9/wvR/yGFxBeOlo1ZVPiJd+WE5QX/S+hU/8vT4lLXHeElpRW0enrAwcvvfrf+wg2DP5L4dVrhD12FAHJpdVS+bjAKwKWzmp38ImYdpUE32FbEZDQAMAwKmXSu5TSLWPVso6mITbUN0EChMATNP6iELDoLW9WSl3n7XgWf8XDbYu9M88MammMa/9gTsegNoBRg1zObh47iR/DaABIyGFyzM5i4bPxdjO/WVIcADQyWQB9mso10nmDYfEpgSMBkNOCjDy29OwxL2HSGfqlz7BGmL064eZOdm+zWlB7T+MZnzb5ONx7sof6XRkQrQ+QaNagqKpQG7Cn/dsKjd95Nf3d45tvDcl5/PfeNNwteG1n22t9rX3m39pXhT195q+jVtypefrv8teGFb4549NbbBV99Lfbwkj16hEohVK5GO9r/UsioyaNUNlkcYj7OTzTV6MxOSmYZFQliwdOHcf/H0Njp67KO9OF9bmrQ0Njpv9/zwAWaaTRafX09i8XyvR5us35CVOa9rs27evN27/ovTeWwGwuV9WYh+YP40Z+RcIf4o5XsJOWxxWVs6waHQhCFIq7iNUWW8CVPaaBJ62XIXZAk/i77MR0ozqT8tKjYLd+6RzTnf+L4jzOx9/7+3fohHy1z84/8+JctU5btqqxlmOh/6L9OW/zRiim68RQr++Je/8CD14uIPdEGWzW/dd870t4Xb2/8brVYD/GHHNECiEKKwFoZgDKZ6uJiRW6O4lG64uFD5Y3biqvXlTFXVeeuqCMvqSNjVdGXlXE3VFfuq+4mK9PSFUW5ysoihENBZCKlulGt0iCqDo7/MDP/tq18qS91xEANyHolbubQ2Okvwr4ieY8Jf1TS6vKplWyh3oXQNdUK0cLd5v/omqR2VZkk+YP40Z+RcFfzR7dlOaHg6P6yj5cVjnIq/es813geadsPxfljZVzeF1M8/vbZqiEfLXvpk+XvfLP20q20ViYgtDr+o+2HdlXBIe/TNyzQQ/yhVaqUGlUjqlZrFVq5VNsIoVIQBQBUKEb5EgQEERhG4EbdX0gLQ4gUQiUQAoJamUStFqkRsQYFFGgjhKrkSg0i6yB/OMfs94o/1a4vZ6lOZML8XGFVrrAqm1fxmF2SUl/woObJ3YpHt0rTbpak3ihJ6Rv7zZLUiroqE/54LvU/2gLNduWKropM8oel8tWLx58b/uhclk6iCt/c8/itHzYO+WiZfn/9s1WW9E/1X+TZ9H90VZEk79OTFugh/kDlWq1Ko9Jq1FqVWilXKuUajQpRa1C5BsWEzjQyVCtDNXJEpUAUjYhGiWhRNYJotEpUDaFyKdIo1zZCmkZQq1ZqEI28g/xhNP7DutKrL3WWAhqNRi6XAwDA4/FYLFZ9fT2NRsMb7D72V9//QvJHVxVRkj8sFatePP7i8MeI01XLLmSPneD2yqfLcQR566vVIUevMJgcSwIMbfg/ult/DKu0oboIj+AM84M82l0wwfJDs3/cfBdz5QJlR2Z/79buO1jXjpjctlMibB16okkCnpF/e4o/ZCpUoUI0akSrRREURhBQq1VqUK0SRZWoEkEkKCJBNRCibkRUMKJVIAiqQjVqVK5FG7HLVFqVQqmUy7RqhRZRKHqCP/xvn50V5iNuhFqvCkn+6HxWFgKS+yXZZRyq3tRk/4ul3ne9ichAN1ngheIPXH/9/JUHYye46cZ/nJ7lvO8f3284du6+QqE0a2HL/o9u1x/TVTVQZejyTQ/F3DxMHcwvLKUeMpL8qtPplcUk3ycohvHz4/b6YUJljNL4S+lcWApW3b6cyoJhKVgYNOeLn1aco8PAY5+5X/641ETjy3ATovYXI/WEr+eO4+GnrxVKDFJpcFtCahdOntrt5bErvrKgSYTNWOuy8xXpc3eHnuIPtVKrVqqUCo1SjWgRAEFECCJHUK0KRRWoRovonB9qlVap0Sp1nIKgalStQRsRVI4giEqFSmUoLNco1SotojTCD7SD82/bokiHo+426ydwAKHZQqg/qNFoFAoFCIJ8Pp/FYtHpdNwFQutzW319PZ1OZ7FYfH4Xj/zoofm3bX3xni+9pP9DX46enUD38AdUXsA5fpV+5CGvVID9iMcXf7E+ywF07rFLnBxsxcqu2YnjTysrK8vKK4IOxSZn5LJYrIzskkkLgr6bvaO4kt7yu1jmj+7XH8PeXccfdxM9F/lk8IDyE45rLjLwObqY5Neep9k6vTJxnkExrDTVZ0VwjhCsCXfxvn7FzfkURZS5w2lXATaxBSwMXrYpZN2yQ4U3NzqGBDqukBprfBlkx8R67a/rCZsXBOSIJJWH5q+Oe2iQSrvPa0NIzXFbCleY6ukcWoUJjySam93TRR+3qzJJd9+nh/hDiyi1iEqNaLQarVqLiFCUh6JSBMUWkoO1iFqr625RIloFqlEgiEqDMQfWOQNgfIIiSjUqVaGwWqPUKtQYuBC3buKPWg6jmF6r1miIz2oZ1vOHQCDgcDgMBoPedzcGg8HhcB4+fbLr/oUCWlVX5U6mgLsu9mBk5h29eUn/B+n/0GeGHg50PX9IhMd3FQ+fV/ihS8m/HfNHbqy7wmha/MX6EiQqoHy+qPI0v2vgQwrDJvxBFMAWYYvowVFX0v7+3YbbSQUm9rfMH92vP4Y1z2DpnqVb7p1zdsIEu0SYgFlJrl7yaw8m/4XJj+LyXDrFjrzzBl2uNHaGj1Pg8U1rTuBLsYCFwcu9kpM9Z493WHG2MmLZCjMaX7qbFNzTa3/FXXReFc2FpcKY9S4XzzbfOygynW0qZGJGSE0HSaVMkj90pNVD/GGSg7v2327iD7xqaDOpWq1WqVRKpVKRSMTlcjkcDqvvbhwOh8vl+t2IJOffWt9ytBKT9H+0Wb56PkJX84e04kbFuwtKNjySSGAYYHH3nGMm0pv5A5LcjauZ7lnmsJNyuhyUwuDN89VbEsUALH18o3bVNYFUJIw4Xvmbd5XbqaqPe5A/8PEfecWU98a7hUbcJaqQWeaP7tYfg6rPezptcZs/Y0s8g3HT29HZR6cOViahRjVLfu0ywx8l9bf9VroGH9ztdzKZA4PFe37/ZEWzdLqOP9KFRTvnrYvn8SKXrTCj8aXjj8I0g/YXQ6fh5ePn6OB8pdYgldaAQ0/rQmo4f3AwEbaoLCMljy4jy1YqnGft1IvFHwNcJn8StKxd36DN6g9BELVaLZPJQBAUiUQCgYDP5/P64sbn8wUCgUgkyqkpjXx0u5xJbZcl24xMNDXp/yD9H8T80JPhruYP6OLewje31Rc2S2ZhBaFp8Vt+aXzFP5eVud1k7dpdPHx1bTxXvyguLrLOzospG76sfMtN1t4DJSMW9Jz/Qz/+lMkRfjvLd/X2SLW6yRPcCn/oyni36o9BXAa9SaSLKNgFEyW/zDbkIiZdpwMGcLN3Lt36sFltzFx/RwuNr6Yb6o9zs27fq+TTE7ct9snEFNUsy4VhBjF/1qw4mNmU9+WDLxZ/fL3HeVaYT5sNITGCNRWfVqtVqVQymQyGYQiCwL67QRAEw7BMJiOaqKvCRFOT/EHyBzE/9GS4y/kj/nDRm67UdOICT038wTu3s2BUKIcPw0AtfeKC4q0FJvzBOruz4P2DDQIY7uH+Fz1/6OYMyqcs37PBr2kJ3Lb445luL4HCSwfOZDCILGgOQdqo09jZF/b6Bxy6Xth13WFtPLEDiXweLnmx+KM75t+iKIogiEajUavVSqVSodvkfXHDX02pVKrV6u4oLcQ2huQPkj+I+aEnw13NHzD7Sd1n8wsnhrPTKeInyZQp7tXHy3HO4CeGFQ/fRE3iQeX3qsYuqjhIkRzbUfDRES5bIjq4o3BUKPvW0afDt1BT+VD1g+qxC3vB/4FbHpTKvp3luyfsVhvzb5+HNq876i7ynh2zAMkfFmk9Oish4E6UVCGzsu5DdJu2r2/4a3Yst1m6CoQgrlgoVxnm+5H8QfKHleWuy6N1OX9IYfDJrZofluX/bW7+3+YX/XycUypp8nOA9AbXLYVvzs8ftuDpjMuCBliadq50+Nz8txyLx63DXCPCSsaMVfmvzy/496aSUb3HHyiKcviS9392u5ta9Fz7PyxVQeTxXrEAyR8W+cPK+bddXv09Fzfs2sxKzr+tqampra2l0WhsNlssFstkMpI/eqsgdAN/6CoZAKyqFVVyW6zSAkF1daJKnrS5TEE0KvFfWCoCyuotrwLTUZdD6/NfiP0v+g+RXVT7j+9dWuMPK/THml/TfMULlEUfiqttLQ5YfsTxj0VOziuXrNqdxG4tpjWWAUuOBEa08lCdUJikNPpwLD5fxpp7knGstgDJH+aLgRSGE0qzz2XelykV+uJHBnALMMS8+yXZVK5uyWmrs1orNQWVy/p+33rPG6f0Fib9HyR/6DNDDwe6iz+6oqS0Uojae6oD/IGi6K4TNy3zh7H+WGZlcfwBXy/PkEslLYW5QOqD8ydPhGz32nujUkKU9qI+vJ7CAg0CX/k1D5plu2p06IbPWAFgKePE/xZFSw3yXxBVpzwWl5EaEeTjGxKVyYYNGmUANeFCWNju7R67blRDotLmhEnBvEDX/SD20Prc8wFenp6e2yOzeGXXD+zw8gyJK8rVCYXFpiXEJ7MId4MgqkmqnrGP297M0FvxSf6wyB/4J+nhuu+5eNyehzHk/NsuKbHk/NtnMMOT/CESicz6P/5/YWq5QmWZP4z1x2CgMvP23aSU/U5ugKkw12XsyLYULlgb4bg8olYv7XVbN4W1iCjw9VgXEZftAnWKYYHTfl27w89j+YxlYYVpBvmvO5k65TFe7Jp5+3IZ9Lo6ZppBo+x8qr/jtmSuKMVzdWiVWJ8wnD/webNSGBZm712++RrVIDV2m4MJdQgwfbOiFMPdLjJyTVJF8keHLPBi8cc3e9fOCd/RrpbjGawfez1JyVUF62IPPq4ubpcl24xMfC/S/0H6P4j5oSfDJH+0wh+tjj811h/jJrgv8LyadNVj9rqWwhj4ERAGHnuvDIjcssDzWuJVj1nrruuOFxIEvuIe43pimLZpaZNi6RLX62U1lAZACgsvGOS/UtJ1MaUgJeV0sNuS5ftTow0aZXtuBrruL4PA/BDXPYWYlBieMCP+4Cb5LvV9yIWJEmQG/ii8YLibTvEMUznTp6pDrW+bVWKfj9DL/KFSqXJzc7Oysurr6xVKJYKgCqWyvr4+KysrNzdXpVJZU+9Yrz9m5zLp46Cl7fqo1iTgBYzTLhtaGZloRpI/SP4g5oeeDJP80VH+MNYfi7zs77gmNDLcbc56c/wRMHeOR1DAxnlLQjMJ0l54TILAlzn+WO6ln8zMMMh/sXAVdsGjcJ/gA3tdl/o9qDNolBXnGPijKC2wOWEE/ihK2jxu3Hx3T5/T6ckGqTEeJhR25qKf6/7SesPdysQExXcdFZH80SEL9Bp/aLXazMxMPp+vRbQKvoB76z714Mm6oFDqwZPcWwkKvlCLaPl8fmZmplarbb32sZ4/tFotCLUY/9Wq4Vp/9At71kqkaFc0ojFJ/iD5g5gfejJM8keH+UNX3on6Y+x6pnmlLx1nlHGYLKGu+tVLe+E1hqnAV6tVdEuBLyGTovOOYIvFCJiMZr0yQlc7YDFheAII6SEKhVm4W+vJI89atkDv8AeXyy0rK0MQrSAlI3/qguQhf0+2H5k86B18T7IfmTT0H/nTFgpSHyGItqys7P81v1upgKznj3bpf2TWlNwqeqwgTAptJQ0v2ql2gYWVkYk2JPmD5A9ifujJMMkfneMPQjNvueGRsnLS83kWawZS4KsV0/WhU73AH3Q6ncvlKiXA08VrkuzfSbJvwg49fzQFdKeeOq5TAiCXy6XTzazEiNdK3cQf5PzbVip9ixVHh8pGXQNzrN+itbEH9E8k+YPkD31m6OEAzh+L79cn1An78B6QxR5xusrlXiW+maw/Z2n8aavjP6wjjw5VEV1b4ZB3e0Ys0NP8IRQK2Wy2jMXJ/HwCBh/NPg9T+NAdTxr0TpL9yMwvJsrYXDabLRQKzdZE3cQfJ1Lj3S4fBWWw2Ye+yAeVahVXLJSAYFdl4mp2/WA3h7mRfnqrkvxB8oc+M/Rw4GotMOJ01QuyuyeQ/EFiU69ZoKf5o7CwUAVCmV9N1gOHzgWCdbg8/vTHnJ+nPxn3W8rrY/CD+jhZX/+igqSFhYVma6Ju4g+8cTX7xBf8IDn/tqvAi5x/+wwWJVilPVYsDM7lB+fyA7O5flls7wy6RwrF/WHN5gdVmxOqNiVU9o3dPaHycTHJH73W+nZVNfL83qdH+SM3NxdBkFLnzUnNoz2S7Ec++uAb+pmLCrFEi+uXI4haruDcvJ817jf9oJAk+5Gla7ZoESQ3N7dlhWU9f6yNPeB9I6JdX6vl48gjF3MTv9+3/s7TzHZZss3IRMOS/g/S/0HMD70Vxpe2FolELBaLSqXW1NRU9d2tpqaGSqWyWCyRSNSKAm94suJ0qpwtgMmdtEAnLRCerDibCldWVhK7/4RCoaXuPxsrK4KCgoJTuo3H4+kvodFo4tyCxOY+lyT7kYVzV6ggKb5+m7SOKs7JhxksrRZDEY1SWbZum4FUBr0rzi+i0Wj6u+kD1vMHOf9Wb7ROBtqEiQ5EICaJ5A+SP4j5obfCGo1GJpOJxWIOh0Oj0Wpra2tqaqr74qZfAYDD4eArAGg0GrNmD0+WhycryJ20QJdYIKpn+KOsrEyr1T6d79SEFPbv5IyfplEotFqEc/Pe409/xEd7JA1658kPUyT5TzFviEZTMGsp7gVJsh/5dKGzVotNhzEpFdbzR159VU5dWbuaRpNnkf/iFmiXDa2MTLQtyR8kfxDzQ2+FNRqNQqEAQZDH4zGZTBqNRu27G41GYzKZPB4PBEGFQmGJP8pZmpQyVVKp8uFT2caDj+PSeDezxTeeiG5kCcmdtEB7LZBRyMRdijU1NRQKBXe/db3/49GjR0oATH5lFD6qI2nQSElhiRZBGNGXkgZj40zxHT+bMuxfYHkVgiAQjZ409B9NA0FeHa0CoUePHplURtbzR7vm3zaIBEwBt031EZPEvCD/WokU7YpGNB3OH975Z+7SnvThfWjs9E+ur6yurtb/+iTXnyNmg14Pa7VapVIJw7BYLObxeJz/Y+884KI43v9vizXRFGMs+SYkMcZoiim/NFPUmNhbjLGgWCmKAioKSG9WimJQqgJSRFFQlKI0qQocSIdrXO9t75YOx/+/t9yywB3cwYEGdl/7grm92dnZz87OvO+ZmWdYLObw3VgsFpfLFYlEIAg2NTX1XvXBlqFNB876hcUPb8vQcLR2vXT31LMCVIm//e9/qays5CamIP0pT39e09bW1igUpb/9ScqE2RXmp4R5BUVbD8ARUibMKdq8t00ub5O3Fa7Z3oEsE2bzktMqKyu71UqDxB/Y/NtuOqM/agUWfUamcFlbAh09Um4ilzhVfH1K1PqRsH8dZ4LxB/LcX8IAbAIBQVAikYjFYpFIJByOm0gkEovFEokEBMFejB/IA2ptbW1oaHD0jLRwDKDRaLW1tSRswxQYgAK1tbU0Go3D4UgkkoaGBh3zh1gsJnteQfij6qSzXC6nh0alTJgNs4hc3i4pq0IipL7+YVtLi1wur3E4C/sISZkwm+ztJxaLkXcADgwSf1jGXPnNy1wgk3S7HPZRKzNSn/AhA8FqBmWU6ZL1fqcQbVn1AtfSCNvi66dw16wKAi3z/MyzLh/JuGSa7n0ozWs47TdxSRh/IM/9JQzAo9Oam5sbGxvrh/vW2NjY3Nzc2toql8t7fxawZcjn2oP9J/7lcCD/CAxswxQYgAJMJpPD4QgEAplMps781n/7R1tbW42Nq9KSMafW6yrEFnanUyfOwTuehUZ7tLeLnuEQ/kiZMLtZAsjl7bUoaqmxde9pFRwk/oAbzt5fwpH5bWD2g48d9WMK0zVhC03iiABJIbmKLuL11BM9AJBCoRCJRHgMIH54bQQCgUgkUiiUPkf/9ZQIOzIECsjl8ra2ttbhvsFj/zXRUy6Xt7S0BN1M2XPsskQigc1CAmzDFOiXAkKhUCQSSSQSmUzW0NDQojA99CyHOuMPvPP5NrmcdP5yCsQf5xRzb+Vk7yuIO9SUV99rbW6Wy+V4+zOIm7IB8kdQzoMbecmatIhInJ4SYEe8Um9NslgRlpuEqKSTgEphYTOvWCxms9lUKpVEIsEIQhheG5FIJJFIVCqVzWaLxWJ15keVEmEHMQVeiAJyuTzszpPdx30bGhrq6+vrsA1TYAAK1NfXNzQ0NDU19WJ+6z9/dOt/KVi1ta1NLsaVPJ4wG7dhJ/TzQi4vWLGlY6jpxDm5/7ccPli0eY/SajLQ/hcdzr+9S8v2wz8Y9nsAPoFTL+pZu+kEOLol0vMq7e3t6AkIDAaDSqVSKJTaYbdRKBQqlcpgMPqcfaBSJewgpsALUSAwKvWQXRBsFWrBNkyBASgAl6LeLXD95w/F+NPUzu6Vyf8DqvFyeVvByn/KDlhA1ry6+pSpHyhRYw7x/GW5XN4sA9Onz1MeHOj4U/+s+6E5id2avd4/qnyrKyXUkTA0Er7H7Vmne4rQu2j9+7bnVdrb27tNQGCz2cNyDgKLxWKz2ZrPPlCpFXYQU2CIFfAOTjhxOmKIL4pdbsQq0H/+6Db/NnXCnKe/rG0US3K+XkYNCodRI2Xah6nwmi9fL2uSgXK5nHzRD0GW1KGdfws3oiqf9FN+1ZSo9dNv/R1Q+WAY7+7FEVOi1m/KcO4pQv8Io/ezel6lvb0dHv3X2NgIgiAAAGLFBATRcNzEYjEAAMjsgz4HAKqUCzuIKTCUChywCgi+lTGUV8SuNZIV6D9/dPc/BnHGnCfvffl40hygogoe/8GKSyj6a3e1tUujQCSXy4GKmjSU8WPg/se0mrhhEOKuZ7+NK1XR+wDzx+G8y703qP/1b8lC5tDwB0vIO5MYHlfS3bML/KbBCNLU1NTY2Aj3NA/LWQgNDQ2NjY29d3+O5KoHu/eXUIFv1p0qrqC8hBnDsjQsFeg/f7S3tyv9r7+LDPJInTgnfeaCthZouhcrPlkxCARCkTa5nJ+Z+0Tvq87hqLrwv64Vf2zyt5t6fDUbEPZ8kCOLP9Kd2lAbTIq6Raue82+7aQ4Via6zDwbQz/jSnYqeVNF792c3WbCPmAIvUAEZ2PDmIsOmppYXmAfs0iNKgQHxh8r15wrX6be1yZskQMqr7xes2EI654N39Sz4829ozgtqmTqdrD+nFX/ATazKpzui+GNDmmODYmtUbE1NTbHFmVsCHVMqCnRFIVyRICgrPgNfrFJt7CCmAKbAS6hATmHNz1tUdM6+hFnFsjQ8FBgQf7S3txcVFTVLZbnf/K4cUjqL4Oohl7dzElPhSbZoL+yImSTn2+XNUllRUZFKETX3/1FEwxeQqrRqNVVesZ/8IXoefP9aKAHomQGAVxqWfOMiLi8qMTScpCJCz1OG4Ajc/7IuxR5QblKpFARBt4eho0yXhOQk6DYPaKmbWpszuWVp7OfDfpc216FvHAu/cAXkcnkBtz6TCQ77/Rmnrq0vP2M9H4e0Xs4QtjGEbV43cmwvJcFh7C+mQP8UaGzuw9MdugQOlD8EAgGTyaxnsnO+WqpAjTn061FyubzSwhahDSQAr0iX89XSeibkX08gEKCzgoQ15w9dzb/tH38AnFvLzJavyRR0b7alzKCr66a5nbLOjtlpvWZTTo8IINj9lCE5AvPHmkenuIqNx+Px+XyhUFjLpheSq5gCnm5zhTzQ9vb2S1WxI2SG0fLHVugbx8IvXIEMBjgruHqE7Jeeq65Ue3kKNzKx9W+x5X91psDtp029FLZuXw2UP9rb26lUKofDaRJLnu86lDJhDv16ZKMESHtnAYIdHYEJ0ADV57sONYkBDodDpVK7ZQX5qDl/GEV62MT6a9VqIldBBwbIH7RCv7/C/OzCT/5w9sjWpPy0FMeFlsvedLW0zk80UPAHrdBvc2R8iRQUVkXtDA5PlYASVq57iOVP5478HZteAYBdU8CxQaAKF7z9osm3HtammeUcECCUhBn4mH7n6WBTQBaDnJi79vvuBh8MCtbq3mH+WJVkgzjVZbFYHA5HKBRqlY6GkdEKw+vP/Zx49ER+wDDep0St/+rBQfSNY+EXrkBUjWRWcPUHITX22YxhvP8ZS5oVXO34lKut4PCq65mV9diOKTBABQJSG29kNcIj8gbX/we6lHM4nPLycrm8jZ+exU19UuPi0TnJVjH/NmXKe4XrdvDTs+TytvLycg6Hgz69W1hz/nix4z+U9g8ePtls/NG9+gmx54J2jrdy8y0IXmH7+3v/XgmpfKTgDyjCJBffDADk57u+fcLxhpBwwWvt+36RMUWxBq7rlyTju6bgfpMY+evxdd9HRF1NumSSUFBbG/Wb5daNSen30t0X5T5TMwAAIABJREFUnLS4QCF7eC2f5GhzPPmJhigAR+vgj0RrqnKj0WgsFovP52uVjoaR0Y8V5o9kSr6G5/5Ho70VvXnRg4PY+FP0o3/hYZg/rhZz/qOFSsNsp5AFs4KrHfLYyHhsTRqA9vb2gNTG208bNLwKFg1ToBcFwjIbwjIbYKepg+v/tFu10tbWlpOTw+Px2uTyBh6fcz+R7H2V6OpJ9r7KuZ/UyBO0ydt4PF5OTk7PBV+6JTVI/OEUf32Tn52oTtrtcu3t7QOzf/TAC0GF7ekV396vkojTVfMHN36txfJZpy2WXrT41m7lZN973QAlMN16spVbtLijm4aTaT3JbPMib4ul3kbvH12x9km1h9eKT2OKxFr22sD8sTLRulaxIT46eTwd97wIJOLE0qflLDIi9cjhjy/jTeDpxPD8Ww1X/0KEwgI6V6B//MErZ56JpHhkCIXQWyajFzNOR1K8s0UStS+dNPsR9WqBBFAbQdnryuP7hVIfMGS91OP9+ArmD9tsBuIyW5MGAOOPfkiNnaJOAYg/ntQLBIJBX/9FZTXR3Nycn5+fm5tLoVAam5rk8vbGpiYKhZKbm5ufn9/c3KzyrG4HB4k/Vly2HGW6hCVR0T862PxBeGQ+8ZT7Lb4Il2g+1dLxBj/XyO7PL26m59dWPy1/lsFgd+OPazgPPfN9FmVsMaf4EZEnKPF433zfkcIKXG35o7KiKm7tgPgjwYqs2GpraykUCuwjXF156t/xnvNvRw5/fHHfWKTYBuJ/rK6uTjlEeHj+b2rSopO4W/2g7cd+8YesNr5yxpbCtwwJsQJQJhX5OODe2FI4/zJHoA4vpOLLDrjvQ/jqfhWIq2mbLWqC6TKAyjpkV+NTMyj8YZVBESg2DRsAjD/6V8VhZ6lUICyzITSjHu7fH9z1b7WtBTSPP0j8QWDRSqiEltbWnjkZZP4QCCuuLDRfMtZszYfO2yZbOt4QAxW5Zz+zXDXD7u83T5q6EMTd+OOGkBwWtnfakd/HHfnjvaCHeAn08fVjG98/tW66R8hTMVW3/JFUlHMmMRxXW62ySPXjIJ3PORTlHZTzAJF65PDH53GGLMXGZrN5PJ5IJAJBsLm5uU+zH6JVXV2dv79/xPDdAgMD79y5g9zvYAf6zx//4N7dVbzjsURYRfl1O+7dnRB/cKhcT9/q1dblazwpD+gyGZfjdIHoFEXaF8mC+UPA4rp71ViniWRSyaMYwl+25as9KHFEvs/Z0ve3Fi92pyTROE4XSGFkyb0bNYdvUMzdK5ba4y+VSmUgkH2fsMGmYmsAxf5SjXu+VKtXD7Z/HE8hIaO74AYAGt2lfgF0jD+0EhmL3LsCYZkNIRl1JMVWW1tLo9E4HI5EIlG3AKcOxp/qvPoYJP6AhVOZ2/7xR+9Potu3fA6hkM5B/zYCRPTntWSaRGmV7f67Ssph43F0tsL8C8pA6GMRXf3Pr+6nq0i2o/+lh/3D/m7AYM+/HTn88VnsAdiw1O/15wAAiIiI6FZ+htNHGo12+/Zt2PHdELil7z9/bK809Hj+P0daZEDJzGP4vccU/FHFcIhkxuYwTMxxXwXw+HT6mu24b86QfXJ5EH8EMT2diuc6UJ8KZWVxlXoHay7lcIN9yj5yqA0MrZy/rWRbOCufQl+jX2pXAtlL5hwjeCbS9h/BzfPhiMtrf9pevCqYHhhd890O3N+J2s3bh/nDIhkP1/4kEgndADQ2Nraq+ukll8ux8R/D6eV6sfcC8Uc6WFNTg8fjCQRCbW0tk8kUiUT19fUqi99/mz9eOfL7Qtc9Win+ovhDq0wOUmR1/JFZjgvKiq+gk3V7XbTUI4c/FsYeIBAIRCKRRCJRqVQ2my0Wi9XhP1oiJDxC+KMFtbW2tg6eo9gB8Ed14FPS19uLPjAoWnOH42RZOP8yuzyD+Ov+4i9PVq44jPvQi82lK2CiVCZT9L+8u7toxvZyd6hvRRp6GveOYfk6p8p1ViVz9KuDC2t/0K/wosgA+BQFfyj6a6R3LhZ/4MniJFfP3Ie/IwZlYq6ZST/5wyyxukaxadgA3H74tBf+4D/1P3rA0HCPwRG/p3yVv3CA8rBLN1H1BlBy2SWA0MVyI3jo6pKAnmEnwj1OI0p7/ECSUm+f9clR+3usR3yV+UEdFBY9TiV15ERSetk5kIDKp5rUgFIfl0BUNDVZRV0FFVlNmhpElpSHXbypJntSwjV3vxKg/4nrJIcaJgLzR7Viw+MhFGYwGEKhsK6urqVFhV/d/zZ/fHvOaJOfnYbSwNGQWh4dGAL7h1aZHKTI6viDy+UOxhXRCo8k/tgPV/1EIpFCobBYrF7wHy0REh4J/BEdHQ0qNmSofGMjNG1P814qRK4+AwPhjxCewNmy8M091SEMgQvEH6ygM7iPvdkcELhxtqgnf7xnRThoU/SxG6MMkCb7lcw8Tr5XI3xexUstFVNLa3/cUX6WoJY/BPnEz7eXmqQKCvNrVxn0nz/g2r+6uhqPx5PJZLgBqK+v79kAsLiiD3+1UM8fooQjG2xyRTJQQCIxAG7BDXdraye/VKpUBvJwUWdsbJz9U4uSYtNkwvK7Xg421u43S/n5rmYeFXCrL6U98bezdvA8aWAWwyyL9bK3sXaPLpUU39i5+Fez6CLkCFz5ANU+pnYZQh4u6ryT45mQHCbc4kqp6VftrB3/DQiOKZIg1RRATr5x9Yr7KZvzcVViEOQUhLtbWzv6pVGkjCeBrrYO7iFZmWE7F/9iFl2maLklBVC2ZEjitPK70ZlsEJRUx0enEwtvnnd0OhOSy5QBBS5mHshVVGVVdX46BUknlCjvVCYlJ93w9XW3tvW7Hel5ysYntUu2O0UTAeRHd9MYAC39ir21g29A8J1CfHL4Vf+zNlZnYvGSck+TU5md945k7yUMhGU2XE8Hq6qqqqshDob5QyAQDE/+eLHzb1/Cx997ljD+6F2fgX/7VvTmhXf3qzQ/9qz91TWcI4E/bt68KVBuQqFQLBZLpVK4jdR5j8yA+EMoK79b+ZUPmw3A/MHGJVR/uqdkuXPV8kMq7B/fh/B5NbQ1u4tWRAskFNbhY0X/21+yYE/xilsCIYu1a3/h9J2VPuU0pP8Fbf+QSUXhl8vn6hcttK1ashf3d1J/+l+OJFTBG7oBUPkDtLGp+betLmev3lfPHyC/IMhs68ZN2494p9SkWuvbZnHFlVcMDkZQnpzaZZfJkdIqytOdzTxkkurs+IeP0zwMLeI6+UP02HKbQ65AUumjb3KbU5UT/zAFiiED2YFmlo9EEtQRCDX4kUaG4awMu32uz4QSfOBh20RoqK8o+dh2l2dCSeXFbUa3Ox05SgqcDU6mcQBCoMHewJoMa327TK6k4oqByfVg420X8ulUAonLCjSzfCwSC3lcnkgI8UcJKvHYW0dN/EmiHCdj9xun9rk9EwD4gCO2Cbwu/KEiq2ryI0YEqaJWIHcKFDgZWKdzqj127I+mM0ONTbtkm4CIFq/Ao+KkY9udnwnFVRe3Gd/MVtyfIN3ayLOan3J8vxe+73lVGhhaBl7F9Z4Cxh9q7VRhuUnOD0JkjfU96/3+2T+41Q8c44Lc8ioVQzSk1PJYh7igswUE9TP0QHZ1vFNKLqGn7bF70eGmpV5xw9F6f9jafjtk/AFIpRyRoKG5c47DCLJ/YPzRvTB3fyVpNFpkZCRdsTEYDCaTyWaz+Xy+VCptbGzUuQmkX/zRPc+od03GZYrKmV26GFDfdj1RKiWRRNXcjshinvh5LaAc0dU1JgjKpOLYh8xsqqQkh/SLfolFoWaXUKoNj//QkD/a2tr2nvDbduRy7+M/JADEQADtnsm6o84HDG9wQZkow/rABVyEsWG4wmiqMBgIkyy3W995HGO16dDtTv7ghRsaRnBBkH/L3CLqvuV265iUGKu/DnU06hzoHOURSApO0H7DGEb47t/3nblw4cIZ16AnHBCUCSIND4SxITo5fLgLf0D2DACUZNvud396w8gwnAOCQihrpcT0YFeLXXs9ciH+SCY+uuJod/pmwTNXM48idOKMTAcj94ATpv7lyFG3oAyWKv5AZ1VNfviRSkFEqPtSiFMO0K+aWaeJBNFHjsBmGDjbzkHHlaLdVRwvijA6EMaBbtn0yM1shRlJgnM3O1cmyLPf54brpVlRW/yUZWPIImD80eOtVj4DXc+/lZJTjr5iumSMjfstISiTki54rRhlumxWSIbaGXqgFJnnorpAAOWnL+/+O50KSGuvhx7emFyhOpryjrT9dsj4YyTPv8XsH30WSxqNFhERQVRsJBKJTCbDA2W07ajq+UNC5RFd84faGqbPG+8jgoB/2aN8wZ4iPcOyf25wVIyQ6PXF15w/5HL5qQs3l2xzratv7HX+iyjHc/c/hpY2x3f9dexmUZytgbGdo4XB4aByCT3ezsDolIuN8417TmYe4ixXAxPPoACLv0xR/CElRZn/Y2jn6mCwyuhmigscY7OpDORFHVxnFHwddQSSVJh8zPBfEiXeab+Zu9dZpyupjOfXzlwvozxwMNhrae9gsMLwNldxBEIiSYHzls1Wrs7mW3d5PhPR7tkaGNk5WRgcCcJl+Nu7eZ432+30mHvz4DrjkFwhlDjc8NM6E2fLgNJzq780usWU0eMd95u5eZ91vJrKgojhfJG/zaWncH9Hz6zSO/Nz86mfjU/HM0UECYt2Qu5UBX90ZjsnAxEN5o8KmiJpO0eDFUZd+IN129QohNlH4em1bAzZuRh/qK0dksqehuYk1jdBr1y3rV/2DwV/HF756tH1G7KYQkLgIrOVrx5V8AdQG59wbq2nyf95OdrhqAAv3dr/rPU9r633sjv4Q8K4d895c3RimYSWkOD+5wWTXwICbtMFmcmn5h9fNt3Nyv45Jeauw8EsQg+/7CCjKnr3pYOLfb1sYtz+upejVcFSxx9F+IrE0qdkDkOr1HqJTOYwfrpgah3nj+iM2T+w/hekwNBotPDwcHiYJNxXBQ9TEAgEIAi2tLTotgvmP8MfA2tCNOSPpqYWU/tr322wE4hl8OvZS/+LDATFbBKRJoCN/4CATuUoe4WkAhqNg/woFzOpNEVLjzxlRUDCpjM77D0SJoWuHIUqZFDZgAx9BDJ1JNuY+UO2YSGDwhRBdhcBjw9yc+ITKnm0Ryd32uZIFEcQnihn0RnKH3tSPp3GhgdpCulEElsx01BIp7GRHHZkTJl413wK6VRlPkEpKT7kLl5pfOqeVVR+svDxIbGd6SCCdLsv1GNVYFBntruJxsmNT6jiUR+f3GmXg5opyb130jykVpkfVGqdl35pDmL8oZY/4KeFtIjoQP/5w8xiR8Dm17zDQ6N2THRz+sdtOWT/AMr/vRPoV5DuG2Iw0cE7gRb1q9mKj6/4XsBBftYnuVwKTDj69klzdzy3JNn8dTvb84VZV0J2T/eOSMj3W2bz+4dX/G8QSAoPH4Xd/LLfEjy3cls+3fOSd1rI385/TriMKv0aFEF1/IHNv9XVm4yN/9BESZg/0MMUiEQinU7n8/kYf2gioMo4mvCHQCxbYXBm88GLUrCzG7p3/lB5rcE5KCXn5VX2mOjBeBpx3snF+24xF13FMZ49KRyUUfN93prq/KDz1ku492wzn4afd3K+eLeIh2rFpLS83HIUjqC+6uVCL+irkcUf358/uDnAoc8Sg46Axg4kPAD+sPq3yHuu2do3j6/6NTHd+jTEHzzmI8PTG6fbGy69sGPyCedwatSvFruPVwEyRf/L+KNrp5kt//pehRgUBPquGG9zYMlFiyVnt06xsA7gFZ9wXbE4kQRIYQ9jEH90WTiGc2+1+fod+SIZKH5w459JOuKPmKeph6K8s2tK0EINPIzI297ejtk/MPsHUqLQ/AEPlScSiTQaDeMPRKJ+BPrkj7Jq6sI/T5y6cLO1tQ39br40/PFSt6z9eCIj8JSRxR/jjixb4Lpbq8eMfvGQ8ED4I4BfauP++2hLmwBWmY2CP6iZNpOtXCKFID3r1LSe/HHceHfIwWlWJy5RBA8jtk50vxRDrMYR8pOrahni5ydc//y/+GqxOv7g5xjaLf84JCGHmG3juUZX9g9s/q1WRaiXyJj9oxdxkK+GBX9IK3As3xiqzyNuGR9yDwgv/oLcY58BCZXzbzTrmXKNpz7j9xmhJ3/EJ2c9L62A3KEy2XYeN+f8YBp6JxOp9JAAxh99aotF0FCBkcUfbW1tgFS7jjHkrUMHBsQfIqA00eyj66ksoBzmDy717rpTaz84f2zl+W0Te/AHZM8QVZ71WjvtwvVMctI+t7WvWW2dc2LD4gflYinjmv/GMUdWLksuRvpfutg/xEBp9ulFJ1e8amu6/Oz6iZfjNCwWcDR1/S8Yf2glYy+Rh5Q/pIzcEAdj/a3bD1j7ppC693NrYYDlPnTafiqW3nFfguIoZ+MdW3cYWvsmE3vxOgAU+e39yzmli1sqoCrs6D7PLKjzvpd9sPmjksAoq6EhL7jux3+IBb5nSmZuLZp/pPRzg8LZ5sTbtI7FX3q5625fCXGkRfpVwWhLe6+idTu950c0f+Q+w2095Dn50z2ht5LP+sZ8+IvZDjMfCp2LaIIOqOcPoNxn24azTwUgCJCCTro+Qc/cQXv36pkZ1BEVHslQ3/YoJ6KiR2mkjrmm3Z2b9YisTjF0IuriaHtc+NDFNUEx3ETLO+pxIdgZmor5tIpsi3rxRdaRFFAWdikK7eSt5/0qHKkpLlTdPXKP/PT2OLSM/IL5o62tjUajXbt2zcTEZOXKlUuWLFm5cqWJicm1a9doNJqGM+sGyf96Dr70fnF2I2pSKPIS9os/ensZABG9hErv0mGp7kFKBURKTSVP3FEIAE5lLZGi1gkgUFFwJ7iKTKhNN3VfoReRq1XRwfhDK7n6EXkI+YOXavPNtDe/3GxufXznD+9M+fjAHTyLxuADoEzEoTGFAAgK2DQ6l02ncwSMitzcMhrcsw6wqwryyxkdYMEl4vIrq33+fO1XD4KiQhSlH1/46vzN1k5Wu5cuWnepVAKCEnZ1/tMSsnJ0oYRenpNVQBRIyYkX3aKgCACPVJib+5wqkknybBbN2nmr00+DSg0Hmz9CYp5M/nTPwj9PeAcnsHkSXfOHrDKu8t3tpYezxGIQlDA450Lpj6lK/pCKH97Er7cuX3GaFFwByEDg3o2a449FElCWHUc4cIcvEwoCfav+tK228K9eMAj8YRpfbnc+7K2vDKd9vn/a5/ve/PLA+v3nUjKL1DmA6nX+C4Bz2/zLsg02KRwJ3muvRXKnczBaMeTd68jVoFsZLFCQExGVL5FSHsckkdn5kCcwp6tpVEBKTooK9L8YpZiRC7DzIm9kQZM4AHJymO8VN2u7q7ejPE/ZXEplyECe0gMYrUjhnCzySWJkYIB3VGpybBrKtReNmhnoYufgHpLLUFSnkDsvP/+zp6zOxOFR7tHEcCI3y+GhskpXaek0FuKmTKzG/1hHnqM7PZUxQYD+xM/e2t4LcqOmoG0g38X4oIe7jY1HfFUJyo+Zmrvr9DMmICdHBQZcjIxxNvOokHDyIsKzGIhLNCagvPeku2k0cqf/MSnKLxm85rmU/Cg2lUZOCvfzg27+TlIY5NHtZjnAxd087wR5UmMopt4ohruWQZEZXdymdUaTIonE1UhBbhHkVM4pIJ0qRZ6IdvNuXgx/tCm2goKCjRs3TpgwYZSqbeLEiZs2bSosLGxpaVHpCh6hgUHiD13Pv+2NP1RWu7o4yM9Idvjq1Nqplps/+9fvLks728+Q8QeRTf/YUf9glBfyTEfO+I8FMfv+b50NvH+3/tT3G21/3GS/eLPjz387/bzFWZN9pYFb3+u/8CK3Tn99jR/8S5F922DOlGXHjy+ctfMWG+fy3cT3jR5wcq2/mLnlzPFFr82e//VnetMmLjieLmMmWf/0wbwff1k49werRDopau/HU6d/9NmiuW9PUPKHMMFYb/ysH3dZed5Ix/NBkPbw5HfvzPho/pzpc//xLwXoiSe/nf7Whwven/Wzc4Q1xBp8WoTBF58t/uXzmW8vds3K1pA/Tp+7+PWKwx37yiPfrDL/vzXHvl9/8sdNtos3OyzWWCuVes5fbvnWV4aTP90z9bN9kz/d8/UWtxnns68Wc3TxAkJdLRHni94+SSlCe/HpWPyWVxZb+f6ecot7jDNnS2YaE2I5yKK4sJN1ZkFk+cw9FcfvMc57lc7armP7xzs+hXPXO07+dM9rC/e9/sX+yZ/uWa7v0rsD7D74w32vdcL9Y5vM7uZ77rVIeIxyDlYLefei37IwiyDF2aze5PiYGHTYMvaRtb5dFkdS6WtwMJxW4LTTPIEuznc1c73tZWx+vUTxswrywWWdwYacct2iMUONTG+Jn9h1egCjQOnyCpx3mifQxJA3DpRrL1KECeRcjEIkQa5BFLNwDU6msYXp1sbnoq063aMxIA9nj2FrTefpJQ+sEDdlEYRYNf7HFHkWoTyV3X9ouc0+TyCu8tE/eLuDPyDnYFwJMXiv4dVQC2M/kijbwfAMrmNicLe76+KcDbotuqjA1czttqeJ+fVSAepCiQJFtnmQq7TS/E7/Y6WJnX7JlBlQRHEyOJnKEaZZG3sWBkD3K3liu8/tmRCoCTxy6kGOi5mHgj9KIf6DfJsp3bjdfISO1plIebrNLrsnXCm1soqSjnoiyh8emrw+Q80f8CJS/3+58KNHj77yyiuqwKPj2GjF9sorrxw9erSurg4+EWmf0IFB4o8r6bEWty4D9SD6WnBY5/YPTR7V0MdRxx90FpMjEogVvoZ0kqsaJmWSxYotQY6I1COIP+7suxOffudBxt2HGfeSshNSn6ZmF2fnV+YV4QtKSJrs2c/K+uYPuu+fk94zfABPaJQ8s1006Vu75MPz5hoHOPz88fz5CwwDnBbP2BT4yGbRjC1hbKDE7YfX1gXSAtZOe2/dqUuX3bd9+vq6ix4rX1t4IlMoJXsve1XJH9CvvX/NNi3+ZPqEMa99ZR13ec20BcefCKUkv7VvLTj+4MraaQuOZQhAEYfLg20dfE6Wr/lug4NW27+c8selRxryR1Dw9dtxjzr2e49jH6TFJ2c9zijIzCvLw9XkPydqIpS6OE4XYyZ/uuftr431fjazPhd1MZ0wK7hah/wRe6n4bTPyE7SRsoM/uKGncXqeLB4ISgjUpdtLTuC68Qfj+mncR95sPggOXv9L7lNc2K0kR8/w1bvdd1lcGiB/2GSKuBl2GzesWm8eH4JyDkZUeBdlRZqbHrdxvhPhYH38oOU9eodfMlE65Aks38XMo1wK5Duu+nHdut0XC2EggF1xSOh+ZtbpQsGtw0ei+BHKdN2CMkgwfyjciyl+xHe69gJBCSk92A1yLgYvEwMnBQA4NzM3L6NO92jlzE7+6DxdEIFyU1YhVu9/rFwqQHySuQYlBxkahvNAmeCWuYXS/qFwDiaT5J464J6fbm/ocuWoyVW8gkd73l1P52ySgg5FCkToCz3hoPmj0/9Y4Y1Ov2Rd+AOWt9Dd7NxTBX8IUDqmZXbhj6KITjduEchjdAtSRCuXAlAiheFGRpAbN8gXLSqlDK4Wv7SHmj/a2tqEQuGyZctGjx6tGj5Gjx7V9asxY8YsWbJEIBCom+U/SPwBt6xIi4gOwPyxM/MsXcQZxnsRu2ZK1PqV2Pq36vrCBnx86PpfgAKn76e8u9E3nyMVVETtnT/54yOPBPGGH7z73vufmd/0+OOD996dvsYPnwvxQLRAWnXu16lrA+lB66bN/OPExcs+Fy9eup1yafXU+WYpfCn+wq8If0gJd7x9HpGEIOe+od7ExfZn170x3+wxV4q/9Mcbn1sl+69/fd7hZI6UQ65lwvxRc2XF1C/M7uXFmn4+efnFJA35Izw8vMNPuGKpCN3Of4l7VLDvpH9eER6uYXTd/wIy84hfbitaGsB8QhLlpZJWW9b4VsCcwXvsVzLzKDmFK61IqP5Yv9KbJP7XAfepD4cpFno7FOl5Mu9ffj7zODmdJ61Jrvl4h47tH7OCqzX0f4qu/XoZ/4Fz32sDrTwienZ66VeHk0ko/10d3r3IoTu+PXSfx44w+MbwDg+g3TtlYGyr8ARWJoKsFxB/QE0pPdnewPohHVC6AkPzRxcPYLybJuuMr0U6Qu5NFfwhQ1x7ReAyAuxdvSDnYo9QXsUU/HEmKxblHk2RSEiegs6R02/kxCJuysoB9f7HPMqlIMpTGZN003yLoZ2Lo8EqY2Xz77Rlo6Wrk8U2A+98MVB6buVn+6I6nCf15I+eztngOLRHkCKl9xF/a2xZ570rjBYVUtj/KeyCTeGXTJkBhf2jkz/yI03WGYfkwc/H+6zT1RQGJL7iQnBS1E63abeJisfYGa2DP8oo8fYGhrYuNi4RZRSUTzZtasUh5Y+2tra6urqlS5f2JA8FjIyZ/P1PH4Xe/D4y5tsd+94aN34MClGWLl1aV1ensiNGc/44GOVlG4derrBvUkO/eEgY5o8pUetHwr4q0Zqs2OBl4hkMxpWUOz9dMH3wXDtvZn1aShB5sfm3Klf/QuuDDmu4/ougwG/Xl2++8sqE8eNem7vuTBoTlPHuGMwa95FpMr/y/C8TJ/9+iSBUMALCHzJOmtPS9+Ys+HbRvO8sEjmUu6afT5s6c+6iT2ZOVNo/2MmOv78/5ZXJU1+dMHXejqByRrr7H++9NXP29BmLjMKrpex0lyWzXn/n3Rnv/OoK978w022/nT3/9y1bfnp30kvCH2gx29vbdc4fMhDIu49fvKfwjS2Fb2wr/s2XVSbusHMAVLbZ8aK3txVO3/58wy0+G5RlhJbN3FI4w6Dku0OQaURQRdtwoPDNbbjPj5bqvez8oao67fTfpcq7F+RFvotfsj5rCWWETg9gAgaN1c0LSGeaQhqJxEJbnlCtI9o9WpdEOk9HuSlDnSgDO6+uzE+nGzTICRuHzhB1VUPKpTFaYXBhAAAgAElEQVQgvhFznp7efSK5106Kbn7GOi8B56FTUrBLtpU5VOOXrEt+kBMFDGr3rELpoNym5UBjv9REQ+ujShNllrrfgvL4kPJHa2vr0aNHVVo+xowaPWrU2InLlp2uIdW1tUjSS3a9+QmEHygEOXr06AD5Q1fzb8GWhoPPfNak2a1Js1udarsq5dSKR9Z/JJ1cnnhi2UNLxX582cPhsP/+0DK06EE3/sDmv6h7nbQ9PnT2j44XXkQnVFbRlG4llbVAr9kW0Qh4iqBj5BDApZLZSo+WyOlCWlV5FVkZRwZwyCR659wHEb2misxBjX4Qs0k12uRhsMefDj5/KKp+CVBNEFZxeozBkkqJRGEVV6Z8CtJaMvojKBNKyinqV4FBnoKWAfT8l24LkKpcfw5RSb39o0sLp7wd7CBaAQAX7X0tE7LrDKI+Kv2SaXnFAblN0/haQ8ofhYWF48aN62n8UGBGB3+444nNrQ1tDQ1+e49O6sof48ePLywsRF4DJKC5/aOAUv2MWK7Vg0euoi7Q2tra0NAgkUi4XC6DwaBQKLW1tXCDPcz+IvYPjD+0KkK9RB5y/hjMWk/jSqcXQVR+NUz4Y9D0USlanwcx/uhTIizCYCswRPwBT3jZuHGjSviAMAMa8zF24tJlrvja1tbWttbWerFs/0Hjsa9PHzd2/NhRo0aPGTVm9OgNGza0trZ2GwiiOX+0t7drLihbyKfzOX3OAcb4Q3NJe4+JJryRM/4UW3+u91IhA0GMP/qUqB8RMP7oh2jYKbpVYIj4Qy6X0+l0dVNtYf4YPWrspKW/uxJq5S0tTW0tDW2tTS1tsSTi1u17p46bMEbRFTNhwgQajTY0/NHL/Ft0S9na2trY2AgAAI/HYzAYVCoVNoHUDruNQqFQqVQGg8Hj8XRbCilc1pZAR4+Um4iwGH9g/teRMobxByKFDgODwR8ANeasT65Gi49Ia++fPmS4ZcmvGw4Y24Q+DLkUVf3cxyUQLwUBxTd/L/ltwwETmxudizx0uuGSEq65+5V0G/PxkpmXdPikhnFSQ8QfbW1t169fV2f8gI6PHjMasn/87oavbWtrqWPyW5taWttaWttaBbbB37/2tmKACBTx2rVrQ8MfljFXfvMyF8gkSKOoMoDwB5/PZ7FYNBqNOnw3Go3GYrH4fL5uX4lqBmWU6ZL1fqcQhTH+ePH8IcWHH/9748ZNm7boG9kFPqH2GLgAcolllZReR9LppJxg/KETGbslMgj8Ia3yOWybIep0VwUzgZSWdtXe2tHXP/gOrutQUP4dw70BbBmocJBFVcx/ATi5keGZTEGM4V5/NijjFtyA/JP5pVKlHVNFIDdcT/I8TU5BE23+k/2JWLYRBYaIP+RyuYmJCcIf8MDSsaNGvfLWW68Z7J9x3uubgKB3p82ctGy5O57c1tbC8o2N2mRIiEqqqyALLS5//drbyDhUY2PjoeEPWCOkRVQXaGtra2pqkslkQqGQw+GwWCxoAYVhurFYLA6Hc/FR9MeO+jGF6UgxGmBABEgKyVV0EQ8RGeOPF88fQIHdVxM+XG992s16z+JZUz8ze8gGZVIeEZebU0IVgqCQev3vdz4zT6YLQSmXhMvJLaF0G/Ovo+bhJeYPac5j6pm0Pvy3dnk7BPzQaHoyA+hY/4XH9wulPmAgg0+HrkEdBP4QRBgZ3WChvFolQiOdhcmQLyuBpMp7m/EtQZcbVPKHYs4t5P/D7ZYX5GZLDML8IUq37vQSRu10wyURphzf74Uf3FGcOiq9XZ4+lmZXBYaOP1auXInwx5hRo8aMHjPhi6+mR8cdqqiplMpaGpqzv9afsuyP0xB/tHL+jd3yht6MseM3vf6hy8zv3p/4GsIfK1eu7Dd/BOU8uJGXrFWBQFpEdQG5XN7S0lJfXw8AgFAo5PP5PB6POxw3Ho/H5/OFQuHph2GTLFaE5SZppWSfkdEKY/zxcvDH5J/cy6GVYhjh/8x4fdP1ynCDLxbCvkvdntw/8snUseNfn2t4LQTyaPrz5zOnL3bL6/oDt8+HrkmEl5c/pJIrToXvnO7pc1pWGFP1vQeDgJr1A98pQKev0S+1K0Hm37IO2dX41AwP/uAG7Te6zUD5onoCLXnPj4T8YclAQcThI73zh4PC8Zh3oUjWwR+CcONOL2ElSsdkBSJQnGe/zw03gDWMumCQJoUQizMYCgwdf/z222+d/DF61CtvvTMj6k4ojdra2tTS1NzMB9O+2TVl2XKIP+QQf2x+XQ8edjpu9Gi0n9Tffvut3/yhq/m36Jayvb29ra2tubm5vr4eBEGpVAoM300qlYIgWF9fPxhlEa0qxh8vF3+Ikg5+OGm5T3nmFcR36b8yQfSOmV9Y5UrYWdBRE4VH08t03dfs/wH+4HKcLhCdIolbbMpXe9HScLQd5kXT95X9E8WVSSWPYgh/2Zav9qDEUWTd+EMGnUgKI8uYpfSDzhUrTpNcQgkGUVwZKCMWUk1cK363r3HJEYsV68IcvkExd69Yao+/VCqVScUPovAbFAvHhFRJu11Fk9dzEOwfoqRjRpdJVJS7qpJrZ67L6A/sDfZa2jsarDC6mX/tzPUyJHs97B8e5fRHdpDjMZ6i/0VKvdfpJUwIORqvgN1w1USbGoX0xD7dlz0kq1hgMBQYIv5oa2tD2z9Gjxr92j6TAyUVDa1t0rwK2p8n7s3bePH936YsX+5O6OCPv17Xg6bFIMyiDKxatarf/OGfdT80J1ErHdGNorqwXC5vbW1taWlpampqVGwNw3GDb62pqamlpUUrDTWMjJYX44+Xgz8mfe/4lELC3bFf9s5rP7un/gv7Lr17+PPJyy8r+OPzkzlkX8XR3FjoqA9V923Ay88fEFVsx/10kRZ8F//t9mLDhyxHp+dvm1Y7ZwjK4ir1DtZcyuEG+5R95EgrpXa1f8DmkOd8x2O4uXbkKwnU3ea4mW4MCZm2dneJfiznYSLhh32VPkTIXjLnGMEzkbb/CG6eD1uxcEyFRRzjUjDJs1hS2vUq5T3sLj3fwUHgD5CfbHPEnwitZdjh1UrK5wlk3Nz4hCou7fHJnXbZIgG3axdMz4x1O4L2Eqb8invvpHlIbc8BSbove8orYikPigJDxx/GxsZKhBg1esyYV68G54slbXXNxNUn97z58bjRo14ZPXpKx/iPVs7lux380QNATExM+s0fWs2/hUseulHsPQyvUAPPNB7Gf+HbHIzXEi0vxh8vB38ovPWMmTB9/p/HblaIRemnFL5L/4Z8l16WSfLsvnnt9Q93OR6Hjv6t8Gg6cvlDv9SuVCYTsw33F+3JALJDy2bZ0iql0tDTuHcMy9c5Va6zKpmjX32NoIo/Chn/7Cg2zJLKQGnS1ZJZbgzuo+pZ25//6li53rH8i524rcnCyw6470P4YhBel44Rehr38SVoXRjFm9j9KiH8vluLweAPmZScm1fVo1uE+TTivKPLxTvFOpo3J6Xl5ZZrNMum62iDwai1sDQHosDQ8UdwcDDCH6PGjXsvPFrU3NQslKV9seXV0aPHQRNgRk/+c6UbQTH+41KMOv4YsvkvBiHuevbbuFIRul3EwrACAylzPc9lCXlnEsPjSrIQeTH+ePH8obLulrCJeJoA+UpArSGxJaCERcJTB20izH/D/tGVP3JCy2ZaUZ8D0mS/kpnHyfdqhM+reKmlYrpK+0cRx8wE940P62k119muaKYbQ1BA/GJH2ckc4XOCIK2IX9NjXdxHimRTObLaMl4hv/tVmC/I/tHz1caOYAr0osDQ8QeNRps0CfJoOmrUqDFjRr/vcVnU1NzU3Jx2wP7VsePGjRn7yrhJ0+xcfcnU1uZG7km/ddP0XlG4HeukllGjxo8fT6VSh8b+scnfburx1WxAiDSKWABRoJci1Y+vsPm3eDyeQCDU1tYymUyRSDQY67/047m8JKf8F/mjNqXm438K5zjRJRTW4WNF/9tfsmBP8YpbAmG38afwx1JpeQrh1324d40rNp4snunGkEnFUb5leruKvzAummtLLVCuF6O0f7AkVNaRY0XToYVjSvalikVdr6KJbWBQ7B8ImGIBTAENFBgi/pDL5W1tbYj/07GjR09dvfa5RNLa3Fovku61ODZl6e+THJ2/z8hkNtY3CmXknw/Om/AaNPqja//L+vXr29rahoY/4MoXaXGxAKLA/dKcLYGOKRUFumqfuCJBUFZ8Br4YuYQO7R9iLqWGQIB2CrebZVjMVn4FRyAQSAweuu5WRqByBsfZEeZ/XZMi9PLyR281rIxBFVZwFBNbpFISSVTN7WW8gqwqm3GjVEwkck5Y4r70g6aNyEAZlykqoQKd1qZul4OSFVbBl4AWcuvzKl06ZTD+0KTsYXEGVYEh4g+4XSkoKIDXfxkzeuyYiROPhYY3tMlbWlvAlpYUFjeWzuI3NrQ2NfPtrwd9uHQs2u6hCMPrv8DjD5CGqr29XXP/60U0fAGpSitB0RfCwrAC5x5FjjJdEpKToJWSfUZGy6sz/pBSru35bIae3gw9vXe+NIpgoqtgybMzK2YrvoIjKP5++P53aw9cTq+FLNjKCHP/8q7usehat8agXx8x/uizVLwo/+v2OYwarmSodlHsreofDYveNSj+PxdSCF48BNcNK+POCq4+klAFb9XV1TU1NSQSicFg9Ln+XMiTBo4QxHZMgQEqEJDaeD0d7Lb8oUAgqKurU9kBPQrdSPQSxuFw/oqNy+Ui0VpbWy0sLEbDC+COHjXp9WkR0bdaGpuhCRVtLdAUEoGM63gt/dOt7094rRt+jBkzBl7/diD8MUjzb5EbHCEBgQxyF8YU6Gg0mbLlRqunK/6QVF9dPx+CD8W+8J8QMspnkRIvuiOI3gy9BcvP5wkw/lA+Gk0oYfDiDLH94yZeMiu4eoTsFon94Y+A1EZsxxTQiQIhQ8YfbW1tdXV1S5cu7ehUGT168tixh39eVezmz/03hmbtX/bLYZ///fa/VyaO69rtMmrUqGXLltXV1alcDU5z+4dRpIdNrL9WFSW6UcTCiAJaaahhZCTx9vZ2HfEHgPNcO0dPb8aHXy346sMZenr/+9u3vLMnRckfc1fbJRXmFxbmF+YlRbis+waK+c6ig9FsJAJm/0DbjYY6PMT8wa1rOZbF3pfC2JfC2POIbpBE3ZlA3h5P2HqvZktc9ZbY6i2xVcNj3xZXlYzTmj9KqS2PSpqTnjcmFDU8KATvPQNi88R3c0V3coTYjimgrQIZOEa1YsPj8X2a3wZk/4BddQkEgmVLIARRMAY0xuPVMWPnT5r21eQ33xr7ylh4KVwUf4wZM2bZsmVCobDbsA+kudKcPwZ1/i2Sn5EQ0BAptIqG1k03/CHJc/h97gw9vdmrz0a6Kbpa5q52L0KWjVCJF5Kc039AnTJzV7gUCjo6aJD+F15JhPPeZT98/u7cuXpf//rnfofAbGq3MSVa3TLW/6KJXEPMH+hyCLs2FgqFDAaDTCbj8Xi4rhyWf/F4PJlMhvtf+hwB3draWl9fLxKJmExmbW0tgUDA4/E12IYp0C8Feg7Ab21tRb+JcHig/AH3ntSBdceOHRs/fjzcFdOtqwX98ZVXXjl69GhdXV3Pbhckc4PEH07x1zf52YnqpMiFsACigCbNhuZxBBJxYunTchYZSV8n/CFItfnmQ70ZenP/9C4VFF9YNldvht5HPzhnCzu6FVTyB/f+sR9mQvyx7nypsAt/SGm3zb6fpac345Nvfly96sfvFszS05u91DF9AIueYPyhSSF5gfwxclpZDRsA5A1tbW1taGiQSCQcDodGo9XW1pKwDVNgAArU1tbSaDQOhyORSBoaGgaFP+Di29bW1traisPhNm7cOGHCBDRwIOEJEyasX7++oKCgtbVVZbcL8iYMEn+suGw5ynQJSyJALoQFEAU0aTY0jzM482+5seb/B5HEvL+8KgEZUHp+PWQLmfnjyaQO70xK/vjopy32Z13PnnU962ZpuPqTj6DBIrOXuWSJlRFg+4fw7v7PP5jxwaK9t2HHz7znsZ6e8RTUgBKtOyYw/tCkkLxY/mhsbBwhrSy6AWhsbFTZALS3t3MlbZWM1gp6Sxm1sZgEFtRInlWK8ioEueV8bMcU0FaBGnLHiq1MJpPD4QgEAplM1tTUpLLRH6j9A2nA4EBLSwuNRrt+/bqJicnKlSuXLFmycuXKgwcPXr9+nUajtba29mL2QJIaJP4gsGglVEKLKisQcumRGcinVJ1JDMfVVmvSeGgSh87nHIryDsp5gOipA/sHI9rgiw+gMR//XK2CxnwAZZc3vaunN+ODb4xi2YpcKfGix/jTdxastHnEALqNPxWlHV+sGETy3dodx108QuNzyNDyngPZdcIf9fX18FjvYfw3Ojq6Y5xCVVV1dTWRSKTRaHw+HwTBlpYWdT2zSHHqd6Db6tZMJnOYrmwN3RbcAAiFwl4agPb29usZDToZeIglgikQkNoYnlnP5XLhxU1FIpFUKm1oaFD3UuuYP2C86PNv79XHIPEH3K70fumR+e1/Yf6tlHB95wcQWMz91eb2o7S0x2lpydEnF0NdMB/M3R/ZZXrtBwsX/bl62WpoX75p605Lz+jiroDSMf4DqLp19MdPkdk0ejPm/fCXRzpNA1+T6hhFJ/zR3t6OvEHwUogymYzH41GpVAKBUFVVVTkstqHkD159C03aTJM2U4Emsqgez5NWsUTldH4plVtK4ZTUsofHXkmDfm7Cm1AoFIlEEolEJpP10gC0t7fDrWYRqQ7bMQUGqEBAamPYk3qkBEokEhAE1Rk/2tvbdcwfOmm/NeePV478vtB1j7rGQOVxneRwmCVSwaoNyoqvoJNVKtbvg2iVBmr/ACq9/5qnnHaLIgbY1PHp9qsEqQbuPZQGEmT8KQgKSDnR/mdPHNm17Lv57+jpzfjoV6sn4n7fsk74o7m5+cHDh/eG73Y3NjY5ORnmD9hNBZFIpNPpg2T/KOTWoyffzgyqmhlYMdO/dKZfycyrz2deKR5Oe2ARs0651dfXNzQ0NDU1wYZn9PuIDgekNt5+2tDvMo+diCmAKBCW2RD6pMP+IRAIhEIhbP9Q1/f33+aPb88ZbfKzQ25ekwD6xcPCiAKaSKdtHCTxgc+/FePOLYVMHer2j1deKpN0615R0ZPSjT8kJTF+4Th2x4APXoLp9x/O0Ju3LQL2Vtmfjhid8AcAAP7+/ngCYbjuz549Cw0NRaacINM0BALBYPS/RNV0+P/YnUSFd4NEikFC7a6HZMVO2vVwOOyfhFTMDCi3z2a2KLdWxdbTwTT6xYTtHxh/aFu5YfFVKgDxR0Y9U7GxWCwulysUCnsxgfy3+QObf9utKun3R5WFaYAH0ZkZmP1DnOG0BJqoojd/vW8ph8fjKnd28cVV8yAomb3izFNJN7zoCRBdIkiqr/3zxQcz5i76ecfhY84uJw+u/uRDvRmfrD3bOaG3Zwp9HNEVf0RERAxQ/Jf5dHj8KcwfNTU1MH8wmUyhUFhfX6/upxK6OGkVhvnjajHnZdZk4HmD/a875LGV+AF5gIQH+/c+ngazfwxcfCwFWIGwzIaQjDqyYqutraXT6VwuFwCAwZ3/olV10GdkzftftOKPsNwk5wchssb6PjMwAiPo9v0BpFKOSNDQ3IQoOSD+4CeZ/wANFJ3x2e7g2q6LbkgJV7Z9Cn0F9Zvwukyv7dP+IaqOO3vgl0XQJBp4n71otWlEidrlOVQk2B1HMP7QpCDB/AG7FSAQCEQiEXZTAS/Up3KcPFKQ+hEYUfxhm81Qdr/UYf0vmpRGLI4OFYD4Ix2Ef1TAC3CyWCz4vVb5u2IE2T+w+be91N06LIIyEByc+bfdG3vd5BlgVz7LePjwwcPM5+QBrziP8YcmDwXmD7xyIxKJFAoFtn80NDRg/KGJhj3jwPYPqwwKMvpP8/GnWP9LTz2xI/1QAOYP2LQ5FP5Pe2nS+v3VINk/ksqehuYk1jc19jtjw/VEmoibWPqUzGH0o8CpPIXMYfx0wdQ6zh9RbED2Dw0MDyqzMfQHMf7QRHPM/qGJStrGgfnjeAq04By8aTj/Fut/0VZqLL46BYZ0/VukddFtYJD4A5ZMt1kdHqn9F+bfDo7xQ9dkg/GHuooJfRwb/4FWQ1dhmD8skqFFN+BNQ/9jGH/o6hFg6Yws/vj+/MHNAQ5aPfXhQQy6vYvUatyhKO/smhKtlOwzMjqTmP1D5fLTaImQMAAAI2f8aXV19dDMfxkh40/NEqvhgTWa+1/H+KPPqgyLoKECI4s/xh1ZtsB1t4bSwNGQWh4dkDXX/5ho8WHs7mG/z43bE0xIQt87HNZKQw0jo6+C8QfGH0ixge0fQ+b/Y0SNPzVLROY1d4IdPLFIXQnE+AMpmVhggAqMLP5oa2sDpF0nRPRlUUc3ikj4Kb9qStT6KVHrP7hrMIz316I2TIlavynDGblxJDDAYqfydCTxgfv/UJn+S3gQ63/R5KGg+aNq8P2vjyj+OJIAcx3k1b6mpqbPBdAx/x+alFgsjoYKjCz+0Gr+bQ6+9H5xdiNqUijSQML8cTjvsoYq/0ejkYVMjD8G9dlh/KGJvBh/aKKStnHg8R8Yf2irGxZfhwpg/KF2oGIv828x/tBhEZSBIJFN/9hR/2CUF0J4WP+LOus3IhES0Mn4D0nVjaN/b1Ru/zgnopbWA6rCju7zzBLBD10CffLKFKl9cXRbNmQgiPGHziWVgSDGH4OhKpamVgpg/KG2Gr2SHmtx6zJQDyIVPRIYWfyR7tSG2uRyeWNzE0ckEAOAVkWtl8g1TMokixVbghwRhTH+GGL+AKjpwefczZfPemXeZrszF24WirgkXE5uCUUEyiR5Notm6UcRSwtKyEJQDH3aGS2AlhRmVRfkVzDEik5MgEcqzM19ThXJQIDLoLNFoEwqYNDglfzUvmW9lArkK4w/ECl0GMD4Q4diYkn1TwGMP/qoGZEWER3oL38IMrOu2cYF2t4LcngYE03kdKwk0tcYlL4eLTct9YobjtZXtD7utOfpcP/LhjTHBsXWqNiamppOJ4WPMl0SkpPQ85SBHEErjPHHEPOH4sFJnpxYOHmpN0kKUiMMvvhs8c+fz5y+2C1PkGez6NVZ875coPf661+deJAG8wcz0fqnD+b9+PNnc3+wSmTQFCf88vnMtxe7ZmVDMW4JgOpzv0xdO5AiAZ+L8cfANeyZAsYfPTXBjgyxAiOLPw5GednGBWolMbpRRML95A8pw/vi8tEn9L87b/KF7aoxxw46EwZiQgCeJVh+GhCLl9ReDz28MblCq/vSJDLMH+tS7AHlJpVKQRC8nv3wpwumD57naJKI5nEQebHxp/X19S+WP9hZV8x3G5hYbf9yyh+Xa/NsFs34J4Ir48btfX+WvscJyP5BDFg77b11tpd83LfNf31dYE2Wr/lug4OKEy49wvhD82L/omIOAn8A5ZcNVukbGu7fdeBsCkPlzypR0aM0Eup3V5+nAKXXrA6fDb7kFSYpvewcSNBWLsFDV5cEqDMRqL1/+pDh30t+23DAxOaGBr4DhA9dXBPQqysIix6nkrSbvqBtbkda/JHFH7qafzsQ/hjve58LgjLu3ZUWy398SJSwct1DLH86d+Tv2PQKAKQV+v0VesU67PiPF04YPynngqCEmeV4zeK7s6ZrI2Oz+YoIYX72kU6nUsI3OK8Ze3Lv6nspMXcdDmYRZLx0a/+z1vcurDpv9EtQZLoQZFRF7750cLGvl02M21/3tMYFmD/WPDrFVWw8Ho/P5wuFQkB3PS/o9w3jj9raWiaTCS9/8EL5g+q7YuoXZvdyYw9/Pnm5Dwnij79CmQDz1q53Z+/yOgnxBylo3bSZf5y46HP5orfP7UfeihPyYk0/n7z8YrLNorc3h3HEhY7fvDYi7R9SICOJ4haJ7NSIKhm6qHPKmGfjuUQpYpKUZj+iXi2QoOMMdngw+APnvtcmUyIDab5b9MNqC264W1s7+aVSpfTMQBc7B/eQrMwbOxf/anazHPndBaBPCalIjgwM8I4u5hSEu1tbO/qlkUpv7vvppwNhGcmxjyUFrmYeFTIeLuq8k+OZkBxmh3qC8lhPBxtr9+gSATkp3M/v7CmrM3E1Uintib+dtYPnSQOzGIFSTEGM4V5/Nth5iggEaOlX7K0dfAOC7xR19CTSn/jZW9t7QWcykMT5xWE7F/9iFo0rUV5uCIdAKfOPFJhhEhhZ/FFAqX5GLNfqWaIbRSQ8EP4Y52JnHRdoec3ozSN/6T8tveC19n2/yJiiWAPX9UuS8fhks/FH9+k/vHs+9MBUi0OupOrzXmveOOfhmX5tg8Mf74akQhEs9NfFRMWUpFpd3DzOwcYmN9vDa8WnMUUAK+pXs5WfXbtxJcl5ntnGXc8KrNyWT/e85J0W8rfznxMux2p14zIQhPljVZKN0kEzg8VicTgcoRA1OFHlr5x+HUTkxewfL9r+IUqz/Xb2/N//3vLTu5Ng/njtf59+9sGMV6f/5PAoHe5/4aQ6L31vzoJvF837ziKRnq44YYvihMulETtmj582e/5Xn8yY/B/gDwZbKJJ0DvPSwfxbqTjs34rl1mXztxfOMS5bblNpnYP+3SwjxFXOsiBnA8pWRCq+7ID7PoSv7Rs6kPiDwh+u6/445OBgtXfDnn/DrfRts7jiyisGB68HmWy7kE+nEEkcdqCZ5WNhZ/0A4DpP8St65rzTPIEmyLDWt8vkSiquGJhEEEMPm93jlZ0zc1fwR0mG3T7XZ0IJPvCwbSJsnBBX58Q/TEn1MLSIy3EyOJnKEaZZG3uWPrLc5pArkFT66Jvc7s4fnafEs5OObXd+JhRXXdxmfJsPZUz0yHKbfZ5AXOWjf/A2G0k8XsiC8i5CnTso1eBAnul/7tyRxR9azb9lC/l0Pkfl6lYD4Y/RJ/S/dd447vDGZQ8KaYL4tRbLZ522WHrR4lu7lZN970fMypEAABWRSURBVOGTzSa5+GYAoEx4f63Fmr8z76y1WLslTyADAdx9owmOXp0RQODJnd2TPMLLJdRO/rDYfbwKkIlTdlit25J5Z7X5+h35IhkofnDjn0n95o9Ea6pyo9FoLBaLzx+UihLjjxdt/1A2h1AtLGGR8NQuC+yJ6GQa2hwtA0EhnVBDFcDmdDGbVENT1shSDolAVdTm6DT7GR7s8R8hMU8mf7pn/QGP+BRcU1OLDvgDbl/FXDPjwh/DBGJQVpNPPXK68neryj2RHIJUwR+mNSd8q/48VW35WChA+EMqeRRD+Mu2fLUHJY4ikwHixBjiVvvyZQ549zwxwOU4XSCFkWUyCd/nEt6rpItNRdu2Z1D4w32XWWx5DYktBgXhxoY3uKBMlGF94EIJIT3YzWLXXo8ceg/+6DwFhC0cgCDCyDCcA4JC6NTCrvxRFL77931nLly4cMY16AlHgQuJltut76Tctvrr4O0cFzOPcilQ6G52Lj/M0DCCC4L8W+YW3e0fos5T7jIijA6EcUCZINL0CMwfvBuGhuE8UCa4ZW4RdQ9J/K5AwR8c1LkI1vSzYGv7yIZffIw/1BYd3c+/VYz/GO97n8NLN7D9/f2QdJok18juzy9upufXVj8tf5bBYOOTzSaecgphiclF5z82237weZax/R8Lbz6lSYj/+m6c7HkDzR+Zd/ZMPHcdJ1bDH9kZhnbLPw5JyCFm23iu6bf9Y2Wida1io1AoVCqVwWDweDzdvgkULmtLoKNHyk0EQUbO+NPZh/duMjy3yej8X0bnNxtf2HLQc9vhS/rml3cd9TU4dkWT3cjqyrD3v37B698NexyUu+Omfc6bDd3+OXh++xHvnRZaaKVSz1//cX5zkeHkT/fAf1ea+c24kKMD/+so/ihIqHVL4sQlEL7fUWKJkxLiKt/ZVWZ0m+HjW/7ezkovAmz/4JXFVeodrLmUww32KfvIkVYuFgSGUq5lc4J8SmceJj2i0Nfol9qVymRituH+oj0ZaJuK2npM3as6OPwB97+AMlBKvWdrYGznaGFwOAiXEWDv6nXebLfTI/pNk3XGIdnP/Gx8FBlD+l+g/Hfwh5R2z9bAyM7JwuBIUDm7K39U0OKd9pu5e511upIKT62SZLoaGHsG+VtsPoTmjxJClPk/hnauDgarjLrbP1Cn3BXQHjgY7LW0czRYYQTzh5R003yLoZ2Lo8Eq45spSOJ3BdybB9cZB19zVF7uLsYfWpe6bqUR4w+1ClrGXPnNy1wgkyCNIhIYiP1DMf4DqEi1fMNst3kZtyL37GeWq2bY/f3mSVMXghifbDbhxPa5VsvHHl4+xzemEJBW5Z3/4vjv444sG3/qmEsFB8UfUnK23duHl03xDlZt/8jjl2afXnRyxau2psvPrp94Oa7bs+/zI9z/sjLBiqzYamtrKRQKg8Hgcrl9nqtVhGoGZZTpkvV+pxCFRw5/fHhh38XAu5eCYn2C4v69ft/vRsK16JQbd59E3suOfpCnyR4ZlzHs+eOKX6DX1Sh49/a7eSnwtu/1uMCIxNCYtMh7WTfjczURSl0cU4frUz7dM+Mb4ze+NPxli7NtVN7MwEpd8odUfOtq+bx9Jb85VXytX7w/E+jsf+Ezt+oX7U4TKfpfuKGnce8Ylq9zqlxnVTJHv/oagW1mWTz3UPl625LZe/G3al9y/uhelwICOpUDD/UQ0kgklgSKIGDQWGJSfEjv3cFSPp3GRvqnYHsS8lfIoDA7vNEo6hkJg0rvZpmDj7PpTFRfDzp7nadwcuMTqnjUxyd32uXA4z9kICjm0Bkdwzs6Y8pAIZ3GloDoI+g0sbDWCmD80YdkSIuIDvSTP5D3p2sAENGf15Jp0MsphfEinUctojIQ8zUgohWR4QjdcgvQ6dVlXLGaxh6oKLgTXEUm1Kabuq/Qi8hVE61bmp0f1fGHZ2Lkx476MYXp2iaoLr4IkBSSq+giHiLyyOGPhXf319TU9Fz960WMP+189Oqe1As5Ptj9L+Fx2V+tsYmIy5GBDe3t7brvfxEyt+kXH8iUynjMHQYd/DHTGB/NlNGeEb/dVmJZ2GH/SPYrmXmcfK9G+LyKl1oqJiRXz96PjxGAjMc17yv4Y+2O5ybZAJ9AW2vwEto/XtLy00ehZT4NP+/kfPFuEe+/mf+urUkfN/uSRR5Z/BGU8+BGXrJWTwhpEdEB3fIHKj9ScvaZb69G5asDf+1KDz8j2eGrU2unWm7+7F+/uyytrbXq+MP53rVJFivCcpNQOdfBq4tWGOOPIeEPdn6U2xGD7TuMbINz6KhZkQN7mlxSaSVV1e/RfiY72Pwhl8vRZU/3/CEVBZ55rneoYqNbxZc7lPyxr/R7I9zb/+AWnmE8F3eMP5VQWIePFf1vf8mCPcUrbgkEZMY2o6JFNlV/25TM3IuP4fPtj+Le2Fr4vmnpl/oYf/SzOOm21sJSG4gCI4s/XvD8W+3o4cW/Xer4Q+f9L3AJRrcBGH8MPn8IMuy/nzZt4YbD1pb6//f2jHV+eCns0vRpSS1EDwCPTucIGBW5uWU0oMdHEJSwq/PzK+gKo7oMBGjluZkFJD4oolzf8s5n5kl0yBEqq7qgIzXYKaqQQyZztK2wBps/0AVPl/YP9PsulZLIInKX8bygTCyprJUgZs4OWaRSEklUze34tQAIJWVkCQ9JSiwpI4jpuvh9MgjjP158laVt0cLiv1gFRhZ/+GfdD81J1ErxbnUT/HHQ7B8v1wuM8YdWRaUfkV/k+nO8qG1vT1vpS1SYPTgkEkcG0h+e/O6dGR/Nn/P23H8CcDk2i16bPf/rz/SmTVxwPB1yu476yEhSeD/9BfJ+msBkJJz8dvpbH376/qyfnf49/MnUseNfn2t4PRaVWokQcqL6jt68n2xStRVqOPAHAhAvTQDjD23LIRZf5wqMLP7Qav4trDXGH0Mw/rSn1Jj9Y9DtH3TfPyf9z/CBcsYsCMro/mumLTz+RASQ/Ne+tfDoNatFM7aEsYEStx9eWxcI8Ufnx4v+Cu+nFy+7b/v09XUXvddOW3gsQygTcTkikB+9Y+YXVjmULqkdT82GnJiFMPpRhWH80Q/R+jwF448+JcIiDLYCGH+oNTkYhLjr2W/jSkU9EWTg9g8BIcn5XvD5QqJEo99D/CeZ1y+WqF3hhVEZc+LhE0KnO0W1N6VVeRoy+wdLyDuTGB5XkoVIjfHHoPMHUOj646uz13rlMKX8sjCrg6cTigPXvzH/yGMegPf5443PT4RZKdaZk1ad+3XqWgV/QMvOwR8vwd5PvS9f9r7ocyvVd/3r80yTuQCnlsxV8MfnJ7MpQejUrDI7FoXRqgTCkTH+6IdofZ6C8UefEmERBlsBjD/UNtWb/O2mHl/NBoRIo4gEBswf3IjgjWNMl4x1/jeto/tcbTagEiDt8PDRrTSIiTdWuDhcYUn+X3vnHh1FdcfxtGJR0WKtotQez2lP/UOtaCue/qG2AbGpFlNQ21qPVU8rqIRAInioKcEoBUzAJ6gJ4SFI2AQhAWNCBDeBRAIxbiAkZndnZ3f2MTM7s7Pznuxukn30JEOGZdld9hlxuL9zz+bO3Tuzme/cO/czvzv3Xv1X6+6vzNRbq2f/kwnjj0t5/O13OP7Frat+9jc3XD5p8uQf/eTOZ6p7OKJ1zUO3/PSmn10/7e6FNX2d8jynUfmj2tn6eu4tN982Nvtps4tofWPW9Gtv/Pm0Gx9Y280eL73nmmt/+Vz1Z2FH0zNjy+buSWXKBMAfERU/I5uAPzIiIzhIOgoA/jjb3EbVUWGO8Eia/METjfnL8363ddWvlvx9wSlGlIi99aX/qt+yYNNLM98qqxigRB5pbC6f+9aL97792kqdjZf5Y8/+9dtXlegIURL0nRsf21m1/MN/Ti3Mv3PT1trjlY/vbuwVJA49umpr8ehiMZrPTrigT/aufKB80YNbPvoECR8uf4FTVnSIxR8725v+Wv3al992KznTjJCMe0tH4xHopCIy8H9k3f9xxvHG4Wa90XG2F4YjLPDoq6MJFBLGAUE2atzrRjugAQspD6KhbBDsHJ34IYmjxf5FwB8JXY7YAkbdHfBHVFlA4kQqcGnxR48d6jbrk9JXaRHDI+nxh6A/XHx10ZINNt2yN+bctO1LfBQv5kz53+q1bTVPls2Ztr1V5Ps37auu7G774ONnrlj1Tgsj+z8667Y/PnXjPhOnf60871bNQU198fTCfzza0PL5wbFZ21mo4u0/X1exYcOR3Ut2f9L01eppy5aW9XbvObxrp1VZ8CmBdmX8RhaLP0rrN+cU5H58rDkpJS+YOVxhwB8TxR9JlIcLXsEsZQD8kQ1hAX9kQ1VwzKQUuLT446IYfysYV69/aNLq8s3ftFZUPnHZ8pItxJnuFVZiarfNu676Cx47tGDtvOtLF8xa/9RVr7y+mz6Twd3/3q3FhWu6Nt1e9Px/YZ41fHh7UcE6O3dmUlSqcW7RvKdHF3wZbVQ4e+PfSvN+uHTebe+ur4ITe6IdJw/5CLH4Q4/A31j0mDvDs7AD/riY1n+5iLgE8EdS9/QEMwP+SFAokC17Clxa/LFw94ZXG6qSUjO8UVTi6fg/WKhyRuGsSUvzrizKu7JozmWLH55z+GTF2AK2Cn8Q7a9eteKN3bTk6CiZGsYfovBt6Zt516/Iv+ZtzbeCxBo+vGPpC2XI6Kzto6vW0Z0vlP5xxp4uG48e7e/Haf0RyNI7cKio4pHpHx9N6qzlzLH4A8z/kYKYUXf5LsffnsuaUf+9iyQR8Ec2LgTgj2yoCo6ZlAKXFn9cBONv2UO1T016efn78myk/On/rHlwckXlirfybtvbo/AHZ6t/tGTuLype/lPFk1eE84ckDBwuvnrx3Px2jJcknmiav2L2ZcVFqw7Iq+byA53lv142e1Lh7Mkryz7q3HjXKw/fUPrktFeefvZ4zLEzcYoL4I844mTkK8AficgI+CMRlZLNA/gjWcVA/owrAPgjpp+5rHH7/MqVzKCguD2USDr+jwQvIc84em0O8tyHVJowNDYs/nHJmk/HJ1JkKYvOjoevsSSvJmOTh9XwLshq0FOpvPwhStKE8YebYw+ePtGPWxSFwfsf4P0PpaYA/lCkyGAE8EcGxQSHSk0BwB8x+SNv4/KcglyccyuNohKZAP6Idjn54wcW3VCy8NkOU2KzhsQ8tWgHj5J5wvgDjL8F68/FKZOAP+KIk/JX6fDHZq0PxgZBAAqkqcBmrW97m6TX6w0Gg9FoNJvNKIq63e7BwcGoD2A5ShscP6LT6arGjCTJ+DnT/9ZkMsm/ZTKZLni0xKurCbf32kwjfv/5x/yO+CMKIiR+OinkjMUfLT3H1h3cpUMMKRwz6i4OilikeWfLsc8VqYH/I2r1U/QJj/A8X1NTE1VYdSQC/sjGdUyZP6q13s1aHwhAgYwosOOImEX+0Gq1fVm2hoaGbPCHXOfDb/RKXOaPKZr8ZV2VKg7PtJdP0eSfP/+6PP725pInIhYT5gVhSd175S2RbeG6g7uW1r0fcQ/d2dmypO49I2ZV0hV5Q6EQ4A/AH0rBAPyhSJHBSMr8YXH5j0MjxwxDHQOettPi4R6mpZtq/trV1EWCABRIVoHOU1bDmEEQJPs/aJrOmP9DJoOJ+byg/+PywgfvWP2cUodx2gU7HW6OVVJESaJYBnY6nDQlJ4Y3ikrcwDuu1vxliib/UgjPad+0jBmCIFarFUXR9n7di7s25BTkLqhZr2gSCoUCgUBOQe7M8oXhiaFQ6O61//5BQW5E4vM1FTkFuT12KCJd3pT5Y4omf2rtfBWHKZr8jMx/WlVV1ape279//44dO/TjZjAYYBi22+0URUmSNDIyEgwGo5ai1BI1Rm76VsP0rYabt6k5yOdY2HxG1nAHeJwGQJHU7/d7PB6GYXAcRxDEZDJBEGQEBhRISQGlAxrHcYZhPB6PP1rPQ6L9LxiGTQxzKL9SXV0tiqJSPaJGZpYvnF+5UqGN4j2bcgpyD/R0KCmiJO3sbMkpyC1r3B6HP0KhkEnAjhC9R4jeVvzkIXt3k7lzv+Ho3n5tXe+h2lOHak9+oY5Qd+qLPtNABH+QJGkn8IOnj/djZ98YDYVCwWBQa9B9bdVHiN+FDGgNuohEvdOmNegE72BEurzZQfbd3/Lyvc2LZzYV3PP5ot82vnT3gRfv2v/CjIaFY2HBjAaVhJXtm41Go1L9MAyTq1/i/o9gMAhBUP+Y9fX19fb26nS6EydOdHR0tLW1abXaL7//1tXVNY4fo13FWeUPhB96rMk2ux6ZXY/M2mfJ3Wv+w6emB+qg+2sN92nkoL9Po4bw+1r9vq9T5w+v18vzPEmSDocDQRD5LgE+gQKpKYAgiMPhIEmS53mv15sWf4RCIUEQHBNog4PRW7KozZucuK2z+ZEPVkQ8grebeh/5YMUeXVucHcO/8vv9Xq+X4ziSJFEUtVqtaq2Kiv+DJEmO42IVkXBx0o+PjIzIj1kYhqn4MSsd/ggXORgMjoyMSJJEUZTD4YBh2Gg0GgwGpfH+vkfkx3QYhh0OR5b8H+F6ysWPpmkURS0WCwRBsq9YlZ8QBFksFhRFaZr2eDzxCTgQCAwNDUmSRNM0SZI4jmPAgAJpKIDjOEmSNE1LkjQ0NBQIBMJrohxP1P9x/p5qTQH8kdUrG+7mtVqtMAzLnl5IXWYymWAYtlqt8d2PF5Ra4Q+32600mSk5RC/enZRm0u12Z6P/JVxkpfipG3+jeuCiPoBGiOPz+SRJ4jiOZVmGYWhgQIGUFGAYhmVZjuMkSfL5fLHKHuCP8Ao4Gvf7/T6fj+d5l8uFoqjNZpNdIIjqzGq12mw2FEVdLhfP83FKSaRGaWzLeMeyrNPptNlsZrNZRhCTugyGYbPZbLPZnE4ny7Lp+JaUJlNWzGKxyKLBqjCz2WyxWGSh4vQTp1HiztlVrt0cxxEEYbfbEQQxq9cQBLHb7QRBcByXSO0OBoN+v394eNjn83mAAQXSVsDn8w0PD/v9/lhvdAH+OOf2FM4fFEXhOG63223qNbvdjuM4RVETyR8y3sndW2rFO4Xt5O7PRO7+kQVxfDsQCPh8PkEQKIpyOp0YhqEoOoEdodn9KRRFMQxzOp0URQmC4PP5ovppx8VI96/cyyCKIk3TBEHIYqIqNQzDCIKgaVoUxVgO8PMFDQaDgUDADwwokLYCgUAgFnnIBQ/wR2QFjLhD4Tiu0rvT6GnhOJ7CHSpSsmS2A4HA8PCwJEkMw7hcLqfTiavUnE6ny+ViGEaSpOHh4ZSbVbkLxuPxCILAsixN0251GU3TLMsKgiC/oxD/hpVMWYuSVxbT6/WKoshxnNzFoC45z5wNTdMMw3AcJ4qi1+vN+KiiKOKCJKBAkgr8H2gssdBjlKVoAAAAAElFTkSuQmCC;" vertex="1" parent="1">
          <mxGeometry x="157.39" y="498" width="725" height="329" as="geometry" />
        </mxCell>
        <mxCell id="khh2FQEowtGNTZKCgDfP-3" value="" style="shape=image;verticalLabelPosition=bottom;labelBackgroundColor=default;verticalAlign=top;aspect=fixed;imageAspect=0;image=data:image/png,iVBORw0KGgoAAAANSUhEUgAAAIAAAAB2CAIAAACPlwyYAAAMLElEQVR4Ae2dXWwU1xXH87gFQWSZNI0aPooqIRWVqlL90JZWahOpeWjVRiqq2zQvVYTSwmMeKhVs7876A2NqPkQABzWQQIAkLbVVoQAOknEhMiRuqNaQGgLBGPBHEGt2Y3a93v1X/xl7u6pnd+fO3Dt3Fnk0QsN65s6953e/5txzz3kM84dWCTym9e3zL8c8AM2VIHAAMlkkUxhP4GYcF4ZwtB9Np7D+GJ7Zi5VtWNCIUD1CdeZZz/+ubOOf1h/jbUf7+cjNOB9PppDJahauk9cHBUAihSsj6Ixhey82HscP96C6eUbKoTBCEfM0EIrOOY3Zv4Zn2FQ38/GNx5lUZ4zJJlJORKHnHv0ABu6i/Sxqj2DtHjzZjBlx28p6rvSL/WJRCTPBtXuYeHsPBu7qEXHpt2oDkEyj6xJqOrCsGVWNCBnmWUygXn43U65q5ItqOvjSZLq0THz9q98AUhncnkDHeaxuM3sYjzVdFIzBl65uYwZuTyCV8VXWti/zD0Ami74hhLuxfJvZWfss+kJUBjOwfBsz0zekeaz2CcDVMWzowppd5oBZKAu91xFmaUMXro7Z1k4/flQOIJnG9h6sasWCqLJe3gtFgxlb1cpMahkbFAKYmsbAKJ5/3exwvMjIn2frmdWBUUxN+1Hx8+9QBWA4jp29qG4yp5X+SND7W8LM8M5eDMfz8lF+IR9ALof+YdQewmJ1M0vvsi6WgsFs1x5iEXI55dIHFOiCugexdCsWapzkFBOu498XGixC92ClAUimse8cQpvmaAscl9xG06Dx2U0sjuqRWVoXNDKBP/4DVZFHRfom+KoICzUyobApyAEQf4j172KJxtqq7NVLoixa/KEqBnIAPLcfiyq50y/d9S0y8Nz+oAKIP2TmqMJUVgcDkXKYxVTRDjy1gJEJNs9HuO4Xsl9ksLDSxwP3AJJpDlCPZL9fKPfC6yVRFlnuvMg9gH3nHrU5T6Gsi11XRTg3lXi4AZDL8SMliPN969u72L+yRqlNLL6s72Q3APqH+aFYrI74/XvEnAKE8fQW1OzCsx34+QGsO4Rfv4XfHEHtYTx/kOPn917FN9pndVMN5iMepm1Lt1JXIeUQBjAcp6okEJqGBiwO4yevof4kDnyEE1fw8S1c/xyjDxCf5EL8F2n+O57A0H0uCP/zU/w1hv0XEe3Gy+9gdbt79fhCU18kRWcnBmBqmspCatlkNWd36ZhGEq90UXt8L8mVRed6s1wO6QzBGCcRanBfkMUGReFddy0GYGDUbMUaARiobsQv38C1ca8dQOtpTwBCBkURG/WaDQEAybS5uqLxmyuCb7Zj3wdIy1gz8QogyoHkZ/u9zkoFAGzv0bq2FcH3d+OMPBWxBABRCmR7j6dG4BTA1TEunGrr+g3W/TODyDrv7MuJRQ4Acz3Zy5q+IwCZLE0HuKqu6axuZM8j95AFYEGUwnFth+oIQN+QaVGia+wN48W35fT7hQhlAQgZFE7fUGHaAtflAaQyNGCieayW6m/ga1twR8EquTQAUQon3O3Szq48gNsTpi2bFulHaUn45ocCFcr5rTIBRCmi264WzsoD6Divb/Jj4Fs7MPLAuVQF7pQLIFRPe1MXRxkAybRpRaur948gctpl0y4rC8kADArKhaa6DICuS6YNs6b+Z9lWangUHZIBmL1l1yXhzJYBUNPhXmPlddA28OxruPG5cJEKH3iY4RrWjXtUxv3rFvpu4Nw1nPkEPYP4wzuyZxYG9x+IHqUADNzlpgavcnTdegz89hgmp0RLxPtTGVy4id8dw+P1CP3JXLrYNPvvZrNN18mWvlnMZc3C+3BKAWg/a+5dcS1Bbw8ujOKV99xIf+Ih6k/jiUYNpgJVjdwLJXQUBZBIcWsVdw55k6Prx59owhsXhcrCmzNZ/L7T63qL6zyHDApNaE9gUQBXRri9TSOAp5pw6rIwgK5/48kmbZUmZFBoV0YEsl0UQGfM3LOoqfqHoni6GRc/EygJwAHjhaM6K00oSqF1xgSybQ8gk+UmW73mVktbcElw3TV2l2u/Glst+64wRedcN2cPIJniRmdt+h+z2XFGcUegKgHouoyvbNHX/1i9RYSiSzreGm4PYDzBzeZ6q9KyZlwW2Vqdy+EvH+FLupSG+b7aoOjGE06rjj2Am3HTU0A+UR0XogAyWezo9bbMK6+Y1+97A3BhSKcGwpoFigJIT6Pp/WAAqMMHjqcP9i3gaL8+DehsNRQFkMpQc6d34jDzAVGPw45V6PYAmk7pL0kFAwjTd47Dwx7A+mOap0ChKNVQQoNwgFpAhP6LHB72AJ7ZOw/Aw3Q2Qh9SDg97ACvbNM9BXbSAmUFYo93Y7OgVMujHy+FhD4CewfLJaboQ7YLS02g5o3/osuS2IOJQ/kU2atMvm1K5FzPhL/h9WZPYGDADoN5suwXp8HPS9lRawDqPAOqUATDw7V341WGse7PM+dJb+Oye02JYiuh3P8a6g2WStd7709cVD3KbnebcvguiW0JFFaQB0ZN4kML9yTJnfFJApWUVd3KqTJr5l567htBmZWWMMnGHRxEA6rqgBrSedpg3hbf9XbWxgccuSOEgHAwAWxR/M3sdhBVOQ4MB4MUjKscA79NQhR9iAQCQyXIioGqQM01FvX6IKVRFBABAfBJfV7rXwbsqQqEyLgAAro1jRYvKFuBdGadQHR0AAL3X8FWlBmfe1dEKF2QCAODtfnxZqemK9wUZhUuSAQDQ9D4eV/SZOZus1yVJhYvyugHkgJeOq9T1SlmUV2iWohvAF1N4QanJZQQb/iZgnWivilBomKUbwNgD/OKAyhYQxp/PCmix7AEAtK9jOIXZTk3ahW4AV8fwo70KAcgxTQRoYarEOLcBDe/RoUnZcywhUI8A+utIpjGWoFFUifP0J1izQ0HFsmqqRONcdebpT7XiOzvLnz/eg09FPHJMTWN/H767Cz94tdS5ZgcWqVvvk2ieDjC0C4OLSO+FLD/2tqtUBT8ub8Z/RHyRzKyINRRZ/ypIWUmJTCnJ3KABcLeNxi1KLgFoXZSXvEUJ4K4zXSa6lQdA+iY9GnyrXjkq3r8tb8agSGQR/VYRdRSX6FF0GmolpHGj9ooWMbdYmgEo2qgNcAe+cisVu3ZQYQAUuSoA6IOCgafsZKT0x8oCoNBZhy53NZUEQKm7GoDeiBgCzN89wxUDQLXDJsvozH+XZZUCwA+XZQBjzfnstK9SAKxq9RSIr8w0tHBW67PbysoA4JvbSpi6RobF8+tbvwIA+Oy4ldohH10XBx2A/66LAfqq9s15d8AB6HHeDTDOoj/u64MMQJv7emtM9ieAQ5AB6AzgwMU/X0KYBBeA9hAmVjtQHcQnmAACEcQnr6lWGsYqgACCFcYKoEdIdYHcggYgcIHcrHagLpRhsAAEM5ShxQBgnCjpAQ2DAyDQwTzz7UB6ONuAAKiMcLbWeCA3oHMQAFRMQOf8vEhiSHP9ACorpHl+POgeZKBD76H2NAJYaLAI3fIiNuWFM/dCYD1g7sO2v+RyjLNYe8gMuOdhFVMPAIPZrj3EIsgK12krpfyP8gFYSQ/HqTetbnK/fqABQJgZ3tlLhaNvhyoAlu56YNQMvufK84TfAOoZFi82KiE8pBA8hQCsfCTTjDW3qtUMQybSI/kEwGDGVrUyky4CkAjJ2vZm5QCst14dY7Qz2rY49my7okVsf4Ab08QIs7Shy9Oquq1Ynf/oEwDLtqVviPG2aGdn+bUqaW23ooWhR5wfAgAMZmD5Nmamb0hsH47z/Di80z8AVoZSGdo6dpw3gzPVlTL2UgLAoEfg1W3MwO0JVfGZHIreus1vAPnMJdM05q7p4B4Q7sOxdrAUtAlpAMyUqxr5opoOvlRLX58v+P9daAOQz8fAXcZdqT3CPYHclxk2xwmD/jTcd0GGmUiYCa7dw8Tbe4TD6+RzqPRCPwCreIkU92V2xhj9YONxeoBf0So+CHebMZOifHzjcSbVGWOyQkFdlIp7buJBAZDPWSbL6AfjCdyKz0zJ78Tx4U2ciOFgH3b3YNuZ/527e/jjiRhvuBXH5VG6Lb9+n48nU5pH13yJSl8EDkDp7Fp/nc5iOuvkxgq4pyIBVIBcHWdxHoBjUam5cR6AGrk6TnUegGNRqblxHoAauTpOdR6AY1GpufG/5Hu/BSqyFmwAAAAASUVORK5CYII=;" vertex="1" parent="1">
          <mxGeometry x="140" y="80" width="52.07" height="48" as="geometry" />
        </mxCell>
        <mxCell id="khh2FQEowtGNTZKCgDfP-4" value="" style="shape=image;verticalLabelPosition=bottom;labelBackgroundColor=default;verticalAlign=top;aspect=fixed;imageAspect=0;image=data:image/png,iVBORw0KGgoAAAANSUhEUgAAAIgAAAB3CAIAAABXHJ/JAAAZtklEQVR4Ae1de3QTx7m//yJMsCztzr4k7UrGNg0P83KaNgTzSKBJoBhqSEjbW0ObcnpymmJEeCQOSdpLbnEJadoUCAklTtJi2gvGaZMYh7RQQgiPBBMTwCjxQyQgGYzBNpZ2d1a3MyNvZBmMJEsuEvbZozNaj3Znvt98j/m+b2b+KzDwd1NS4L9uylYNNCowAMxNOggGgBkA5ialwE3arAGOueWB0ZL/ryeGEMKeN+NyJ84cAyEk9A8EAqTg8/k8Hk9dnevw4SNVVbt3VVRW7Ey+a1dFZVXV7iOHj5ypc3k8Hp/Pp3eTwKBpWlzw0B8Sf2BURdU0DUK1yX12x86KFStXFRQU5OdPGTt2fFb2CEnKFsWspLts4rCc4SPHjc/Lz59SUFCwYuWqHTsrmtxnFUWBEEIVfeg0jUsh/sBACF0uV2lpqSRJAHA0bWEYEQALuhhbEl/ASnrBMCJNWwDgJEkqXVvqcrkCWuAmBQYNGAhVVW5qaigpWc2yvGEwYFgrx4spfDGs1WAwsixfUrLa7XarqhzknXhwTxw4RlVVVVEvNF/YVl4+cdIkE8UyrI0XpBSGRO8ay4mAsZooLj9/6rby8gvNFxRFUVW179IsDsAoitLQ0FBcvFSSsiiKYTkby9n0pqd8ATBWlrNRFGMVHcXFSxvqG2TZf1MA4/V6ioqKAMMjRuEdKY9EaAcZFqHCckhCIPUJ+KKiIq/3/H8SGE3TVFX1ej2T8qcZjaZbRHaFohJWJvAYjaZJ+dO8Xg+ExDqN0VqLUZRhI0RrbGwoKioyGk1hTbw1v+oC3Gg0FxUVNTY2apomy3Js3BMjMJoGW1panE4nALxgsRMkBpiG0EGw2AHgnE7nhQsXVFXpV2BUVf7ztnKL1cFyyCBmOZtgsetD5tbkGI4XeUHiBYnl0HTNKjq2lZerauI5hsyh8KweNrndEydNommO5zNvWRh66TgvSGYzyM+f6na7ySSPfEbOPVGIMuIOIvCUlKw2URwaILeYGdYLGKH/IqaaieJKSlYHAkG/QFT+tOiAIezicrlYlieWYmhrBsohFECCHZGI5V0uF/HtRuW2iQIY8nRZlkvXlhoMZo6/Jeb2IbSOwr3EshLHIWVjMJhL15bKskzGdEJEGQGmscEtSdkp7weLDY+ev2JYqyQNa3KfjRwSUjMKjiERiB07KwDgerZg4M71KAAAt2NnRQKBgRD6fL4VK1fRtOV6jRi435MCNG1ZsXKVz+eLCpsoOAZC6PF4CgoKABgAJgp9A4CloKDA4/EkSvkHAoG6Old+/pQ+AhOqnxjWGtVlsSInaXxnssS8JG6L0MZwvKh/7ckHkd8BwJKfP7muzpUojtE07fDhI2PHju8jMGYKUBRjNoMIL5MpWNNkAoAJBt/iiA3LSYCxmM3XaBVqJwVYtk9RDBoIubljDx06lDhgYPXu93JyRgEm9oYajWDu3Lnz58+fNy/Sa37X38MPfz87ZyRx4kY+YG9Yk+czx42/g7wktFX6nby8OwEQbvic61VgWFtW9ojq3e8lSpRpmrZrV6Vkzyb+seu1o/f7BkNa2etvtsb699JLG9KNdHy9pRaLdc+ef1yrRS2tra21tZ9Nnjw1VPz23sGe/2U5UZKyd1VUJmrmr6pqRUWlKGX1hWM4XhQEy959+1UVpZZomhrV1dHRvnz54zRgdedpbCQjeoVhrQCAPXuqUVYPVEhLIFRIGWpyk9t9/wMzaTp2duF4ETA2UcqquPmBYVjbAzNn19WdwROj6IBRVeXUqVMPPDAbAIsew45B32BIBLsjc+PGzQQVHQ99oLRcurTs8RVIwXDBuEZPbojkDgJGzKrYedNzDPaKC48/vryt7bJOhQgLUEOZKLur38sZPioSolyvDsNaBYt93brn29vb9FcHGQVzjCz7Sp561mrLJCPges+J5H7SAINHq5Wmma1bt+B8zXCmCQR6ZjWiQLamqVDza5rq9/u3vFqWljaEhEBikGa33QYWL360tbU1+Fgsx1RVRq/AwJSVlWWYzMQ0j+H5oYAlHBhN0+KiY3S3dFrakI8/OYY1TVDZ4NQspb6hccsfy7ZufW3r1tfKyl7f+tobp0+fUVWFoEJIGQgEHntsqcnMRj6tYTk0L+F4kaaFwsK5Fy9ewGH5bsMCarKiyNu3/5Vh0JPjciUNMLpuAECYNu2eEydO4IhFcKhCqLS1XZn7vflDhxrT0zPS003GDNOCBQ+73W5d5miaGghoX375ZWHhgyYzSpiKhIKkGmCEyZOnYld8UMmHMoqiyNXV742fkMew8UElqPwTqmPixTGhRKQB98gjiz0eL2IILE+IJPnii/qCOYU0wBFSTuJ5669+9T9Xr3aEYgOhunfvvgkRE5HlRIpm7733O8eP12oayhslbyQFXIbHjtVMnjINAD5CsEP7cr1y0nBMtw5wdgD459e/4Pf7uwikksL77+8ZMWIEw1pR9JqTBKuj8q23QnUSETsbN2yiKdDtmdcRQQwr5uaO2bdvnz4CCK/oeqW1tTV3TJ6ZRr7zWx4YHuWbi2Lmnj17oObHRheaT0BNVlX1Dxs2EvcPy9lowA8yGOrr60lYCIXQcX1FlpcUOw0GQCRkmKLu+ipxnF0UxYqKCmQcYwtCZz78VXGfdc+c9d20IXQkGEdVJzk5Bo9uimbuyLvz888/J3IMfSJgFG9z85IlxRTN4DRU0ZhBzZn7vYaGhuCQ1/wqRPh5vc35+VNMZqCrd51wXXrFYjKBLa9u7ey8ivK+NWR96ReESnNzs9O5jEKiM26qRX9UUgKjSwwasHPmzMU5JQgVIl5UVTl//vysWd9FnkRO5IVMAHin09lyqQWlgSJUkBGlabCmpuauuyYCpJO6TQYxVDZRGrbmf3/t8/kgVHTxpQPT3t6+Zs1zNpud4xISLE9KYIg0D+b+AqGk5KmOqx06MEiyafKJ2s9yx+RRlMDzmSxnt9uz/rxtm6x0kjxHQl9FUV57rUwQHCzbDRied5gpZvmKlVeuXCFPI9ymoxIIaJtf3gIYAclMLiGJ18kKjM7yHGe3iY6//PUvaF3H13M9VVY633jzTcFqRxkOvGg2s7lj8k7UfkYITUisqnJHR/uqJ57SnxYUYkB48MGHzp/3hOER1E+K/Pe33x6cNkRnXP3ncSwkPTA8b6cBe/fd+TU1xyFUFaXLTtP8LZdanM7lAPCEw8wUmDVrttfrxQuF0ARIVRVN0xoamu67/36zGakKlhPNZjB9+ozjx4/jZLugj5IACaEsy/6/v/3ON24f1ReXfiT4JT0wxKyiaDZ/8pSLFy90Wc+KpiGaNjU1Fs4rzMigiBuGohmncxn2qUBiy+GZEDx58uQ3bh9BA8FsBnd+69uffXaSzJDCOEZV1Q8PHrxr4hQ68WHypAdGH30GA1i2zCnLPrzQQzcE5PPnvxo0yEDRPC9IOHEbvPLKZmxb+zFPIAEYCGg7d1aaKTBqdG5NTQ15AoTIUxCqV1Dywpw5FM1yic8kTR1gkDuLAhs3bJJlNLMJJeie9/9pd2RxnJ1lbWjCOGbM/v37icuLmNqapvp8nRs3bdq1a1dPA4wYe21tbYWF841G5KPshyulgGFZcfz4vL1794X5Ga9e7Vi7ttRqRTNzlhNpwBYWzmtqdOuoEBSvdnZc7ewIE18QIoy9Xs9Sp9OYEUQlvsHQa8KcUsDwgmQyg4KCufUN9aFSCEL41VdfLvrxj0mCLoogMJbFP320BwbI8xZ+U/O3tFxcufIJmmbxYgm0auKapIzvzZQChlA8wwR+8shivMlGcKJO7KtPa2tFUeoKH9jT043btpX3REKXgaQgy74NGzdzPFosGV9vWO9AphQwxPTieDEtbciGjZtlxQ81fyCgEbURCGgffXSIpoP+MVSZ5/fsQWkoYWB0KX+/Cn27Kt+y2oYl2jjuCVKqAaNjI9lz3nnnXex6CTqesYyCv/3ti0TZIGMBCPc/8N3Tp0+H6STCRooiHzhwwJGZ1ZUR1x8STEcopYAhup1MyGkUTyPzxG4RlMuXW5cudQJg5QUHFn3C448va2v7OoZPvNSaBg8c+OCb37yTohmyDk8nWf8UUgoY4q4nwDCslaKZxx5bEkp0NP3U5FOnTk+eMpXj7AwrspwVgPA8AuR6gWplZSVADs7+MI57viWlgAntHnFxDk3PKP3NeqUr0BkIaITo//zn3szMYQwrsRyyoQcPHlJTU4NtBKRviE6SZd/69evT0owMTnZNqGcstOWknMrA4Mi5NSODqaraLctIoOELuf1lv1xW9jrabAdH/s00N23aPbW1JzQNAUNqqqrS1tY2c+Ycs5npT3ssxYEhpERBTJq7445vHjx4MDRFD0LF5/P9/OdLKOziFAQHDbjFixc3N3sJKoRvVFU5efLk1Gn30oANi9n0HOPxvZOyHKOPccFipyhu3vz55z0eYhYTvoGa7PF4CgvnAcCxaOWjnaaZ37/0B+JtI8Gxzs4OVVXefufd7OycPmZWRgtbKgOj04LlbEPTzU8/88uOjvbQKQvU/IcOHRo/fgIAFp53AGAZlvWNDz/8UI/ZEJ3k83Wuee7XDF7LEfdVA3ojwwq3CDAiRVtG3D6msrKSaJEg62h+v9/3yquvmqng+lC0/8GkKW53E47ZYJ2E/aFfffVlYWEhjfzKxOEWUU5aGK2j+nqLACOxrOTIzN5Wvi3UVaNpiPStra1PPrkqPT246RBFMfPnP9yMNneTVYhya4k50NDQeOe3vo3zCBKOSrIm/EU19Ihtlm6kVqxcdeVKMO24m0CDSkdH+3dm3J+ebkLJG7wDMJZ1zz+PkmO6UpaIcHv/H/9w2HOoLvaKthlR1U9ljtFnHgxr+dGPii5dasWx5K9TkHR4AgHN5XLdNXGqySSgWSonZWcjjw7JIyBRURKzeX79CwzD94MhkMrAkBFKUczMmbNOnUQOsTCXvg6MpqmyLL/5pz9lZeVg97NI0+y999x/8uSpUDcahIrH433kkcV04vcsSHFgTFiZnzlzRpHRvDIUibAyhOqVK5efe24NAMHpZIaJnT27sL29vXteGTxx4sS0afeQnNiopFNUlVMZGIpicseMP378U4IBhEpo9Iwk/4fAo0Eoe72eefMfHDLEjDfbsaWl3fbiiy/8ezmSjg1x23z8ybHBgwfSlyJ2IxLHF1EtAAg5w0dVV1f3FF+Eypcvt5aW/uby5Vas2JH1ReICXq9XECyAwcqGFxmG3bGjAq+z+ZrhAgFt69YtALB4SX9CvJwpxTEklYlMNayiY8PGTR0dPWP4CoTquXPnipc6GYZ78cXfoTpoLSDxpKFks+rqPbePGMmwaCsPAKx3TZz2ybFjocpG09S2K21O5zKOR/vBRiWjIqycUsCQPrOcLT3d9Pz69W1tbT0VPoTKxYsXnc4VLN5j9/YRuX/729/1LDIIFUXxX73asWnTJknK4nk7Tt7gFv34Jy0tKPVZvyBUT58+PXNWQYKCm6kGDELFaFqx8gmfr7OL3N0ix36/f/0Lv+M4B85pFs0UM2P6fefPnddNAxyz8be0XPjhfy8EAG3rhkM7YO3a34SpKAjVqnerOQ5lesb9SgVgyK54iDRoQRP7iyVL29q6+cR0Tz6EConhkxALEXpGo/mHPyjq7OzEwgprdxwoc7lcubkTWBRMEwWLPS3ttnffrcIJAmitjD65KSsrGzo0GLPpWlgTB5ySHphQWlA0M3/+Q2fqXGH6gCy9UFX1g/37HY4cfa03SUQSLHZjhrl03bqODrwOBikboue1gwcP2e0SyX4GwJJ3x51Hj36MxCPWSUSsybL/p4sfpfHuJHHUN0kPDNkblxekDBOYOnVazbEaQjhdGSB2QQNc2f+vD/Ly7qCorx2Roa5iXhDLy7f7/UHLuMuWg6+8+opkR1kyvCDRgP3B93/YtcWrnm8Om9xncfiAj2PMJumBIcKdBsKgQYNdLhdxoug+LgIP1OTTp+umT5/BMEhnkJ+QAhGDaI99INx9992ffvopcdsgIw2ts/G3tbWtWLHKZAI8j5M3ALdmzRp8dlIw0InlpLpv779Gj8qNo6sm6YFhWBvDiCNHjvvo0JEeypkQV/Z4vAsW/ICimF72e+Z5B0UxCxctvHjxIs4LCObWQE12u5sKZs9GTIP8m1ZOsFVW/k2vQ4wFRZZffnlLHJM3UgAYa2Zm9tatW/3+oIs+yCVdya6XLrX+7GePki3LBKG31V8k++mpp5/1+ZCyCZoM2MG8d+++UaNHkwQzCi8KOH36lKoiNw+Jh6qqculSa3HxUjNa1BmHmU1yA4M3mGHXrVt35crlsIRKrJ/VSy2ty1esyjAFs5B6STsO+gsYi8lk3r59Oz5GTMVWgKJpaMHSX/9vR9qQdFKNptmZM2fhAxJQHTI5lWXfuXPn7rvvPoyNyPc6CG5oXic3MGlptxUvcWK3ClrsEqbwfb6rL7zwWxR25IKnCfRCji6VI3KclJOTc+Twx2FLyGVFearkmXR8iAeOQ4ev/VQhWv5R+2ntqNHjKMrSi9jspRn6v5IUGAfD2sxm+qGH5ofpFWyDIaXt9/tef+NNm+ggazD1DkdSAECYMWNGfX19VxJz0AC7fPnywoWLaJrDB9vZeMFeXr6dJG/oY0JWOl9//U18sIRdZ1Dd4ojk7aROUgLDsDaKZh9a8HADOm0l1E1C/F0qhGr17mq8+WGMJqxgkZ5+5pm2tnaiSIhfQFXVjz76aM6cOePGjh83Nm/ChLxFixY1NjWF5hGoqoxdPugolr4om6QEhgb8vdPv+/iTT3pMJP2y7Nc0eOTIJ7m5Y9DOCOj4j1jm4YAR7PbMrX98jWSjdRkUSNmcOXPmyJGjRw4fPXr06OHDh5qbL4QCg13XSlNj05y53zNmmHWmiZxXkpVj8G5ulg8+OKAoKBFZ5xhitkKo1NZ+NiHv2ywrsSw6PC8GMdKlb2wAMKdO15G9fXRnGokaIHMZz//1+3pLyObs9fX1gwYZiEcgWlSSKRkD7dsjSAyLiPWv/QcIsboGMpJgRLt88cXn06fPiEGvXJN2FM2PHp3ncrl6RNW+lp8heHS7GQholZVvCZbM0FntNd9yzZvJJMoYxpKdPbys7I3QZNcQupBztpbh6Ujc1rKYzewvfvFYS0tLmNUX8t5ueITev3r16rPP/tJiEUlo55oAXO9mEgFjkyTHS7//A3YDB80kMoEgtJBl36onnuR4tB1pDOLregRiOZsoOl56aQNxw4TSPYKy1tjU+NCCBboz+3pv6Xk/aYBhOdvTTz/b3t7RY+dutBUmhOrmzS9nZJgY1kIiKD27GtsdLDyto0aNramp6fHqG9/QNHj8eK0oDo92rCQcmHjtu8zxot0xnGHEtDR2kAEYDIzBwJDC0KHc0KEZBsPg2Eh/w19hv7IwOG0IeWnkn4MMYOhQjuMlcrjADV8UWiGZgAGMhZyESwOBhPdpgFImAIOu0F7FsRyaR0DKkX8C3LyuddLRWe1JAwwhB5mXdCdNsMN9mc31AiR5rP7Z/dXoWN5eLj0DPYa2JQ0wXbSLm7nV9cAbDmR0aFjEla/xtNh+joBJ6Bby6NCFikpJyu7j3v59IU0y/hYwNsmevWtXwraQ1zStqmp3VvaIAWCiGh+AseXkjNpdVZ2o0zDidbBPVL1KgcoAWMeOHX/o0OEbm+QhNaI4oyxeR2GlAK2j6gI+CmvKmcQdhTVweFxUeOiVAeATfnicz+dbvuIJqm8H3egtvkUKNOATe9wiEYA7KyoBiNtJEbcCNgzLJ/aAUgIMPtJ3WLT+olsBgGv2ER/pKyX2SF/sLde6DsEGDIumygMIXQ8P4kcwGIz9dAg2hJAcGw+YgfNjr+EdIDgRVJBvrR+OjSfzI3KYY0nJahNeix1bHP6aoyzFbvKCZKa4kpLVOJYB8a4EPY/4Cpm5dC9GMY8hixbJp9vdNHHSJJyq2ltGZIrROvLu4OwfJj9/6tmzX4bSrTvxe/sWBTChj1FV+c/bynHOFXILspxNsHQ77SDyPqReTSLHrDbHtm3liqKE0i3ycozAaJrW0tLidDoB4ASLnbhdY07wSQ1sdN8zXnHAFRcv9XqbozrGNxS22IHRNK2xsbGoqMiIc01Tg7h96YU+Oo1Gc1FREc6HRifShpI78nKMwBDTGR2K5D0/KX+a0Wj6j+wD2hc6xv23RJ4bjeZJ+dO8Xg9OYex3YEKR93o9C4sWMmg5vY1P/BkGcSdoHx9INAoSX4wNAL6oqMjr9YTSJ7ZyjBwT+jII1abGJqfTKUlZFIVOpdSlbR/7nBQ/J/2lKGAVHcXFS/ERamoofWIrxwEYdP6HqrZculRevn3ipEkmikWs0y/b5v/HkSMppSaKzc+fWl6+vaWlRVXUqAJi14MtDsCQCRSE6MjPf++oV1KymmV5w2CQ8t4ahrUaBptZli8pWe12u0nqc8zaPgyh+ACjP9Tv82sa2jGstLRUkiQAOJq24DUoFgAsAFiRIE7SC1hR+wHqDk1bAOAkSSotLXW5XAEtEC88dErGGRiSHq/hlOQm99mdFZUrVz1ZUFCQnz9l3Pi8nOEjbeIwUcxKukuSsnOGjxw3Pi8/f0pBQcGKlat27Kxocp9FYkJR0fZpsZrFOhJhhQQCQ0Dy+Xwej+dMnevI4SNVVbt3VVRW7Ey+a1dFZVXV7sOHj9TVuTweD85+Rv2LzQ8WhsE1v8YZmLB3ENbRR5POT8lbCOsg6VpctH3YkxMLTNjLBr5GToEBYCKnVb/WHACmX8kd+csGgImcVv1acwCYfiV35C/7f6hGUfFGA04QAAAAAElFTkSuQmCC;" vertex="1" parent="1">
          <mxGeometry x="136.07" y="140" width="56" height="49" as="geometry" />
        </mxCell>
        <mxCell id="khh2FQEowtGNTZKCgDfP-5" value="" style="shape=image;verticalLabelPosition=bottom;labelBackgroundColor=default;verticalAlign=top;aspect=fixed;imageAspect=0;image=data:image/png,iVBORw0KGgoAAAANSUhEUgAAAIAAAAB2CAIAAACPlwyYAAAgAElEQVR4Aey9Z1gb2dbnO9/fue+duTP39OngBCabDCKDyBmUSiKDDQ44B5wJxmCMwUQBkgAFJJEc26mdup1zbJwTOSOpJKJCqWrfuwvbx8b22336vPPMl1H/HrpssML677X23mutXfwX8H8e/1st8F/+t776/3lx8FcEIAjCaDR+ajwcxwEGgJEEJ4BxGuAaQEwSAJ/FSBhxYCQA+cVIwMt/gAP4zT8CxwHxObgRfIEegDnAV8U/g8DB3Kci4BPhgCAAAWaBlzggjMBoADgGITBg1BkMBvh9nIQAABjIz/ypMf65678iwOwrEAR8/Y8PI5g2ghkMYBhOGDBgMAA9BrTAqAe4ARCz6KDB3sv0+QVhhJ/1PwL78CQfn+2rF+9NM2ugf5jp49t8f/HBzB/tDbDZIUFKRXx4c7OK40YcM2AEOQIIoDcajUYMqkM+Zl9j7vP/+T//RQHgm/jgBDiOYxhmMGJ6zKDHMQxaGY4WHDcAvR7M/gVuBEYjMGJfMRD8YP+x8b/93S88gBzExGdfP/sDHNjk2J77RqADk94KxxVpVTj6SbfEcEKP6Y0ERrq51oBNGwy62eFHjsLPBuKfN/3sT/5FAT59GTggMOx9CCLHBen0RiO0PcQADHoohd4ADFpg/AKDFuj/EB3Q/xkmgWEOWvjq2BzImDIbWd5/NX6Ilh/Mj4MPesCYShBk9MSmZyYwow7AT4vPiQGf2uTPX/9LAhiNxtk3QcD3B7R6fERhePpq+vSFgYqaO+lZv/iknnRPOE7hHHZBDrkihyicIy6sLznkgrT/Ia6s9i+hIIfm4E9vn0NYTHtk9KFPiYpuZ0a2zYETfSQh+khC1JHEqCNJkUeSI48sR6R5W4XS+l/vXO3qezc5oQKGaeirgIBx1oDpAcBxI+TPm/vLn/wrAsxOwgRB6HQ6AIDRaBwZGTl3G62SdqRlHQqKr/dhS/wSDvslH6Iua/b/AHVZs99SeUBy81xS5AEpsj8kMFkW9AXBKfI5RCVJ5xCbJKN9Dj1JlpAgnENqnGgpB7KMLUpnizIQ0QqWZA3Suj6uJYPGW87kFmX9fFz4/N7NPnSMgDLAB4y90Pv/hcefEIAMcQScPGGo1hswOHMZCUDodUCn0oLWM6+25P8avvQINaHVJ77ZL/lQQNoxatpRatKh4IT2kMRDYUmHw5MOhyceDks4FBl/ZA5RCYejEg59Rvyh2K/QFhv/GbT4NkZC+xyYCe1zYCW2I7MktLNJOAntiQnNiQnNSfGQlPjmlLjmpRzZUo5sGVuWzpZlILLliGwlIs9ktq5mNq9FmtchsrUsyWp645akhtJtJ26c7tehMA7h+DQBpoyElpxa3k/p+IcJ+s/o8icEgGOcIACuN+r0Rj1BENOT0wSBaY3g5u+jaRtF4WmSwORD/smHAlI+IzC5PTipLSSpLTSxLSyxLTyhLSKhLSKpfQ6Ria1RiS2fEp3YQktonUtiM+1z6InNrISWObDjW+bAiW+OS2iOi29OiG9OjGtOmiVBnhwPSY2Tp3HkSznyZXHS9DhpRpx0OUe6gi1dyZZmIk2rEckaRLIWkaxjSTawJBuYki3Mpm2cltV0Xsn2o51PUIABvX7SiGtxwji7stJj8OLPP/5YAHIKMuKEFgAtAHpcrwM46J7QVkvv+dOFsannQ1MOhWYIQ1Jbg5PbPiUkqS0sqTU8ERKZ0BoVD4lOaJtDTELLHGITWpjxrV/QzIz/DCS+eY6t2fEt8Zy5QLsnyJM+mHvW4mnx8rR4+dJ4eXqcPJ0jz+DIl8fJlsfJVsbJVnJkmWzZarZsDVu6FmlahzStR5o2IE0bWZAsRLwuun5X6uGVtBp24K6fm+5Oq6ArGPU6g2HcSEyPT05+vj7/Ay3+WACtQW8EGEFMG7RqwojptOD5G3R9yRn/+IbQpNO+jBMhSccDk0RhiS3hSW2fEpHYFgVHd2tMQmtsfCuNhJ7QNgdGQgszofkzvmZZTrycEy/7lPg4eTJnLikc+Vzi5Knx8rQ4+dI4+TIONDckTpYRJ1vOka1kQ1axZas4skwS0vSydYhsHSL9aP1NSNNmFmQLsyELkWxmyrPYbduTDq1lNdTmn+1/Og3gRm3CaBw3YJjhn5kU/lgAcgdiBIQO02m1OnD/yfiaHW1+SFtY6rHw1MNhSW0h8e0h7ENRcGi3fkpMQgstXk6Ll9Pj5cw4OZMjZ3HkSHzLFzSz4+WfESdPiGueQzJHNodUtmwZWz6HdEQ+F2hucoxz5CvZENLc0lUcaSZHuoYtXYNI1yLSNRzZGo58LVu+ji3fgMwi24BINyLSTYh0MyLdwpJmsaTbkKaNsY0bY8VbWS1ZrNYtDPma6NrSze3vHowCHYD7H0AY/pl10R8LMLvIwnRa3AhuP0YTN7a6sxpjkk4FMKRR8c2R8ZKoeHlsYvvckJ3QSoeRpJkV34zEQdicZg6nmRPXMoe4uOa4OPmnkEO7OZnzGUvZ0mXIZ6Qj0uXkbPnp15Vw8vyMFez3MX0VIs1EpKsRaPHV7KY17KbZCLOBjDDrOfL1nOYN7OaN7ObNCGQTIt/Elm1GZFsQWRbJVpYsiyHPojdtZ8l2c+Q7EOlWhmgXIs0MryhaJ39zTwW0gCAwAkrxZx9/LABBAEwHd7Adz0ZXbW32ZkuClp9lJTTTOW0RjGYk6Vg0W8RMETETWxjx72HGtzDjW1jxLbOmR+Kg6ePYkIS4tvi41nhO6yfBWpbAaYLENSVCpIlx0lSONJUtTfuEdKQpA5F8ygqkadUXrGY1zSETacpkN61GmtYg0OJryZi+ji1dx5ZuYMuglRHZJkS2gS3fyJZvYss3I/ItiDyL/Lrlg/W3IrKtLNk2lmw7s303p303R7aLLcqJE+1E6rNi+LvY0k10flnWkb7n44DACTAxOyH/GRHmCoDj7zd4szssmGXTwf3s8Di2vfh8MLOdnXI+miWhzwaW2QFOhuyPYzyO3RzPbk5AmhMQeTxbNofUuGNp8cdSOEcSkdZ4ljyZ3ZLEkSawRUlscTJbnMqWpJF8XIwvR0QrSJYj4pWIeCVLnMmErGGI1zJEGxjCOWxkieewmSXewpLMYRM0vXQL0pzFbt+GtGex2rIQaRbS9CnbEOlO1lyymZI57IoTb46pL2Af3x4hFuX8Mj2iN+LTMLFBZlgAmT80fjsozRVgdmP1cZMNL3AtZgBC2YMwFo+efCSSKWMgzfR4OSNOPhte2HFkYCEjzKz1E5FmEnkiIp1DHEOQwhanxUmTEHEiIlqW0JwedzidfSydfTQDObocOboSObYSObqCdXgl63AmE7KGAVmBtK9A2ley2lex2lczIWuZbeuZLXPYiLTNhdW6kfkZm5gtOxDxDkScxWjcFMvbTOdvRRq3IZJtrM/YwWra9QVzrA//GC/JTZBvj2jaixzJonFPN10HemCEkwHcpkEDEgCH26av+8NcAWYza7MCzO54jcTM/Uf9EdF1DM5xJlx6N9GZMjidcuRsDozscZzmBE5LAkeewJEnsuVJbHkKAklFZKmIdA7rlrWtSpIv40hSWaJUpiSVKU1liJbSG9MZwhVMcSYMEVK46+FI1rElGxDIJpINbOFGRLiJZAsizGIJs6DV6uewHWmYQxaTn0Wr+4zYup2Rjbl0SS5LspvVuIMp2IEIdrHEu1iST8lmNeUy/5gcjmgnsyGX3ryXdWhvYusG5sF3dzVknlxPAD0ODDB3+lny/jMl5grw8Zv4h4dmGl+zqRFBjkfFHGGxpUicMCX5EMKWI2w5ZzbasJuTYCSRJbOlKWxo8TREupScMNNZTXNIi5Eso0vT6fJ0ujyD0boKObSG07o2TraWI5udEtcx4a5nHSJZT1p/I0uyiWQrQ7idLtxBE+6kCXfFCrNjhNmxjTm0ueTShXPIZ4j3siSfwWzKp7fk0Zrz6PI8ZnM2rWl7ZGMOXZTLEH9KHlO8hyn5Auke5mfsovPz48TZdHE2TbqLLtlGq9+/Qm5QzgAdpsemjUBLwG3CP+MBMLNGPmCyA8ePnHzJShQx2a0IcgRBWhGmiI0IOYg8DpHHk6EmGWlORlpS2bI0kmWILB2Z3c1LV7Ka5rCK3rIWaVuLNK+ki9JjeSsZgvUJkk0p8s0pzVmpLVtTW7antm5Pa81Kk29Nk29LlW9Ple9Ike9MkWcnteQktuQmtuQltOxJaMmPb9kb37I3oXkOBUmtcyhKbtuf3P4pRcmtu9mCHYy6HbH8PIaokNlcxGjZSxfn00WfspchLmBK5pDPlM4hh964BxHmsoR5iHg3raGQ05xNb7j9cweYBhiOTRnHMWLmY/Xg4/j+eDHXA2YTnBiGzc7Gw8PD27IvRLMPMeLqORxZHPM4EitPiBOS1pcnQtM3pyDNqUhLGls6u1JMR6QZcIEIrb+KKZkLrWFpRPVapK5856mTwo5rxzsfXe1+cr/72f2eFw96Xz3ofQ3pe/mo5+WjnlcPe9487HnzoOftg57njwafPxp68XDo5cOhVw+GXs/yaPD157x5PDyXh4NvHgx8yut7A09+67t/4u252nuSrJMH4yX5EbUFNGEBXfQphQxRIUM8h71M6Rz2MMR5TGE+uzGHxctj1e+hCYsQuWDXUU0vYTCCGVinmgaYDpYhvvaYKwAGo9U0WY2D9cOr10bjEloYHBkS14RwpBy4lJQnxsmTEFkyDPHyNES+DGlOR5pTY1tWIW3p9Ia0mNoMmmAlTbSSJsqIFqxlydcz2zcyWzOj69NDKzdlVp4+/nCob2JqXI/pcXKu+vx9fbqCm73+9G9mf/bLv/n8Of7gT2TJBTcQ0+PaGY12rF956/KdA2k1e0KqKkPkNWHHiiPEefE1BSl1xQxeAb12P7uxmCMpoIn3RIr205uK6E37GE2FjKYCZtNeZlMBHbKX0bSHIdnDkOQxmvIY0my68MXlt8AwA2sKRkBWAv+cAOR6CW4nAAFm9Hqh6CGLBU0Prc+RxXFkcKblyJMRWQoiS0PkSxF5BtKcgTSvRFpXsmQrmMKVzPq1LPEGpHUD0poV176aJl4V07Aylntgy+Hn18e1k2RNkqx2wPdlhPyBvf4XfJsgHx+LejCvrgdvrvaKNx/hspu59NaSCFFpTGNprOAgo3FfDK+I1nCAJS2IFhXTxMU08X66eB8DUsgUF9IlhTRSA3pTPpShaQ9DmksTX5RcBTotfO84gIXlP+kB5HQNJQMEGBmd2rSxjckQs9lSNlsaz5YlsGVJ5DonldWUxmpaikjTWdLlLNkKlmw5vXEVU7QxXraGKVwdK1zPaF4XK8+MrF8eyd27vvXamTcTCgIYYXWKrH8bjThmNGLfeFf/C0z+taf8KAOO4zqg1QP9lHrm4clnjSvbuWFyQUR7VZSwIlJYHSutpEtLYoVFsfUHY8WlNHEJTXyALi6mi/czxEV0SRFNso8uKaRLChiSvQxJAUNayJBxs8RaJSkAAXBYyv+THgBml6CwceD5U5SD8NksGQeRxsMVvSwJDnx5KiJfypIsY0oymE0rmE0rmdJVTOkqRv16RLQBkayMFKyjibeyW9fHNm5m82XlV4de6QGsr2qNYMJgnMIJPekFBDnTfP1tfc1c/5l/N2t6AOCnNRgMswt2AzDMgCmdXqd6ofmt7GZxeFV5RF0Ds0UQ28KNbKqMEZbR6ytjRBWxovJYURlNdJAmKqWLoBg0yQGaZD9dUkSX7GNI9jGaihnynUjZyCsNAftBDLAn5BsfdO4cYARaHIYEIwDY+dNdCE2UyG5LIPdTMOywyLDDkmUwJBkMyQqGZBWjKZMpXc2QrqbVb2BK1saKNtKbNjPEayK5WfG110++MmoATtbNcDBtAOME0OoN07PNHeSm+18M539RFYKA8n/c7sCLCZhV1gNsBsxguH5SMfnywuu61IbioPL6aKmI1sqNqK9jCrkxkOpYSCVNWEETltOgGKWkGAcYomKIuIQmy4qsvPfLOxwjjHAV9M33+aUAE5hhNqunq6u6wWG0JSGtSSxpMkuaypKlsWTLWPJ0lmwFQ7SCIVrFEK+mi9cwJGsZkrUxok2M5o2x8h3s9tXhVbsT+PfPdBq0RgLHAExO6Y0Gg1GPG3E99EUS2EMBC9zf3qV8823/J3zjY9JltsMDlj3I3iAjDnACxwlcp9Y9OdLBja/hRzc00ZprQwQCWkNdtLA2WljzqQxzHIIuKqGLy2Jl2bHCtuqrZCyf/g9KZHMFwMGkEQpgIHBd1rpjcayWJESewpKmMaVLmdIMhnQ5Q7aCIc2kCzNpwjU00VqaaD1NvIEmzmLIdiKHtsW0ZMUIsxDu3RNviAlgJLQYNmXQTQIcJ8gWphkYamG+CppdB6ZGxoefjPTfH+65M9B1s7fzek/n9e7O693dN3t6bvb03ID0vqe390Zv33VI/z/o67/+GQPXeyA3ej8yeKN36EYf5CZk+Gbf8K1+9NmYcUQPK0wwNhgxoNPjU2TNFe6ZDAaA6aEOurHp1+c6uUxeQ5BAHi0WRPMaooT10UJBtJAfI6yLEdbFCrmxouoYUXWsqJImgt5AF5XRxeV0aSFLUrv2GA5fwPChg+cr42auANAqcETCmkJ8bFM8S5iKSJYxmzIYTSvoTZmxTatjm9bGNK2PFW6IFW6MEW6KEW6JJgmry2c0bwtpyGYIrrU/BVoAYz1hxLQ6uCGHHWZGzIDNwJ4moFMaX/765mzlBXlWizi9RZjYJmDL6uiimpiG2pgGXkxjA1PUyBAJGSIRXSSmiSQkTTRRU6xIFiuSx4iaSVpixXNojWlsjRW2kbTTRO000RG65ChdcpQhOcZogjClxxHZifTmn9e1XCo53f3bC2x0EmBGgGu1uhmtETbWTWsBgRGYfnISG5+ZAU8OvZTH8ltCeDKmSBopbooSS6LE4mixKEYsjBE3RIsE0SJetKg2VsSliarooiq6uJwhLkb43HDZNNABDNazvhWEvhCA0JElfyhAYkxTKkOYwRSvoEtW0SSrYyVrYyQboiUbosWbYoSbSbtnRQm3RkJ2hYh2BjdsCqw8UnoDV8E5HwN6zIhhOKwoa/U6GHUIAMbA722vGtbIiyMr9/kerPSv44Y1VIULqkJ41SG8mlABL7xBEN5QG1JXF1zHC67jB9XVkzQEchsCuY2BXGEAVxTAFftzJQFcSUDNHKQBXGkAVxbIlQXVyEmag2pbgmpbg+tag+vaQniQYF6bb117iEAaxuWFlZxc26I43D09DU1P4IQRXmFwxQD/I1P7anCr5II0jHs0QtISIWyOEMojhdIoSFOUUBwlFEWJGqNFghgRL1ZURxPV0ERcmuQgi18TJtOSApC9LF8Z/gB82RtKCgCtR4DUqKblMcI1NPG6WMn6GMnGGMmWKElWJGTW6NsjhNsjhDvDhbvChQUh8rywxvJVzSNPZwAGDLANS4+RTzQ0NgqDIAZG3o42rz5RHFq1z6esIapJGtkmCpA1BIoEocKGEKEwTCQJk8gipLIIqTi4QRzc0BTUIA1skAU2yAMb5EG1zYE1zYE1rQE1bQE17f417QG17YFzORLAPRJQczQQciyo9lhQ7fGgup/fwzsRzDsZwj8ZIjgbIDxNrT8XIvolXHzUv7bFq/J09nHQA8C4DsMmp/TjcMDChCbcxeqBQf9Oc3p1y8lQyeFQ4eFQYXuYsC1M2BoOkYcLZeEiaYRIHCUSRosaYkT1kKZqGq8uqAmGOQMU8p/wANjKSgqQEdG0LkK4JVq0OVqUFS3aFinaESHaFS7aHSaaNfruMGF2qDAnVJgbKjwQ3rI7jHv3+Et8BmCEUYvNGIwYDoDOiMEePxQfuDlUmVFdGlLJjazjRwr4ofz6IH5jAE8UwJcECqSQenmAQObPl1P5rYGCtgDIIX/BYX/BYargiH/tUf+ao9Sa4341P/vVnPCtOeFXe4I6l5N+3FNUyGn/GpLaM/61v/jX/OJfezag9mxA3bnAurMBtSd9Ks4H1vzixz3jwz1PrfvFm3vOtewCW6C81Kmf0aPYNGx+I5tPZ4iZKTAF9HjXoadtYdU/B9f/HFx/PLj+WEj90dD6I6H1h0MbD4UJ28KFLRFCWST0CWmUSBYl5UXz6qkSA5j5KwIYSQFWhjVlhQp3RIq2R4l2Rop2h4tyw0R5oaI9oaJc0uh5IcL8YMjeYOHekEb++sPaMcII57AZgMPVJw7bMHEwBYauD9Yn1deHNjSE8oVhgoagmsZArjSUJw7kNlGrW/xr2gN5hwJ5h/3r2n1r2ny4h30hR325x3y4x324P3tzf/bhnvCuPuldfdKr+pRn9WkI97TXXM56Vc1yzrv6vA8X4l193qv6gjf3gjf3og/kgjf3F4+KS9Ta33xrfvWqvuxTc9m75nVg80m7/afYgrGz3WAGzOB6OHBxAsd0M0CrJXAwAk6vazgTIDgdKDgVKDgZBDkRLPg5uOF4SOOx0MYjYY3t4Y2tEY2tEaLD4bLGCJ7QR4zhMLT9cx4AO1JJATJDm7YHC7PDRbsiRNmk9fNDRXtDRAXBoj0hwj2k9QuChAVBwsJA4Vbvg10XVcAIdGDCAKbBNOwT181oAYZr3ihKOfsbguoPeR6W+zVKvPhN3nWt/oLDQfWHgvjNvpUt3mWH/KqO+XOP+3OP+VYd9an82a/qhF/VSV/IKZ+q0z5Vp72rz3hX/+Jdfdar+pxn9XnP6vNe3C+56FX9qzfkNx/ue7y5l0gue3Mv+5B411xyqb3kUnuNwvvNsfqifeUt9/qzXrVXqOJLnvwL0QLwkgA4Ngkm4WfAML0RgzVGAxi//Pqsv+Csv+CXAMGZACgDJKjhZHDjiZDG46QGh8IbD4cLj4fJJWE8sZfIYJyCz/HnQxA0voGMWwSR7SMoCGvIjWzID20sCIHsC24sCm4sChIW+gtLfBu44dLCQMG+wIZKqvjg8mqghkHTAHQz2DTAgd6gheorwelYaZNXFT+k9mcfYbM/v8Wf10qtO+RXe8SXe8yXHNq+3BO+1Sd9qk75VJz2Lj/jXXbWs/qsJzT0BY/qix7VF92rz3lXXPSquOJeed298opH5XmP8lOeB3/xrbpGrb3tXXOTUnmDUnnDk3vXg3vHo/q2e9Utt8qblIoblPKrbqW/25Xd9mu8al/z3ElwjLLvOqd+4GqHcXwSA9jEMNotf3COXnvNs/UxRfAgoO66M/dSUjts8YUldviJZsENcC1zOqn+gUvtuWDpA8/6C761F6hN54MlF/z55wP4vwTyTwfzT4bwT4QIfg5tPB1ae5jCN4Bp2KgFN7dfnwXmroI+FSDHW1AY1pAfUV8Y0rgvBJp+f3BjcRDkQIC4IlBcESQuCWooCxHu96q5KbsHs6hwGUcKQG61cIK4L/ld6lEh86qUhvGPuPPbSNMf9q05Ck1fTUYVcox7V53xrjjrVX7W6+B5r4MXPCouelT86l7xm3vFJbeKy24V1zwrr1LKrrscvE0pv+1eecWt7ArlwF3XokeuxY9dih+47L9LKb7lceCeW8Vdt4q7lPI7lLLblLLbrgcfOJV2uFSd8az+3V3QYVn8cPMR8Aa+S5zAZoAO1g7VQHt97Eao9Jkr9zKl5Jlb/QPr8pe8q3AoGrH3CTuCwDEjgRMq2ctL9qXnvOtvuHAvedf+5ic+7y/8jcq/OKtBEP90EP9ksOBESOOZkNojrnwMTMNk458XAC69DEAHDP9//M7zEhSFNBSE1+8PaSgObigJgpQGNRwMaKjwF1aGNB2kNlYHNFYF15eH8Sdez8B1HBm+MGCAzRkYmOzUNMbXSSnlbV6VLVTuMY+6Yz41x2E05570qj7tWfmLZ8U5z4rznhUXPMovehz8zaP0N4+SS+4lV9xKr1Ig1ymlNyilNymlV1z3X3UqvO1Y1OF68AWlosO++IZt/nlK3jX3wrvu+++57rvntPe+496HziWzPHIueeRc+tC55LlLRQel+opL2SOb4jchXPwpqiczlEYCn8Gnp42TcJGAA1Ty6rZZ9iOPqmeu/FFT7q2oWvBOqzNi05gepmVma1QGDDzHrvlzb/uIr7pwr7hWXvUWXvJtuOLLv+TH/43KvxDAPxfI/yVQcDq48Vxw7TEXvhFMQ+P/cwJgpABGIt9TUBLcsD+s/mBwQ1lQQ3lQQ0VgQ2VgQ1VAA9ev/mBAY5lfA8+nocq7qn3tCaOKPK5DwDIQnHoNONCC3xvvNPoePOpTd8y78ohb2SlfwWlP7i8eVWc9Ks+7l//qVvYb5eBlt4NX3MquUkqvUQ7coBTfoOy/RSm67Vp0h+SeS9F956IHzkVPbQue2u594lD4lHLgqXvJI9ei+3YFT+1L3lCq37hWvbAteWFV/Ma6pMO2qMO26Ild0VP7/c8cip85FD+23//Oh9dtVvrUJG8o+9T41Mz7hSHMfupgtzHQT8BNObhpvfOdbeVtu4oe+9pbS4qVdQ8AAbQGPQY/GTwsY9DpwRj+KvPnJ27Cm+78O44Vtz3rb/o03PTmX/fhX/0gw6/+gvMBjb8G1p5w5uNgmqwH/OkQBOvHswJgRIGH4GBgQ2lIfUVQfWVgfVVAfXVAPTegvpZaL/Dll/rXV1HFEs+GarfiW1X3cbjTgq3qWq32/b5PDc6vPXrYtfq4J++0d+VFj8pffPgX3SouulVcopRfoZRecy294XrglmvJbdcDd1yK77oW3XfZd9+l8L5LwSPngsdOkA7Hgg4HyEOXPQ+c8+7bZz+w2tFhuu3Noh19i3IHTfZ1mRc9tyz83brgd7uiJ04lzy3yX1jmv7QqeGVT+GbJvre2RS/ti586lU4sPPh6QY6Cd3sCDn8dMBBAZ4QnGuAo1xmBccKI9zAau+YdfO3Kv7lk30ObsrfJLQCdBgbcAHA9uSswGAw6PaYou9OxuOK2V8Nz19pH7vx7Xg33PPh3PPmzMlzz5V/2E/xKbbziX3vSiQ+rW/DA0z8pgB4YAN4y7kkAACAASURBVEbscxeUBzSUhQiqAwXVAQKuv6DGX1BLFfCoAol/fWWIiOsvafVs5HkUP5E+M8LCitGAGUgHgGne8deaX9gtZx15J70Ep9wPXnevPEGpukwpu0Ipu+ZaetOl5LbzgTvOxfecix8473/oXPTIad9jp4Lfnfb+7pTf4Zj3xDHvqUPeM/u85/Z5L+zznpvveEcp7InkvotreLdMOrjhmHLHqZEdx7vXyXrSRcMJ9cNh5T0uua9Mc14vzn1rntdpmd9lXdBjUzhmWdRhWzBsWvzsp13qg9endQAanTDqCXyG7B4hCyYAaLDHYdxe0xqVdd1Tq4JXTtw3oQLdk26gg53n0FNgegKfBIZx8dPXi6tueTe8tKt+5Mp96FH/0J1/n9TglheU4ZqP4LJf43W/2jMO/7wAsGgCjxtByatc+ZWh9dwgfk0ApM6fz/Pn86l8AVXQSK0XUOtrfRqb3YWyAG7nuS6YW4Y7eZjcgv/D8YGLb3/xFfzqUnfevfas68ErlPKLbhU3XEpuuhTfdt5/z6nogVPhQ8eCm075vzsWvrbd+3hJzmNK/tMlu/ts9rx0Leqw2f3Sac/rJTs7bLJ64+vGmq5NXnwBXqiAEh7+mz2WCQsLBHkuUqXVvRhUXXv6jvfbQByv98ctQwt29tsV9VgVKuflvnQufGqRq5yfN7ZUBobI/TmOaTFMj8FzX1AADICLk7ds8rvNKkYXHBy1qnhnVtbrzNWcfQu/ZcT0BgwzEgZ4vgqfOd3Z41L7mCJ4bc3tcOZ2UOp+p/AeufHuu/PuefLuevFve/Nveglue9ecteMBMA3Lrt9O+M5dBcGfhX2IMDLynXhV4fV1QTxegIAfIBD4C+r9BY1UQQNVIPAViL14PC++zE14KJTXf2Pg4yrrY1NF389PzzpV/0rhXqJU/+py8DLl4A2P8jvORXec990jTf/YMb/DIf/xkpx+z7LH9rn3nbNf2+d2We18ZJX10ian3yrnzb+l94QUT597AYZ1ZELr6yu5z5IsI/h0v2bmRu9QZJXi39aNmeaP2u8fMcvrNM9RLMwdW7QDP/UGzoh6HQ6M44RuCsYIoMWJ6YxTj37K6Tcr7f1+n8aqZsiCO2hZpTnaRfrH7Bk9YADwdIrucl+3Z80zJ16nVe0zF+4T15oOSt1jSt0jt7oHHrz7Xvx7Xvy7Hvx7ntwLtn9NACMgyKmp3pHHDasXBPLq/QUNpOmFVIHITyD0Ewh96qWedfVe/GZ34eFQXv/N/i8F6D/+5LxDxRVX7lVK1VWX0msuB25TDt5zLnzgVPjIcS+0vn3eU/u8fruCRxbbHrnnv3XNf2m17ZXdji6bHUqzbV3OOyaa78DdqAHoZpP330wp/kMCLQbT3dMYAbRgQnL3leMuzd+3vv4hq880T2Na2LNo16sf1htOvwFKzfT09AwAMMI8V6P7jj0zyemat1dlVjb0faHCpHzIvLJnQbG69Q05eOEBFTI/A9MTswI8d+R1W9a+cOY+c6l56lLX4VoHZXDjPfLgP/Dk33fnP/DkXljCAwTpAd8ue8/1ABiCSAGMQN/owKsLqRf61wmpPBGVJ/bjNfnxpL48qS9f5iNo9awVevHa3BuPhtUN3fqKAAPHOi7Zlt50qbzjWn7L+cBtp6J7rvtno3yHY/5Th7znDjkv7LOfW2x77pr31jFHYbm7xyn7hdXm0XkbRjY0GF+NTACggceDMTCtB8Y/dSpRh03NTI3rMP0UIGAS5vFQ/9qm0UXblaZ5L02z1YsKRkxyh+fv0KxqAdy7RumTqZJrKmZj3w9ZYz/laxYdQH8qmlxcMTK/eGBRad+8IlT8DJ7EJudQ2GEIE3OE9nJfj2fNSwdej0XtayfuS6eal051z53rnkANeB1u/Mfu/EcU/iN37q82UAB4xvvPCwDX8TBzAdvqRPY8QVB9E7VO6seT+vHkvrxmX16LD6TdW3DEs7bJi3fIveF4OG/4dt/HQfgxBA0e/f2q9f57TmWPXMsfOO2/71Dw0KngidOep457njvkvnTIfm2f/cZu1zP7HX322V1LdnQ57Bg3yepauHaq7JxmXANmDAAegIOni2cIPU78KQHA9AQOT6rqp4GBMBK41mAcnRrPP6n4bhNqUTAxP1/zt10TJgXqv+Wh/yMb/X9yx78vUv1QNDavWPFd3viCIvTHwonFZWMLikdNSod/LNI0PiXz0WRBBc5usL8HCuBR88qB129e+86B+9ax5o1D3SvHuhfOdc9dec8o/CcUfgeF3+HGvWTNAzgUABagvvGY6wFGYITrVjjn6yV2vIbAehm1ttmvrsWvrtW3DqbRfeoO+fCOegtOeNQ1e9Ud9Wg4EVE3fLv34/N/FGDoyOPrFoWPHEufUMo6nIoe2+95bL/nmWPuC8fcVw45b+13ddrt6rLb0e+Y/W7RhpdLst46bXu9YBVouEeet9fCVo5pAw5gcQFWEqD9v/05Pr48ZpgA2nHy7gJAZ4DLzRndjM4Amh5Of5elsC6Y/DHnzfdbeuZld83PGbMuGTUt0szbP/39ftX3ezQL9qkXFo3N2ze2YP/oj0XD/3PPTMNzoIMlM+gGcBS/F6DXo+a1PW/QrLbbnttlX9NpX/fWoe61U91LF94LV/5zCv+JK/8JhXvFihQA2vTj+5t7MVcAeBz5vQCY1L5OFFjf4lfb6lfb5lvb7lt72AdyxKfuuBf/pGdNm2ftMY/6UxF1I3e+IsDw4Ue3LPZ2OJY8dS154rSvw25Ph13OC8ecVw7Zbxx2vbPf2W23vcd2+7B51nO7LYNOO4YWrB2vOKs3gCEclggBwMklNFzkkHecIGUwwnYlAp3Eh1Bjn9LYrzQOq3HVJDGtI4xwch2HaVgcwMoW3MRqAW7EdcT4BBjHpiovD/+YNWyeo/8he2r+zon5O9XzdqILssd+2qWYl623KRv5MXdkXv7I/ALUtETxY5Hyb3v1whdkhRCeCSYnA3gxc6Wv16PmrV0dFMCO223H7bKr7bSvfetY99q57hXUgPfUhfeEwr1uQc4B/5QA8JANrAdoMQIcduO2BvKOUiuPULlH/aqP+lYf86k65l31s1fVSe+ak74VpykHT3pUXQ6rHnrY/VHjWQ+Ah4cPP3hks+eJS9Ejpz0dzrlPHXa9ctj91nnHO6ftnY5bux2yeu0399pu6nPc1G2ZObN4vSJLPKOcABNwWQKnRz0w6LBxgOsIg47QAz1BvB7Wtlyf3iodj90/6rhxYEH62PyVGpftatoBxTbpxOHb+NMho8FA4HDBDhcFk1pghD0wsAUJ4GB4YmJ90+AP61Tztw+Y7BpbsGtiQZ7mxxzlT7mj8/PQn3JnUc3LV87bq1ywT/ld7lTj74QRh5kjsogN05oEmLzZP+xR3WNR0WdT02VT3WdV3bOE22XLfWfPfePIhbOCc81j16onlKrn39dqycQmXEh8XKV87gNzPYC8ywPcgRtxcIRS1R5Qe5xadsyv6rhf1XHfyp99Kk54QU55V53yPfgLpeSMe+XVsMqRB11fCjB6+N5jm5ynLnsfO+U8cd793HHHa8cd75y3djpldTlu6XHY3Ge/sd92/VvHdSMWq4ei9k686ANTQEOQXRlGeCATvtUpHYbpwLtBbX7rMH1vj3mG+qdlBvN1asvVg6bLUZPMadN1mh+WD32XprBcq/XNM+xsBsOwpjhtNKCEDkYtsiAFDNAnwDvVK8oO7H9uGft7lvKnHejCHNWC7NEfdk6YFqrn5aI/5aA/5arm7SEFKPy2AH3DHlW9FuX91jXdNtX9VlU9ttVddtWd9ty3pACvnLkdzlXPXKte/P2DALAj4aOFPlPgSwHgWCHADI6DY5TyIwHVJ/1KTlLLT/qWnfQtO+V98JT3wTNeB896l5713X+esu+828EboeWK++8+Pv1HDxg7fKfDZucL17wnTjueu2x/5Zj1zjGr03lLt9PmHscN/fbrB+zWDtquGXDZ0PW3+NFzd6fhJAdDLjQ8zM0QYFo7CQyajpc6zgGweI3OLHPMamWPdUaf+TKFyTKl2fLhJZlK69UaqzVqi8zhxRndJmnd5svVUQXgYRdhxDW4fpLc1sCSiBHepkIHwNSJDtX/yDTM2zmxaNfwvK0K02zlgt2TC3LV83ajP2WjP+Wo5uUp5+crFxQov8v5mgcQUzd7Rtwr+83LB6y5PTaVA1YVvUuqum2ruuyr3jlWv3Gqfu3MfeJU9cKl6uV3tbr3qf0/LwAZgACYIYzEz5TSY/4VZ/yKzviVnPE98ItP8Vnv4nNexec891/03nfBN/8SJf83twN3Q8vQe28/yvpRAMXhW0+XZL123fnMOeuVy+a3Thu6Hdf1OK3vdVrX57hm0H71kN2qYdvlCtOMgbQyLY7hsDUBNoMAjDBgGCCIGYBrHj9HqVmK7xMGrJYNmS9VmS4dN8tArZYPLMnot1iqmb90ynTF+IJlYz8kjS1M01hnji/ZoPxhaa/TOvC4G+CEVqczADCt00/BfBr5/DrQu7ZR9fcN46bbRxdkjS3arjHdrfx+K/rTTvSnXei83ar5cM+sXJiv/C77awIYZ250j7qX95sfHLSu7rUpH7Qs71tS2Wtb2W1X1elQ9dax6o1T9QuHqldOVa8/CED25Hwcoh9NBS++9AC43CVTSMaTlOIT1NLzvgXn/YrO++674LPvgnfhRa/CXz0LLnvvueybfY2SfdWt6EFIyfjd1x+f9aMAysM3X9hueEvJeumy4a3r+k6nzF6n1X1Oq/sdMwcdVg7ZLx+xyxhdsmzEIdP4+N20bhqHdzUxThpmgAEbN2oJgx4869U4rdV+lzjisGLEailquWzSMmPGPGNy8VKNSeqYacqQeZrCKkNttXzcYvnk4oxJ03SleeaM6eqJH9JfOmaCe53wgJsBwAMrcG7DoAYaveZ5f4/ZxoGFGzSLtiq+36heuH3opy2qeTvQeTvRebtU87OV83OVC/d8XQDcqL3RNeZeNmBeMmxV1WddPmRZ1r+kote2oseuosuhstOx8p1T1St7qMTb72o/FOX/CQ/4KAB2ynX/SeqBi757LvoWXvQt/NW74Dfvgt88917yzL/qnX3Vd+cNyu7rboWPgw9M3nn1NQGuv7Rd20nZ9Mp5bafrmm7nlf1OKwYcVw44rhxyWD5iv2zMbtnYklTNBi4Ym1DD5KSBnIEMU3AriIOnfQpm/vDCZIVZmmJJxqhp4qhZ0qhVyqh1qsI6TWWZqjFP1ZgtVZmnKSyXKqyXjVkvHbVMGzfNVJqsUC1aoZiXPkwvBO+UsC9yBgDMOA7XpBjQ6rCxcZAkfLNgtfqHDeN/W69ZtK130RbV/O0oqYFq/m7lghxSgN1f8QAc097oVLiXDZqVDFtV9luXDVseHLAp61tS3mtX3u1Q0elY0elY+cau6p1D1bu/1cKyGtzL/HkByEoWbI82gDMeWReC91yh5l6iZl+i7r5M3XXFb+c1v+3XfLfd9Mq647PrEWX3Pa9dj8Nz1Peewe0zOdHA5TqOwxB8+ErnkqV9rivfuqR3uab3OqcNOC3td0ntcUzpcV2msVra57y02zZBc/Q3YJzdKpJPQMDbawGDkVhVq7FMe+2aBEySxmwSlNZJSuskhXWSwiZJaQOv1VbJ45apGss0NWQZarFMZb500nT5mHl6t+Uy9Xcp2HfLNNskYAZuX4GB7NA0ElMA6AwGvfzW8I8rNT+uUX2X2btgrWJxlmZhFrpgK8l2dMEOdMEu1Xdbp4R3CaMBmg+2mMNiH1xb3egeo5QPLT4wbFnRa10yZFE8YLm/37qkz7qk1+Zg75KyHtvyLrvKt0tKX/+3Kj2YhuOKjCofx+inF1+GIGhFuO42gDOemy8G51yjZl/233GFuuMqdds1v63XqVk3fbfc8tp0z3fbY7ft9723PQ7fqbn39DMByDtNaQ5f6rJN6aNkdLqk9VDS+lxSBpxThl2Th51ThlyWDtunDjmkqvzX6O89/fQNzfYt6551oYFZaovEAccEYJk8ZhOvsElUWSd9CmqdpLFO0VilqC1T1RZLUYulKJycU1CL9H6r9KnFK/CfVnT7b8Ufd8Emca0B7qgwuMaFjZ/X34w771DNX6P4ftWw6QalySb1gi3oew22oQugBqrvsqaEd0gByBt9vReAmBVg2PTAiMWsAPsHLIv6rQ70W5X02ZT22ZT12ZT32FV2Wpe+/r8rYX8ClO/rE8BX5wBoDTgLGMBZj3WXgnfcpG6/7r/1un/WTWrWLerm29SNd/w23PVe98Bvc4fH5kc+mzoito/fezpbcYBjGB6uhLf6Gj/8W7ddwgAlrcs1qZeS1OcSP+SSgFKSUZdE1DH+jWfS6JIEbcIeMKaaK4DBMFF/fNAmacwKmbaNn7ZPUi6JU9rEqz4HtUnQWCdqrJPUlslqyxTUIgW1SB22StFYLh1cnIzarpwwzej5KcHAO6sDOK6HeTQ4vcNbXwEwMD7FLBteuGp0wWqN+RbFwvXogs3ows80+KoAAOBT17uUlIMjpsWjFmV9VgeGzYsGLIsGSQH6rd8L0G9b2W1V+vbf/4IApFakAMQFj8yrQVl3qZtv+2+67b/xLnX9Peq6+9Q1D/zWPPBZ+Zi6+pnHqg6f1c8isqbuPiFvOQj/8T8EOHKx1x4ZckvspbD7KZxBV2SEgoxT4lFnltqe/s4/ftQGmVhbCu/r98kDBrDxyYnl+1BLRGmHELYclXM8ahunWsJGP0e9hKOxidNYJ6itEtSWiahlImqRpLBNU5knj5rEj9gs7V+UMPNDsi61Ujc1u8QlXZtsMAFaTJHJG1q0cmzRGo3JBnTRenThRnThZxqovtvypQcAYJy+3qmklI6aFo1ZlPZb7R8xLxqyKBqyPDBoVTJgXTpgXTZgUz5kU9lrWfru/6qELgc3It/MonwRguDoJ3vjDNivHhk3gtY/gEZfe5+6+iF11SPqysd+Kx/7LX/ks6yDmv7SK/WJ77KXERtn7nR8KcDEkfP9DrQRd3YfhTHgzhii0MYotHFXZMQlWuEYrvRmDTsgyj21ZDXkHwpA/xlRTvlk6BziNI7MSQfWqBNLbcdR2yHo56htEY0NW2PDVltz1FZxqGU8ahmvNI8bsojTWCajVinvFiGE2fIJxw3avjHo1vAugmQwwAgjhvXlNqkWrVLPz0Tnr1aZrEMXbfxcgyzVd5u/IgCBaa+/RSkHxkyKFBYlA1ZFo2b7hi2Khi0ODFmWDFpBAQaty0etKgcsSjv/ayV5Qg9uoL8Vg74iADlOMGDQX3Jfdjtwze/UzEf+mY/9V/7uv7yDmtFBTe/wW/q7T8pT/5TXXvHP/ZJfR6zTfVWAo2cHHKJGPJj9lJghj5gRt2gFJUrpFN3nETHsHgIcogc8EE1jO1wafvKAAvQOqxZFTNozxu1julwiFXY0jS1bbceaiy1LY4NobBC1NaK2YqNWbNSSozXh9EHPSJ5ZFN+7mI1apar/nqTr6CZnUQI6AkHA7DKOKwSn9YvWTvw9Q71ozZjJGugEn2vwDQEM2utvUEqx0qRQaX5g0KpwzGzfiHnRiMWBYYuSIavSIauyIatyhWXloHlp918SAB7PIxvUsVtuqfeDl3cEZPwekN4RsKzDP+2Jf+pT/5Rn1KRn1MSX1KROL84rP8676Ezt3d+/9ICpo2eGnUIVnrGDbhHDHpEjbhFKSuSga+iAR/iIdxiwC+33YOiOniHt8WGaIgCBGbE3vcofvEccwnU2kd0uEWpHmsaBgdrTUXsa+ZWO2jNQe4bajqlZwtQsQdSkBlAAK47RJmnEIR61iptayB41jxs056j/O2v67nPYaYjBm04Z9HoyxY2Pt12esVw7+V2a0jRzbFEmumgtumjdBxk2oQs3q77bMCW8RcA8khHGVjgJwxtykgIUKRftVcHgU6BYXDhqVjRiXgydwKJ0yPLgkGXZmEX5iFlJ73+tmPUAmF37xjz8hQeQIRIuGwjQ4ZrcEZbUEZLYEZj4JDDhaWD884C45wHIywDkbUDcO9/EAS9Opz+ti750+t6DLwWYPnZK6eyn9gob8QgZ9QgbdQtTuUX0eFGVlDClR/iYW8CIWzh2+OQ0OQmQCz34osSMXvfktWaRZz8lFFhHaZyjNe40jUukyjEK4hCjcohVOdBUUA+oAXQLWwRdgqhsIEoblsoGUdtwNDYJGqsEjUW85r/Fau/8julhnz5cXuvhaQV4Q42WSwO2y6d+Sh0yTVearEJNVkMWrfkgwwbV31dPN16H7QlkWAY4WRrAgfb6WzWlULkoF11cMGyWrzItUJjtGzXbN2K2f9i8eNi8ZMi8ZNCiVGF6YOjfyqEA8FW/2Zz4NQFgQgaGzKeuiU9DE56FxD8LinsWxHkRyH4ZiLwKZL0OZL4LRDqpnCFvZmdAVDc9debrApxUunhrvINHPALHvILH3INUbiHDHj4T7mGjlIBhd99x/1ittE0Lm3nJNCN8UYLQGQwvOjULvEedQw0OEaMuoSq3yAnHcLVTJOoUiTpGo44xqCMNdaSpHRgQe6bajgmnB1tEZYuMWMWqliBqWzZqhagt2ZNLkpT/Lw08egmM8OaG8NQDjgPY74bjkl/7LdO0izNGzTIUC5ajJitJVqMwHEFvUP098ysCEIT2+hs1pUC5KBs12ztstkdluldhVjAGNSgaMYca/GsCkH3xUADC8ILCeRGKvAxlvQxGXgWzXgcx3wbR3wbR3gXRuoLoXf70Id+I7sDgXkaS7v5XPeCEytVN4+s36u0z5k0d86Sinv6op+eMR9CYh9+ot9eEX+h4FRcHsPXs/fIJnmTCjD2DGodItVPYOCWs35WqcAubdAhVO4ejLhGoSyTqEo06x5LQ1E50UgwG6sBU2TNV9iyNM6J2YCmXMMYsaSpL5vgSzrBlAnjVB+9vOCsAQcB+LJzADhweNkvVmC1Tmmegi5ajpiRQhvfeoPp+xdcEwLXXX6spe98LYJ6HmuYrFxf8QwOz4mHz4r/uAbMzACmA9jWF9SaU/iY09nUw7W1w7Lvg6M6gqK6giO6giJ7gyJ7AiFFqQG+wTx+DY7h//8sQNHP8mIrirKF6jfq4K3y9FF5eKMR10tNH6e+noLprXD00OXuAcYrcAcNVCrxRAo4DlXoycZ3aNVzhHjRM8VG6B2mcQ9SUMJQSThKJUqJQSozaNUbjEqt2jlU7zyrBQB2ZKie6wj5WZU/XOCIae0RlzRhhZIEhBTDiU2RRBSZ79VpgwCZXV8N9g2kiarZsfPFK1DT9A8tRkxWoySrV98u/JgCmvf5STdmjNNmJmuUNm+egpnno4nzV4s/84K8LAKcLGOxwQEy9o9A7Q6M7wyI7Q6K6QiK6Q8J7QsJ6g0P7gkP6QkJ7gwLH/D36Q9wGmAj2VQF+Poq622v8KWN+rgo/isKHgnq7KXwcNL4eo0FeY36OWidXTeZ6Ah0hxz+5TMRgWyPQzmDcOtQ9asTdb9zNR+0VqHQLQd1CUPcwiFs46haJukWrKdEaSpTaFSqhdolFXWioM13lQlM50zQuzHEXRG3PGLGIUhcLwMw4PC9IFnl0gNDhWlyt0TD3aBYnD1ulqBenaUzSVYtT0cVLUdOlqOky1DQDNVmh+j7jawIYtNdfqCl5SpMdqFnusHm22jQXXbzngwZwUTRqXvSfIsDEO0psd1hkd1h4V2hET2hYT2hIX0hwX0hwf0hgX2hgXzBVEUAZCHUdZDK/IcAR1GPJeIDLmJ+Tguqi9HVV+1CGfG00ge79ga5DXtbA1U2TuHSm5+2sAEajUY8ZyIW6EZw/pfCOHqJ46d18x72Dhr1CVR4hqEcI6h6Kuoej7pGoe6TaLUoNZYhSU2JQSizqSlO50sacIscco8bsI0dsIlS2sVOuHMOpC1NgGsYcMis3AbAJoNX09KpDtmsWxqMuyzWL05TzUlSmKSjUII3UIB01zVB9v+zrAtyYFWD7BwFy1Ivz0MV7Zp1AYVY4ZvYvCKCHaTE9DEEY6KE69kUF9keE9IcH9ocHDob7D4VRh8N8R8J8RkPd+6OcVaFeinDHUcR76u6993H8k53wzMk2ta/pRLC9MsBBGeiq8ndS+zuqIE4qf2cV1ZWEMn7uLIA3I0fBFKYl22+mwBBQDCpXbR0MjVT5+WpdfTU+YahHgNorCPUMUrkFadzDJt3Cxt1CUc8w1CNM7RaupkRoKJEaStRb/1jMJlxtFTBCiQXWSX1Lc8EwCggwPNu6PWOAfjBumDx9TmueNGadOGaTglqljlkkq8ySVeYpKvM0ldlSldkylVm68ofUGdGv75WDszdsyIP+ef2NhpKrXrRVszhbsThHvShXZboHYrJXZVKgMtmnNNmnNNuvXlA+9u+7yH4I2NDxyVbns8u5qyAD/FFSACPoodr3Rfv3RwYORAQMRPoPRVCHI3xHwn1Gw73HQt0HopxVYV7KCPsxtvf0va8IoD3ZqvZbNBFqpwh0UAY7qwId1QH2aIADxN8J9XdG/V1RKsUgqNONjwICdv4RBjAJtyE6HaGdun1l0CcCo4YM+LqNU31n/EM1ngEqN6raM1jtEazxDNf4RKi8QlCPUNQjVO0WrqFAgFME6hjU4x2BOsQO2cfpL97W4bD90KgzwIOzAAdThhn91FRh7dj30T1WiMY+bXxxwphlktI8SWWeTJJGyrBM+WPyNwR4raHkqBdlacx2KxZnkwLMapA/q4HStPBfEQCuf6AHGEGvv21/jN9AlP9glN9glO9wpPdIpNdopOdYhKci3G0wxkkd7qGMtBvjeM3cv/OlB0AB/BeOh9sqgu2VoU6qIHt1kB0aZA8JdEQDndBAFzTQZTSRBQZewuP0sO1vGgVw6ayDd4yf7JMJJp39tT5eaABF7e2j9vQd9woY9wlWegaOeQep/EJV3kEodItgtXuo2i1U4xY27OGHUiMGnUJ0fw9TNx7Sw1Oi8Kws8/6MBAAAIABJREFUmIENtnAvMK3TjPSqfJdOmLF67BHUNkG/iDNiyVZaxKssElQWiaQG0BWUPyZ9Q4BXGsputckWjdkuxeLdapMc1eIclek/NFCaFvx1AWCgfC8A3htg00/zGozxGYrxHorxGonxGI12H4umKKIoykjXIZq9JtIdjbZVxrtrH976UoCZUy3qwAXjkTaKMFtluIMy1E4daqsKsSOxV4U4qkKcVMHOXR5WQN4Ap34DmMHG4a9HmYEVOYNeD6bRrqaqCTsP1MtFGx0+GRKs8vRGPXwnAsOUgSHDvv5K3wCVTwDqFQhl8AhRu4dM+IT2e4ZO/xQyzW3SGie0WnhcEHapzB42gr9YYnqM1zQ+LwxzSRhyQUZtmJgJS2mNKC3ZKguOyiIOygC9IUn5Y8LXBMC1N158EGCnYvFOtclu1eJsUoM8MhbtVZru/c8QAMf6giwH6O5DNM9hmscwzX2URhmLpShiXZQxrqool2G6nSaaoo61ViW46R7f/DIdrT3dog6ZNx5tpYiwUUbaKcNt1OHWaJgNGmaLhtlBQh3QUKfxcMeBcG/Q84S8PSns6YT+pwdgEhgNejClHJDzR0OiO33d+qnuKNVn3NdP4+unCghUBgYo/fyUflSVLxX1hjKoPYOAWdigL1tTLZoAExpCr9fBOyWQ1Rjo03DL0dX1zo2ts45V2EarlsQMO9EnzWInbBGVFaKyRFQWszJAb1D+FPcVAQCuvfFcQ9mpNtmkMduuMNuuNtmlWvyZBkrTPf+iABg0AY71B1kMMihDdPcRutsIgzJGpyjoLkqasyrWGY1xGmEs0cRQNDQrNImi//36V/YBp5vVoT+Ox1oqoqyV0baqCBt1hJUqwloVbqMKX6IKt1WF26vCHDSR9iof88m8tYbpIVi5gwJoYAnRCKuUegKAKeXUr6enNqT2R/qMUD30IcGTvn6or58mOEjh76v081X6+al8/FFvf9QrYGRz7vTxU7h2AhjB5IyBPBqEYxisAsCjGSqNanWBYmHoiGNE/5IQnVV0j0u0yiZm0oqGWjFVliyoAZQBuoLyJ87XBMC0N55pKDvUJhs15ttIAXaoFn/QAAaivH9JAHJFCI+jAZwYClukZLoPI66jTNdRlusYy3mM5aRgOSiZDiqmvYJtPU53UbGXqJZ5Gh5cJ9OM5L+eLUni+MxZGRrx/TjDVklboqBZqmIt0egl6hjb90TbqaPt1dH2YxEOINxOE2Yxco4H9NBSsHJCEBqycRxmDwz4tHEGdHVgp9pVe3PGEhKGvf00bh7TPt4KT8ooxX3A038QSdTsKSCam0G/Ct6gBW53YUMgboDnZmHggfeZ12pkR0ZsQkdtfIccQ8acwiftIocdI1X2URqbKLVNjNqahlrRUSuGypKpskSU85Ap8QWAwV88BD8Y+TuJ4CoIhqCdatP1GvMshXmW2nSrcvF25eKdStPdStMcpUme0iRfuXifen6p4t93wjUNXATBCstXH3NXQeTBarJDhAAjEfM1LM8RtrMCcVUgzgrESYE4KNj2SsRBidip4qwnmC7KRDt0hS92//rHjPdsVwSO49PnZWj03ycQexXLXsE0Q5kWaKwdSredw3SsyyTTsT9y4dCqWOPNCxgBVJMGAtYQ9VpCD+/aa4Dpokn4qyOmwPgY6H0B7v86dapJ2cadOMoH546C+zdBTycxrZ6EXYwA0xvIRT/ZhEIWdAEGJoAB3LynCkoecQ/RuPorXUJVzqGoU7jaIQJiH6leEg2xiUatY1VWsSormmoBY0pynoBn+MgaoYGA9XW4DH1JCvD/1fYd3G1V6do/4Ptm1p17Zy4MNYljqxw125LcZLn3XuTe4xb3nl5IAkkIgRR6zUBIr04hjZBCEmBgZrhwuTPMhZDiIp2z937Vu8639lGAWE5mGFif17MOSLEsaT9nv3vvtzxvLw2lRQySsGFuvsBB2FJuHiWAnfcECltHHnua/fXiIAH/ID36ngT4Aj66ahnzHgVDjLEqkqtQc5VRXGUkV6nkKpWIXhVcDQMGgYCORM+n9yLgzNu4+EFzpZIzKFhDOK4QkzIFLpeHwF4m/5+C+TerYq25Wku7gf+vyw7ehajcRIC3uV0+B00scFGTQnfh1Kvo99OWQDYbb3bydpvX5qYfl1ovF5XNttBlxO8K0Fo84VTv5wnv5v/0kaOy3ajQm7XZzthCTpuONBlInYWjs0hkNonMIcpcosjF8jwsz0cyape4OcW2t08GfIKOoZ++wR0C6AxYTMJ6QTTIRgyQsCFu/gg3f4wLW8KFLRcIWPULCKBHDT/VLgr4TQW/hwqNsUbJVUdx1ZFctYqrUXA1cq5GjqoVqE5qrlBzDXK8MNH7p3sQ4Dj3NjE8aKlV4hoFWxOOa0WkUkEq5SGYNMwjhsjpghhiUFuLpMY+Q+CLy+6AK+CkAW3eyTvdXqEfmUBBUGjIE+Cd1GHiCwiqkEIIiTJAdWcclA6BLZcgg+XyORwX3nc3dxnV2sm0JBSb7lPmodgUFJOKtWlYm07UGSQ6EyKziCqbKLOxMgcrcrEiD83Lt799LOB33ZkB1ElMVzphER4jYd0gGmBF/WT+EIoYQeGjaP5iuhqHreDCfikBVOyY572mwgegMspUJ0d1kQIUqF6O6mWoTsbVyrkGqblKzTXJcXei9y+XBTNJrdwPJsjx/tuk6kFrkxI3KrjGcNIohloFrmVCwFVEOJtjTSWRuEo+1SD6e4nE3V7Fjx/lzVOYd2Oh/Z5QtkZ7Ydl5l0MQ/qPbZcEy+GnWj88uiCzRjY7g2r5TE+Hx+4B1vHd0ssCAdIk3MrRsciyK15t1OShej+KSUGwyiUkm2lSiTSPqdBydjqMycFQmisxCqmw0P8e+8wgfcFBrIKwBQvDa7/zwC4gZJfO7QNTHinohfABFDKOIURS+CIUvpfvR+St/4QygSgk87zEV/qe5SmFqYFCjSoACNcpRE4MaZVydHDVKLDXRXIsc9+q8n1+6BwEfvA11D1pblXiBgmsJhwViaFDgRiYEUBf1XUWEc2Gks1n1XYMCLdDyxQpTRQz30mLe8rWXt5ohmDDtF4SfhJwtPuBze/x2J91Wevy0cou2i/PQlCIaS+XtNjeVjJy6jp9Z9T96zc2ceMjW34qPRClxLo12MjcJ6XQoQYfjE3GsnsQmQ0wy0aRQqNNwdBqOzkBRGSgi0/HuIZ7OsR8iYtRF4/zwvyBmhMzvFAjogfABLBrCohEcsQiHL8Hhy1H4LyGAkk3rHHnexZX8zlytYBulqFGJGhWoSUZHn0LKNchRk8hcG80uUEBPrOfzi0GXsrB/oSWSPr/fcWEnbnzE1iaHNqmpXUTaRKSZwU2huNUYDc1KaHhkulniaNI7aqKNzY9B40OTxWGT3QbH2f0Byy2HBzucfpefHg9oZWQwtuIPmKnOocfj9Xg8PleAWiw6ef2uAEyT0/v/u7kYpyjsxRouN5qkx3oSEkyJMZOFOo9GhfTxKDEB6xJwQiKJS4RYPWj0OCYZa1NAnYrU6UidjiVZzt0HA7yVriR3XNlUTc91+XPQDkF4JxH3sKJuiOhHoiEkGkERYyhiCQpfhsKXo/lryWMb2V8v+pcXYVqgGoy9eV3W6gegXgaNYmiUkCYJbpaiFilawKBWhu0Qs20PW1oib/TG+Fp+b7lyTFBHEbZCgm6+OxCwfXJyqkfn6XjM3/ngNwNxpm4R6ZpLOmWkU4Y7GNzBoHYpapfiVgYvCAU0ylxNMkv1/Il6qfEJg//oRvj6SzfieK+TD3i8fpcr4HL7nAEfjS8KnRNpGbvL6rD8+bLjwJtosGE6K9KcrYJCDSrQ4nwtyYsh2TEkM4ZkxOL0WJQah1LiUHI8TowXaEiwqdRT2am3E5Md0RnT2ozbsVkkrsx/8rRZkLxy8DwV8Xe53B4PP/4xhC+wM503Fe0g7saSfk46yEmGWfGISTRqilhkiljCiZaSuWtN/zYsUCeU8AZt5qxr6C4ouNIIviCntfY/SSNDWkSkRUpapLhViloZ1MagdobrlKCOx8xtilt9MZ62h23n3nL4vC4qDyTchMGmi3//E1mezA/8Hg8pbvYqoV/E9opJt4x0M7iLwQulKAjKhCwEXLsS2qS2VrG5mZmuj7xerZ0aTuHWlJlfGnSOv+j96JTri88sX30BX33p+vwT/vI4v297YPOgZ3G1tSnHmKuy5cm9RSpjunS6MBaXJuBCLc7X4DwtydHiLC3OikHpMSgtBqfG4aQ4rI/DifFOXaIxKcEYG2+JTTLqUpBa78qq9f35M+CpqC41CFQJyekN+FxvnTKG1YO8zajucigHgOnnpP2cdIiVjLDiUZNosUm0+OcT4BHeTQjKOyyNv8MLJKQ9grSLcbsYd4hRpwR1SenYdUlQTxj0SKb7tY6Fj1n2LPO7bX7axZMS4PPT5qRuMJq3FfoH/u83S1NMffMtg2HTwyrSL8P9MtzH4D4G9UopeqSom5kJGbdQyXZJpjvDuLYwR4uMX6Dh29SeBhlUSUidEjVrJxqip6ojrbXR5kY1tETjRgVbLTKWzyXlYlu9Eupk0wYRVx5lLtdBaQwqiUbFalyoFmjQ4FwNpSFTS9K1ODWGJAehMyclQKx2SqvCGUnmqBh7dZuXmyC8IEJCBUwCHq/T63Han9xpYhpvM3VTygXO6AGLaggx/Yi5MwlY0Rj7iwgIUNVESgBvN7f8FnWKSVc4LBSTLjHuFqMeCeqVoD4J6ZWiQTEans8Oac19c2FbCW8xCvnfNKRFWwX76RESDo2Yen71zfIUGA63DM2dXBSNR2RBoGEGDTPckJQbZLiBGUD9DHTJyLByelR2czB8siecdEv/1ib/rkfNDmlgQAHd8ywLHzV3zeUWyqc7Im+3aieb9GxDJtTnm5uSb1RE/b1SdrNexVWrbIZIsyEKGVSoXIVKI1FxFC6kILlqnBNNstWQqSHpGpKmQanxlgSNVRc1FS/DSTGTMTGwZo3f56R6S1S7jzpTPT53ALC1eT2naLiuqp1WNIKiAyL7kawXyegk4CQjnGSUFY/9ghngo4VQtESLt5hbf4N6IkjvfNIrIn1i3C9GAxJuUIIGJdDPkFEFu3gOGY7Bw/PxClng1le8ly4EnoDHE6Ac0ALFr05MrFLjZWpYJIfReZNLFXixHC2Wo0UyjoLhxhhu5B4gfWI0KGVH5KZFyslR+Y0hqWVQBt1itiMcdUmhX4X7otBCJWmVoTY5286wCySoSYTrw/kKna8mwVKrZatUbCVDKqW4UsZVKTh6gFeichVXqsLFKiiIJPlRJC8KsqMgKxoyoq05OhQrwykKc7oGNJr/LSl0XTlLtz/BUBqVHvPzXl/gr19b47qBqb2lbcCRzSZlC6voxPJeLBMmgVQgQPJLCPBSn7lAgBk6fsP1heOBMBgQkQERHhSjITEaFuMRsXmQIYtUpuWPwoiWG41Ag7+bunaStyKed7sDbtrvUDi98y6A19v4peHsErV5ScTtpSK0TEaxVMYtZbilDLtESmmYCXZMOj0SASMy+1CktT8S9Smm+uTG7vlkUGoZjYKRKG5AxQ5GQV+UpUMJC5WoS8EulLEdUq5NbGx9HLVHoBYp1yjHTZFcfSRXq+Cq5VyVnKtQcAY5KleiMiUUqaBQBfkqyI2E7EjIirJnxUKKcjpLbk3VeDWJN8eGfc4pagpodifdW1FnhjuAj591za1xKxtvx9SbmBqi7TApO7G8B8v7kGwQMcOcdISVjP78GUDX0YCLnsM8bnbk12RUAkMSMvIjcPD/F4nxYgm3RISXMOxSCbs04vozkTwx0mO7h9ak0MJaD5Wwsdw+YnpW6RiTWZbr2JXz2aUR5qXz7UvnWpfOxStEU08ojasV7Eopu1LCrpCYBLDLJWiJDC+RkyUKvEiYLmMMO8pwYzJuTM6NythRmUmYN2hQhgYY1CfjemVctxx1ybmFEq5DitoY3KogLQrcpMCNwuGxXo5rFKhKgSsVuEJlKdeaS+RQOB8KIqCA+tUhM45kKoz50dPJ8ut6Ef/XP1uELS9dzRCiKhFO6pbDmU0QbQBNDaep46IakXoBF9XORS1Eql5O0c/JhpAwCZB4Kcxbw/5mRNgF0Wzx+/2E7oKEQgQn9T95PeyiX5MlUhiR4kWSUCwR46UStFTCLZNwK6TcCun1VWH+T3fSoAolgMr+Brtd8y7eeun1iY1z/Jse5NbEGJ9Sm9aoTCslsEZq36iCJxn0hJRbfQfsKgnFSglaLkPLZdwyhmKplF0qxYsZvJhBiyi4MSnFqAQNS+haMihD/QzqlaEeGVnI4IUy3CEjbTJCOZDjZjk9wTTIcJ0c1wpOlCrFZHXUZKViokw8lTcXZYXZssSQJ2Xz1ebkcJyl4I8e5b0elw9cXqGqwEML2Oy82/HeRzjWgGMNSFuNtPWcuolTL+DU7Vz0QhTZzSn7ONkgJUA6iiSLIWwN+xthG0pjTPcb/1k1YkLY1EktiM9jWv5rvFICiyVkWSjwcjFeIUYrxNwqCbdawq2WTqwQo9cLecLRDg30zI5pKNZNnTkBt4tcGDE+/buppyToaWZqA2N8JnJqg2JixVx4Yq75STFaJ0XrpNxaCcUaMbtGjFfL8GoZWsWgVQy3UsqtlKLlDFpGwS2VUkqWSLjFEjQmQaNSNMKgIQYNMmhAhnsYii5GOG1QGugho4XBzQxukOF6Ga6Vk2qZxSCBmkiuTmOsUnHlInPJHNYgdhZE2PIUts1reIvTHHD7aG2Z087zduoY9Hst09M1/Ti+HMcZUGwV0tZx2iZOQwlA6k4U1Y2UfUg+hJgRTjqCJIsg7An2N0PBc8C/MgNoZq5QoRtwTT/xK7ROAiukeLVkFkT4CRFaI+bWirl1EnadhFsT7tisdn30Ch38gJe3Cyoh1IfutvMOnkyYjq+59VyEde1/OJ+di56ZN7FxHmyRwSYJXi/CG6VogwRtkHAbxNx6CrJOTtbJ8FoZXsvgNQxaw6DVAlYx3CrBXq2UcMulaKkELZGiRdIgDXhYigeleIDucXEPQ88cC2WkgyFtUrKAIc0MPdY0yMx1Mn+VxF4hw9SvrgSD1FY+f7LgcVPeXPf2NV7jhIMHl8/uon5Juickft7ld3h370FJ+URXjuMNOL4KxdahmCZO24I0bUjTgaMXIlUPUgxg2QhiRpBkDMJWsb8ZFAigiZD3mwKzTJBAgODqsk899SvuaQmslaAnZwA/KcHrIiieEnHrRWiDmNsgtm0SOzdFTv0hk5/6nPeaqBnirW6fxUpdZg66qNitgUub4blIeE6Cn32c3fywafM8sj0atqnws1K8WYo2S9AzEu4ZMdokgY0y2CAjGxiynsHrpRTrGLxWYGINwz0hpVgtQdRYSdAyKV4ioTSMMWREikckeEiKB6SkjyF9MtIlJR0S0iaFVim0MNAkRU3SGy1iU6PUViNzlytchSp7joqrkNveeck9NWH1Gac8LLUBNCk3wAPtJOj55gtbeQtOzcCJZTjRgHWVKL4WxTVysc1I24o17Th6IY7swcoBLB9CsmEkGYWwley/9wsD7/nXCPBStSY+wNumn/4V+5yYrBdzG0OB10fgDRFoowg9LeI2idlNYuszCvTsvOmtj9pOj1hMt4W2AHa7i6Yl0O1DUAXbZ+evX7h5cOjGC7HWlyPQlkcmnw3ntjJkK4O3SPEWKdoiQc9J8HMSeEYGmxjYxJCnpeRpKX5aip9iEIWUe5KCzrm1YvSEGH9PA14qxUsZulaNSYSdgpQMMmSAIT0Seo7plECHROBAglukNxbISbPIXPHIZMlj1xt1Nxa18H88z3vcyEK8Lqo3QXWKXLRa3We38uZb8PQGiz6fJGUQfRnRG3BiFU6oQ/GNKK4Zx7RibTtRd+KobqzsI/IhyoF0hGYN3SHA7aPOzXv/zJoBlLJg7xmHaXsE2abEm0VoszgEeFME3hSB6D+J0LNi9KzY9IwEvRRGnn3UuF3p+PK03cFSjz2Ng9Neuy4v7/B6rDxvpzkKJu9Xe9lDC0xvpXCvx6AXwvG2R/C2h9HWh9DWh7gtD6EtD8OmsCDI0/Pu4Kk5+Mk5+MnH8ZOPo3UC1s7Bq+fh1WF45Ty8IgwvD8PLwrjROdyIgOE5aGguGpzLdT/OdT7GtT/GtT2GWh/jFjyOm+dYKxhni8Y8lMVu7rZc2MubJyx03+z2+110wXTzfMDq4j0OF+92m7zH3jWlZJnTclFGIU4qxUkGrK9EulqU0MDFN6PYBVjbhqkV6sKRfUQ5gBVDWDaGwhdj8WJh9fX5qIrnvXOzQgmgblCfm54DvH7YXWd+XoWej0DbxSHAWyIotkaQrSKyTQTbxOzL86e2SmCb1Pb848YdMea/vOO1O+mN77cGeDuNi7tpX0t3wCa08eF5l5U3/pn/ep/3k622yxuDsF7aYL243npxve2DJ0PgOLvWcWbN3bCfXmM7tToElvEVIbAfWuU8uHoGDq1xndru/vSo9/ZfvTZr0FVm4wPgsnm8PhrkcdMycb/f6zFzzoM7jaW51sR4c0rW7cQCklRK9OUksQLranBCA4prwnEtOLYVadswnQQ9WNWHVUMgX2KaP2Cp2Cp4Q2llwv0WgVACKE80qkGjb/ZTq6effwC/KEIvzMTzIrw9IgiyXUS2i2C7yPKqZGorw70gs7zy0K3t/3Zzd4rtv9/1ucDH26gPmXaxsfM2nvdzPG+hKVjUMlG3d7CEnaoa3QENArp5/M8RsLh9VNj5bvi8tE/E3aDbGSo/dTfoI4dQvy3EWOx8gOW9fifvNVOhdKqWTsOaNp/v4C57XgnOimcLE22JKZ64AkguIUnlRB8koB7H34MAohwE8Rj7SLd5yR5aoUeFCu6rGDSLAEH7loZRfbz384PXX/k/5CUxNwvoRRF6UYRfFOOXxPglCXlZYnt1HrypZN9U41fDzC8/gF9+fOLdSM9/b6eC0oJ6td3Fuz2EfjehGsbF05ppcNPOGrQo2e+hu1cKl6DYL/Djuev6Y+IRXaDugJYThsAlyLbfdfV5aADhbni9vNkXHGVqbYIQ/OlUWIKqn7p444R//MBEWaYxP85WoXdmxPqS0yCnCJJLILmU6A0ksZro6nFCI45rDpkBoBi0isZuP9Dm3v+p4Mym3/jeBugeWhF0y0t38TQBwPTlzXfDyMvh3KviEKBXxPgVMX5VQiik5DWp9fVHTG/Mu/2mnLwR7X4tyvGynLykMu2IdV/t4ic+5d1+H+8DH1VuoH+Zyj/a6EjRBBKfIGHrdtGcVAqqWhpUk7zrStVPZyEYmLn7etcr7vwNr+CV8tx1ddNYsd1GywSElGlh0lNZUEEV0eHxeG9+Zt4+xBZEoayobyq05rwYa1IMl5cxkZ0JKcWQUgpJBqKvIom1RNeI40MJIIpBs2TRd8wg/wXdDQofL5g4eI91ePYMcNEDlNdKB8fFofFi8uoc7g1JCNDrEvy6BL8hJQLgTQbeCr/52qO33oqwvKN1vhUDO5Twjtr8ZpxpZxh7Msr35Ss8kIBv0kc7WdmELE2aAETvvh+SGn8YPDrSM+9Zn5eGqQMh8Aal1f7JlU6pELjv/D2/n6eaQjaateX1IQ+47DcC42+7FpTjPJkxT8TlRZG8GE9WEslJu5mbBtk5kFoEKSWQXA5JlZSAxPrZBCDloFE8YjRs4aecwXSNf0WqgCqC8bSLoY13BGyO90fwqw+zb0pCgN6SBoF3MHgHQ3Yw3BuReI8S7xVZd0m9B9XoSMT1gw+b9otse9SuXYnGPSrjuQX89S/91ElKB9PjCWaR+IUF6kc74qMRLtrpJwSCkQqaqh+uVAYpBDNMvWD2f+D3R7sVdBQGHwdZpxWQPP/HS7axWjAwrEFiKoxFRSmQH+NPSYCMNE9OgTM5EwrzBQKKIYUSAPpaSKwns2YApxq8Ht7vWH6IJwEr9WQLUbt73P30qVkzwMt7/WYa+7HShcj+7eEbRxNMO0SWtxjjG/PwzqzJN/7d+24UekeCdlLgd6VBwLtyit0K2KOEfSqyT0X2R+K9s3BsmP/8D7zpc95s9DisThpC9/gDHqptIBjK74eJ6vDOxI+W//vfESLQwafpjt3He71BaT+6tguRUWpifphYwu4+aBH8ghq33+P2m032r/9ivHQS2nTmSjkYFOZyJZRGQVE00ABOLMqLQ7mJXHYKl5XBZWXhlEKcUoyTy5C+AiXWcLq66bhGm67bEd1p0/ZNRvfguEUTEZ1u1Yj92Cf0QOERrJxXCFXdi4NZBFDz6/TyDrqF9PK8+cvJc/mWvcnsy3MsO5mJHXNgZ7z57UeE0Q8OPYN3MWSXjOy6M/rC0KvIgUh8IArtCwWcmHv7IHPjcC53cdT+5QuWv75pv37cffuS5/Zlz+0rntvXPLc/8tz+WLh+NPP6sef2JyFw3/7Ec+sTz81PfDc+9n33ke/6R/abVxw3rji+u+q4ftX57TXHN9dcf7/i/vuHnq+veP521fvXa57/+cj95RX7Rwc9F95y7l5lXldmaVM6yh+yVEmhSg4VCggSUHyHAJwXj3ITUU4ql00JIKlFRCAAJ1UgfQ1KrDfGNuLYdlt8DxvZgSJ7jREL3VFjbMUG/gaVe3R66NTy0hDJvZfhWQTQYJjXy1up1h2905yOL164tTvc/DZD3ppremcuejca7XwY7ZLiXcLQ75aRIPYqYa9w4x+IJIeiyOFockiND2pDYD4UDQe0+EACOqTnjsSz4xpyJMl8OMtyOMdyJM9yuMB6pMh6pMhyuCQUh0oth8pCcbDccqDMvL/UurfEsqfYsrvY8ocyy44yy5tlltdKra+UWV8qgy15ZFMm2ZhJ1mfCukxYkwmr0h19CnOnFLcz5o5IS2sUNCihRg7VCqhUgkFFZ0BJNBRpSEEczo/HeXqUk4qyM1G2QEBqCUkpw0mVWF+LEutNMQ3GmNapmHas7TEivgIyAAANk0lEQVTLe1yyYZOoG/5w1u+lGtxU+ZSKtNxn+O9hgmjnYb+Ht3oEsUyPn+dZ8t0ZzfTuB7jXJbBXa9w9h939ONrNoD0yvEdG9srvYD+964NDj4+oybgGj2vhaHwIzGci0XgUezCG7Eux7M+z7S3AB7KMh1JNhzNMhzPZwzns4Vz2cJ7pUH4oDhaZDhbPwIEi074i094i055CdleBaWe+aWfe5I6syTezJl/LmnwpY3J7xtS2jKlNydPrE6fWJU6tTphekTC9JH5qLOFGfzY7nANDqWRhFGmJgJYwmv9Ro4AqFSWgPBpK1VCsJQVxpCAB5+lxbhrKyULZ2ZBWDJSAcpJciZNqsb6BxDWzCR3faVvMcf02Zd93YW3T+Wt4oxl4WpMjHKjoPuN+P7NmgJAT5PV5g9lx1BB5eN505Ks9v4XdOrRXig9GT+16jNsrQ/vkAhR4PwU5GIUPR+Mjajyuwce06LiWHI+D44khYE/kTR9Lnx7XoeNxltNa+1m1+ZSanNSQk1o4GQvvxcN7CXAykZxICMVxHTmeOAPH9ORIEhxOIof0cEAH+3VkX4LjrXTn62nOl1Nc21Ncz+ldz+g9m/S+jfrAk/rAah2/LJ5fFOcb1XKjYTAksvYqrB0ac2scadFBvQpqlVCtgspIUh5NyjSkRAuFlACSn4Rz03BOFs7JoQSklUKqgSRXkaQ6rG+w6duxrtOo60KqDrNm8Jy0nj/5ld/jBd5Ly60cwQC7cHC5FwmhBPh5ofWn0DRCULnzOWjqH+/+9NnpfWHsvsfIIeX0O9E/DD3ZryQHKOjoH6Wjj4TRRye05GQCnEwJgflUuu1cpvVsJj6ZZjqexp3MgRO5luM5luN51uP5tuNFtuPF1uMllmN5s1BgOTYT44Xmg0WWg4WW/QWWvfmWPXmW3bl4bxrZlUL+kERe05MXEmBbPNkaT7bEw6ZYeCrGvFprXqaGJdGmUS3uV1sWqp0dWlurhjRGUitUpyQ1KlIVSQxqUh4kIB4KdCQ/ieSl41yBgPSSIAGQUkWS60hSo13fgeM62JgOs7LzVuRC2+Zx2n3JFwDeRwUqhN4DvJf6Ve/5E0oAldkMZmMLecjCQgD0aAbm2xfKjfvmw14J2hMDh+Zw+8LZPVq8XwMH1ObDUjQeicbV6JgGndDi9+LwqXhyKhFOJcPpVDidDmcy4UwOnM2BUxTkVA4+lUdOF8HZUnKu5HuUknOl5FwZOVeGzpTOQhk6MwP4dDl+rxyfLMPHS9F4MTpahI4U4f0leE8R3llA3swlr2TBi5mwPQO2psMzabA+GVbrYbnOvDgBhuOtQzpbfwJ0xeIOLdeuhaZoUh9NaqOhKhoMaijTQKkWSuOhREcKkykBOdk4O9ecV4HTyyCtwppaBwm1ENfAxjRPxbVhXY+N6XQ1bOEnbdSTRusTqPBaMKf7/gfh2dvQ2TT56e6OFjjcvGI8Uzy170GyV2baFWkeV8B7j3CH49ij0dzRKG48ijsWjY5r0Hsx+FQ8PqMjZ5LgdDKcSYOzGXAuF94vhPNF5P38EMD7xfB+aQjI2bJZMJCzMwBnDXCmHE6Xw8lScryEHCuC8SJ8sBjvKyK78smOHHg9E15JhxfSYFuKeXOyeUOieY0OVsabl8XCWByMxMJADHRroUND2tSkWU2atKROA1UaqNBAuRbKYkh5AinVQ1EKyc8iOXkkqwAyyh0FDSSr9naCwZhQC8mtJLHTmTZin9MwVbqC//w6j2gXvp/+EzoDZr+Slq06nPSg4uQtt4+aPsjg3n2E26skR1TsoajpE781nVJMHtexx+5FwNk0OJcJ7+eQ8/nwQRF8UAoXSmahHC5UzMAHFXB+Nqrg/Ey8XwXnquBsJZw2wHsGcryMHC/Dh8rwgVKypxjeKYC3cuH1bHgpA7anwdZUeCYZntLDEzpYlQBLEmAR5YD0a0m3FndqSKsWWjTQqIVaLVTFgCEWDPFgSCJlKaQ4E+fn4pxCnF1s0Zex+vKptBpTTqspvc2Y0AxJfZbfV9uyl7Effga83+G7k1Y1eyTv+cw/J4CKKwg+A8FR4+FvnYVjWaZD/2HcxcA+JTkknT7yqHE8mjtGMWMGnE2G85nkg2xyIY9cLCYXy8glA7kYCrhYBZdqZuBiDblQOwv15ELD3YAPGijO18O5WjhdTd6rohivIEcM5EAZ2R3kII9y8EomvJABW1Lh6RR4KgnWJcLKBFhGOSAjsXhAi3u1pFNN2jWwQAsNsVCbAFWJUJEMhnQozyLF+aSgGOeWkRwDSa2GzCY2tWE6oRES2sza9qnItm+LlwQ+/srH++w+N91x3tf1eQ8K/jkBgh/PwfPTVr+Dymq4XPz1P9ovN0wcncMeeMByYD7aqSUHlGhcFUrAuRRyIYdczCeXivDlMvyhAV+phA9rZqEePmyciSa43DwLLXB5wQxcWgAXW+BCM5xvhHMNcKae4kQNOVYFRypgfznsKoGdRbAjD97IIa9kw/MZ8Fw6bEqFDcmwJhFW68jyeLw4Ho/E4qEY0qOGLi20x0JLAjTooTYFqjKIIQcMBaSkhBQYSF4Vya2ZzG6YTq6HpAX25C4uofNbbdut9mesX35Dd/tUltTvc7n/QV38bAb+OQHULx2weXji9/FeBxUWpss0+QZ/vvK7EyLjPo3lcLRtXIFmmSD8fhq+lEcuF+IrpfiqAV+twteq4WpDKK61mK+1hQCutM1CO1yZhQ/b4XIbXGwlH7TAuWY41wSnGuBkPYzXwKFK2GuAXWXwTiH5Qx68kUteyoLtmfBcBtmUCk/pybpEvFqHl8ejxXF4NI4MaKBXAwvjoC0RmlKgPgNqcqCiiBhKSamBFFWT/Aac2ziV32HUN0Lsgq+VNVfS2siLBwMTHG0zSZ0bPG9zg9CAavZA3++Zn0BAwOOlARrBbSm02zbxyB4sQ/zbBxNn06ZOPIRPhuHxKOEEoMEntXcW4ffT4XI++bCQfFhOrlbiazXko3ryUUsI4OM2+Lh9JjrItdnoItdm4moXXFkIlzvJpQ5yoZ2cb8Pn2+BMM5xqhON1cKTafKDCvMcAu0rIO4VkRwF5NZe8kEO2ZZFn08nTSXi9nqzV4VU6tIzOAzKkJQNa0hNHOpKgJQMas0ldPq4oIeXlpKQCiupIfiPObTJltUPawildO9f8JH/6U97hcAcEhXy6RArV/g6h48T9xnvW8z+BgFmvCQQCbrdQguvjA+Ybtq9f5q7VYup7UMLRSDimJccT8IlUfCqdnM/CF/Lxh2X4Wi3+pAX/sR192hUC/Fkf+WzgbuDPBtAfB0PAftwfiqv97KU+9lKf6VKv6WKv8WKv8UIP+qALvd+JTrfiE81kvI4cqcYHK9F+A95Tjt4pwW8W4tfy8Ms58HwqbEshzybDRj2s08ETCbBaB8v1ZDQV9WVzbYWmxlKu1oAqDNOlhumiKja/Hmc0In09Kh6d6NloPniG54jH77MK59RZI/QvPPFzCBC89ZxH0PTw0oJSK2+56fnmGHyx/va1wm/PSW+dlOITGeS9gulzacYPctgPS9HHNfjTFvhzO/lkcBaGyScjofh4jMwEujaGrs7ElVH84Qi+PIIuj6BLFNzFYeOFgenzvcZz3abT7aaTraZjzehYNR434CNl+EAx3lOI383Hb+fi15Pxq0noRT3anoi26NDmBNu6NOuqTPPiHNKfz3YUTzeWsvVVUN3KljR/m137t+K2if7V9mffsBw7x9+a5l1Ot8vmpeGE+x5xfyIJP48Aao4CNGuJzjsa2qXHPBvNjrZaeO5/A9/ut34+wl4rmziXM/VBofFSOXu1hvu4Gf+xdfLzwVkYmvx8OBR/GZ2cidt/GgvBrU9HblzrC+K7q73fXe29fqXnxvnOm+933Dzbeut08633Gm6erEfHDJbxUsuREsvBIsu+AvOePMuuXNiRDG8mk9eSyMt68oKebNeTtXq8Qs8tSTYOp072ZEx0ZE931JHRp0wvvG48f87y3d8CwPI2s5u3O3iHldYKCnF2oRL2J471PX/tZxFAIzbCwNMdkpsKAgelLn+IGQaDhNQF5RQSgjx3GKOSjLRJbCjcQgHe3deQOAstAp6FoJ8qGFb7PrT7Q+RYuDPpB/LwPgfvd/B+pwAXDTpTGQQhacZNyxj8HnrOpGo5dMst1OYL70Vb2tmF4B2NrPv5AO0I4XMEI9f/IM5+z4G+35M/iwCaru2kbf08dt5D47o0icxBI4M83YtZfbzVGXDTMDD1AwoqErQNEn3kF6oa7776eO9shATahYeCIDW97+6Axl9ogaTHG3B7Am6Pn0IIxAixmODhhRa20HcNBndo2Ia2WRS0yWnyMO1ZRD8jDUPZKQJOn+C4oUT6qIQj/XRCERr9NaFcIODxBZxunqa7+V3BeXC/0f0Jz/8cAgI8Ldqnd3Uw6uT3Bvx2B2+jUnhBc0TvI9ra0xPwCO0avw9JzwxxhUS8/slDOoZ05O5CMOnmjh2+U5HwPenfO7+EhCjhNgj+Hn0X6qsRyl2pzvWdvygcn2hR8vcxyuCAC4ITQQKElpBOmjMhzBL6RjRwft9Y108Y/XuFJH/ay4Iz/fvfpd9d+CI/fuvgt/z+zvtxpL5/yf/3//4QtvzZ7xRkNMSJ+Y8f/oz3+n9Y9JmCcbuXXgAAAABJRU5ErkJggg==;" vertex="1" parent="1">
          <mxGeometry x="139.6" y="256" width="52.07" height="48" as="geometry" />
        </mxCell>
        <mxCell id="khh2FQEowtGNTZKCgDfP-6" value="" style="shape=image;verticalLabelPosition=bottom;labelBackgroundColor=default;verticalAlign=top;aspect=fixed;imageAspect=0;image=data:image/png,iVBORw0KGgoAAAANSUhEUgAAAFwAAABUCAIAAACA3sdiAAALGklEQVR4Ae2cf1ATVx7A++dufie7ECCsAtZycjcqgvH05NRTbAFFDw0S0LZap2Pr9cTK+IObQS3V0+q0U61a6/kLe3Ctvx3RCsFfKAQEJZwK8qtRDxCySZYEIiQhexNT1oQkmyUGatLs7Exe3u/32e++97773vu+gfsvOwJv2Pn4PXA/FAdC4IcyPFB0Op1SqWxra5PL5Y2NjXV1dQ88fdVRuBoaGuRyeXt7u0ql6u7udtBWyl7uS4pOp7t48eKaNWvS0tLmz58fHx8fFxc3ZcqU2NjYaE9fsRQuoVAYFxcXHx+fnJwsEokyMzPPnDmjVqspo3gZ0R0oGIZt27aNy+UymUwQBIHX8gJBkMlkcrnczMzMzs7Oly2m4BoaFK1Wm5+fHx0d/VpycFqpiIiIvLw8FEUpADFHGQKUtra21atXOy35tQ9Yvnx5c3MzFS5UoWg0mpUrV9JotNe+7U4rSKPRkpKSdDqdSy6UoOj1+uzsbKeleVVARkZGV1cXORdKUA4dOuRVDXdR2ZycHJPJRMLFNZSWlpaoqCgX5XhVcGRkZEVFhftQjEbjli1bvLorcfi8cnJyDAaDMy4uJKWzszMxMdFhvl7tGRUVRTKvcwGltraWyWR6dfudVb68vNxNScnPz3eW6XD4846f5J04zcuzvb8/y163yePF5ebmugllw4YNHq8NSYbQpZtwSSWruJxZVEbc3JIK7s49JKncC5o2bZqbUNLS0twr0r1UUOENVnH5rgZ5c89z4m7ped4sq6umzy4NTvoDPcC9nO1TMRgMN6FMmTLFPrvh84EKbzCLyo7KW+2riwaJ5CGiGAbfg6X39vbaF+Ra9wkMDPRgJVxmRQJF+9lRFW/xDKbAZSbUI6hUKnegUC/AIzFJoBganmJj3/0cnuyRgiyZtLe3ezcUXG/oyT0m4yczAY8ppS0tLV4OBceNT55pEje9D47xlLA0NTV5PRQcx42tiprYjLEeovLo0SNfgGLmgmn3LF7BYrFenYzvQMFxvFuNbd65C4gRviIXn4KC43iPwXhM9oD71QHailX0yW5OpnwNiqUvkGHauZW1o2/L4Jv3WO9/OFTB8U0oOI7rjP2Fz5RZ9XLRqqzpQPAERiAbpFOk47NQLCJjMJmebvymPjjlUtDc8Qyqs3Afh4LjuCb7oBpJrw5Jpq4feTcUU4cK1zv9emgRlt8clN7CUix1i+FnB9ozMfvyQigsFsiDaNExrA//xsndxdnxNWfH1+xPN9Ii3rTuFJ0phLozJQpgoUKQqj1w2tTVgxuMBAvC4QaUX033Afl8RnwiZ/tX0Nkr8LU78PVq6Ho1+1oV+1oV7/RPNOFUilBQekpLqGgtY8yFsETFpgPPf7xmaHjcj2nx/l9WcLwGCuOdedx9R+DLpfDVSlgiZReX04vKom7L1j9oOvS47WTNw4IZHxwJiHuPE2lBQyIpFijRDL4AZItp4cWhCdrYTzRzNmILtmrW7NVuP66em6VExEPqaEdcUhgM9rpNcGkNLJESd2ZtQ8fzlx+7jK2d6vgNaoG4gD+TOhRCsqIZ/JP8v7SGpmJIOoakq5B0FBHLQhZSH31GFAoYOor1+W7e1TuwRApJpONvVn90v0ne3UO8/xYHAeVfgXFuQLEk4QD0BezwLN6EnbDwYOD0HbBwDJ1HgCN3jBwUkM/nfnOYkI6ZUplUhQ3C4UEo5M0mDx0pKCDIyd1lIcIoKgu6WtHlfH7hEUkhbzZ56IhAAUHmoiXwlTILlITK/zoUEMLztwGFy+UdPwmXVMAS6Z+lsmbt4E7EgsOEaY0t/zM0PumXt2PvZKsF4lfpU8hlgTx0JCSFuXQ5fL0alkhZRWUlHUpCIghHX/VDdVKWgp6goM17cSejAalqJN13obDZ0KlLsETKLS5fVP2AAPGLdHTrurfmocEiVahYiYhVSPrjUJEseGENf0GjYPGhwOmWR0plnkL+8IcUOvySMmMOXHrPAkXxvM8GSp8eS/0nyhehL3A0C0Q50KT57LCpjOBYgD+LGTp5YN3P16Cws7JhiZRTXP6JbPAn8p6D5xRgioVIo2DxW3SIBjjefetrUDhf7DWLiUR69plNb9KvxLCEDShifmtKghJYINlSlk9BASGY++0JWCKdeOturcZmX7z+br06ZhWKiBuDF71NR8jfeZ+CQguL4B0/BUmkSXdqO620GxzH+y5KlaPMWkkBfxbdyVtDkPIpKODocN7xk5BEml5T12P7saP3XBkakqZG0jdDMUTjnTmgy6UOt2LofrhCaMnO0rrhP7yjDzMgAP7ue0gifU/2qK+/33ro0VfcV0Wt7EIy0jkuVjtp4WPga1UOoXTvP+V9UEAQ5H653yGUfoUae3t996ili9gR5A+T/fFa+MZdh1C61u1VC8QtoaLogcGbPCuKocMrKQAAsNdtgkoq35XV9xptJMW8mrc9XxO8ZC1vPEldQX4Q/WQhLJEyi8puKW21aoNBPXk1iojrBIuoL1+QlEUEDTsURkIydPNeSvV9dZ/e+vXBcdyk6cGWbv2OJXTW0YIQZJnmQBLp767fabXtqg1NT5XjVqKIWBo8P5IOEU16dcewQwGYTKjwxsxyWXO3g2MSJm1Pw0db/wQ4/vzD/nsWXGTWrbnF5Z8+aBoka7rjl1Xhy5SI+AJ/joDGfnUWRA7DDwUA2B9nQjfuXkZthX9AbEy63h+O5bEnTALDI8AQARgioEW8yZg5h3fkPxY1kldc/sfb92ox7UAK869Jq9N8sBsNTkURMZXxi2gwFcdIQAG5PE7B+d1NT6xbNci9v+VpTP5Zzt7D3H1Hefnn4Z9uwRIp70VXMkcqqxjUm+C4ofIBGpGBCtLaQpeI2DbrIVSaTR5nJKAAIMgUicNKpINADPr7SNO9oOYRrbicVlRGu3KbduU2crVib9PTjl5bNfJFMvWstUpBGoqIa0IWciivnJOzIEJHBAoAgPwgzq69h+Vtg0DY/8X0+moldluhanHyLQrv1Ws/O6xgL0YRsRpJXwp4WEwAABghKAAA0CLHBeWdqrPVgOyhuPAxGHpPXFGGiS1E8gfWQIiH7BHHyEExcxkdtqzgDGY3NrsAYRXce6FUGZGOhqa9WN9aMJHy7oohwRpRKAAAgGHhu388RXLQyIqAldOE92Pa3m/PK9jzUMQsJs0C0RJX+sGQQFhHdnNzMQzD1rkMyQ1C0D+ys7W1DbitNmTFYLDTcFOGpeZaf6PL4Lw1pEKHFNnNbehC4SvtQAQBcNnYifKsL/obycZp3Nivr36IzclWjVmOBi9BQ809a3VIsmd34tvzcvPAQkpKin1eQ/WZAQRWAjMVwlXaHXl9JVXG+z8bm9uMzW2Gqnr9uZua9fuUkcsU9GRUYO5BlIi4TZBawJ/p2Rm9fZ3dP9riwUNQK5iR/6ZPe8hJVPH+ikGLlLwUJW+hkrdYyROpkXT1wPL4noCpC8Ew+zZ43CcuLm7w2zvw38UZQs8el+ODzAmMwPmssP2B0wr5c6tCki33ucDZuZyYGUzB7+kBXE/P0JzRdP+4nP9g5YD0WP36j+BawRhw+uph7c2bN5PMoVz0KTiO+96x/nHjxlVVVQ08dwe/rqHgOO43AOGAnN9UiAMo5k3efqMyDsH4zQ85xIL7DVU55oLjuN+kmVM0Do3fTZ06VSgUDof9OxJ7epMmTYqNjbUYv5s9e3ZSUhJh/K6jo8NpA5wHUBqSnSc3h1ibSWxqaqqvrx8OS4nklhfr6uosZhJbW1sVCsWvZiaRnJRXh3pAUry6/Q4r74fiAIsfigMo/wehpG8a3RNvoQAAAABJRU5ErkJggg==;" vertex="1" parent="1">
          <mxGeometry x="136.07" y="316" width="59.14" height="54" as="geometry" />
        </mxCell>
        <mxCell id="khh2FQEowtGNTZKCgDfP-7" value="" style="shape=image;verticalLabelPosition=bottom;labelBackgroundColor=default;verticalAlign=top;aspect=fixed;imageAspect=0;image=data:image/png,iVBORw0KGgoAAAANSUhEUgAAAGwAAAAtCAIAAADEABlTAAADY0lEQVRoBe2ar7LjLBjGo88NVNQdFxOFi66MiDkmVxAV1RuIQkYjonMFEaheABaFQmJQzGB3Z5npsE36hlL2fN/OEkWAPHn4vS9/0mlh8/U2geJthSxgM8QESZAhZogJCCSQyJmYISYgkEAiZ2KGmIBAAomciRliAgIJJHImZogJCCSQyJn4X0M0xjgLSinG2OpdlFIhRLRBY4wQglLqSa6MMa11tGZyk3cn72aiUmpZlmEY6roufr/atsUYR6BkjGGMv76+ftcrEELX65VSeg/efRhwQWtNCOn7vqqqB822bQkhUkpYAW6NhOiGoZQahuHj4+PBmX+LEFJKwSZcq9NclmU7VF/wdDotyxIi6Poopbbx8AWLouj7/h2OkRCttUqp8/n84Gb39nw+H3J0BDHGuwrbykCOjLHtFNmqFUXRdV00x3iIh+H1vfZ9f5g7lFI4qX3Bn+lzGBgpZdd1D08Bt4SQQ5O7HSIhrusKuNk2IYQYY7sOXKWUsm3b7YNAzTiOgKAxZp5n4PFt0+l0OgzM7htjIBpjXh1wURRwnJdl2Y4KrkEIWWufbTJSysCJ7L/ldrvtYoIrYyAyxhBC/rtDykDiaK3HcQwR8fuUZQls/Zxzv3NgeZommNduawxEQkigJ7/bOI7PskYI0TSN3zmkDEOcpilE5KEPxngXE1wZA3Ge55d2AGf0myHGRfovgPgsnn8iE+Mg/t+nM+AvDmJVVc+iYq2Nm87ft7FQSj8/Px9WE/i2qirAn/vygRW2rcMwALszY2z7yGHN9x1xlFKXy+XQkN8BHrC1NuKIAw9YSvnqwj3PM5DaQFPMxhIxWTjngAlrLef8pcAAByb3ImPMSzO6rmvgwASbj4SotQ4/lAR+54YnY9/3Ib+JCSECA1OWJbDawAStfeO/OJzzkB8g3Bx5dkL0/RljQo7cL/1ScLvdQpZvSqnv5NVyZCa61wghgC/8uq4jwgsfTaZpCslBn4IQoixLf4H2y5fLJXoW39/yFkSnwjkfx7FpmvbX1TQNxvhwEbw72Ba01vM8d13nBNu27ft+XdeQdN6quRrG2PV6vZvsuo4Q8j4+J54A4jPf/059hpgg1hlihpiAQAKJnIkZYgICCSRyJmaICQgkkMiZmCEmIJBAImdihpiAQAKJH45wHiTGe9SwAAAAAElFTkSuQmCC;direction=south;" vertex="1" parent="1">
          <mxGeometry x="157.39" y="200" width="17.29" height="41.5" as="geometry" />
        </mxCell>
        <mxCell id="khh2FQEowtGNTZKCgDfP-11" value="Publishing" style="rounded=0;whiteSpace=wrap;html=1;strokeColor=#258028;strokeWidth=2;" vertex="1" parent="1">
          <mxGeometry x="250" y="80" width="100" height="30" as="geometry" />
        </mxCell>
        <mxCell id="khh2FQEowtGNTZKCgDfP-12" value="Listeting" style="rounded=0;whiteSpace=wrap;html=1;strokeColor=#258028;strokeWidth=2;" vertex="1" parent="1">
          <mxGeometry x="250" y="128" width="100" height="30" as="geometry" />
        </mxCell>
        <mxCell id="khh2FQEowtGNTZKCgDfP-13" value="Customer Care" style="rounded=0;whiteSpace=wrap;html=1;strokeColor=#258028;strokeWidth=2;" vertex="1" parent="1">
          <mxGeometry x="250" y="177" width="100" height="30" as="geometry" />
        </mxCell>
        <mxCell id="khh2FQEowtGNTZKCgDfP-14" value="Employee Advocacy" style="rounded=0;whiteSpace=wrap;html=1;strokeColor=#258028;strokeWidth=2;" vertex="1" parent="1">
          <mxGeometry x="250" y="225" width="100" height="40" as="geometry" />
        </mxCell>
        <mxCell id="khh2FQEowtGNTZKCgDfP-15" value="Influencer Marketing" style="rounded=0;whiteSpace=wrap;html=1;strokeColor=#258028;strokeWidth=2;" vertex="1" parent="1">
          <mxGeometry x="250" y="280" width="100" height="40" as="geometry" />
        </mxCell>
        <mxCell id="khh2FQEowtGNTZKCgDfP-16" value="Reporting Analytics" style="rounded=0;whiteSpace=wrap;html=1;strokeColor=#258028;strokeWidth=2;" vertex="1" parent="1">
          <mxGeometry x="250" y="339" width="100" height="40" as="geometry" />
        </mxCell>
        <mxCell id="khh2FQEowtGNTZKCgDfP-17" value="IntegraciÃ³n Salesforce" style="rounded=0;whiteSpace=wrap;html=1;dashed=1;direction=south;textDirection=vertical-rl;rotation=-180;strokeColor=#258028;strokeWidth=2;dashPattern=1 1;" vertex="1" parent="1">
          <mxGeometry x="370" y="80" width="30" height="301" as="geometry" />
        </mxCell>
        <mxCell id="khh2FQEowtGNTZKCgDfP-24" style="edgeStyle=orthogonalEdgeStyle;rounded=0;orthogonalLoop=1;jettySize=auto;html=1;endArrow=none;endFill=0;" edge="1" parent="1" source="khh2FQEowtGNTZKCgDfP-20">
          <mxGeometry relative="1" as="geometry">
            <mxPoint x="400" y="140.75" as="targetPoint" />
          </mxGeometry>
        </mxCell>
        <mxCell id="khh2FQEowtGNTZKCgDfP-29" style="edgeStyle=orthogonalEdgeStyle;rounded=0;orthogonalLoop=1;jettySize=auto;html=1;entryX=0;entryY=0.5;entryDx=0;entryDy=0;" edge="1" parent="1" source="khh2FQEowtGNTZKCgDfP-20" target="khh2FQEowtGNTZKCgDfP-26">
          <mxGeometry relative="1" as="geometry" />
        </mxCell>
        <mxCell id="khh2FQEowtGNTZKCgDfP-20" value="Lead Data" style="rounded=0;whiteSpace=wrap;html=1;" vertex="1" parent="1">
          <mxGeometry x="460" y="123.5" width="90" height="34.5" as="geometry" />
        </mxCell>
        <mxCell id="khh2FQEowtGNTZKCgDfP-30" style="edgeStyle=orthogonalEdgeStyle;rounded=0;orthogonalLoop=1;jettySize=auto;html=1;entryX=0;entryY=0.5;entryDx=0;entryDy=0;" edge="1" parent="1" source="khh2FQEowtGNTZKCgDfP-21" target="khh2FQEowtGNTZKCgDfP-28">
          <mxGeometry relative="1" as="geometry" />
        </mxCell>
        <mxCell id="khh2FQEowtGNTZKCgDfP-21" value="Case Data" style="rounded=0;whiteSpace=wrap;html=1;" vertex="1" parent="1">
          <mxGeometry x="460" y="264.75" width="90" height="34.5" as="geometry" />
        </mxCell>
        <mxCell id="khh2FQEowtGNTZKCgDfP-23" style="edgeStyle=orthogonalEdgeStyle;rounded=0;orthogonalLoop=1;jettySize=auto;html=1;entryX=0.801;entryY=0.867;entryDx=0;entryDy=0;entryPerimeter=0;strokeColor=none;startArrow=classic;startFill=1;" edge="1" parent="1" source="khh2FQEowtGNTZKCgDfP-20" target="khh2FQEowtGNTZKCgDfP-17">
          <mxGeometry relative="1" as="geometry" />
        </mxCell>
        <mxCell id="khh2FQEowtGNTZKCgDfP-25" style="edgeStyle=orthogonalEdgeStyle;rounded=0;orthogonalLoop=1;jettySize=auto;html=1;entryX=0.329;entryY=0.867;entryDx=0;entryDy=0;entryPerimeter=0;endArrow=classic;endFill=1;startArrow=none;startFill=0;endSize=7;" edge="1" parent="1">
          <mxGeometry relative="1" as="geometry">
            <mxPoint x="460" y="282" as="sourcePoint" />
            <mxPoint x="400.01" y="281.971" as="targetPoint" />
          </mxGeometry>
        </mxCell>
        <mxCell id="khh2FQEowtGNTZKCgDfP-32" style="edgeStyle=orthogonalEdgeStyle;rounded=0;orthogonalLoop=1;jettySize=auto;html=1;entryX=1;entryY=0.5;entryDx=0;entryDy=0;curved=1;exitX=1;exitY=0.5;exitDx=0;exitDy=0;startArrow=classic;startFill=1;endArrow=none;endFill=0;" edge="1" parent="1" source="khh2FQEowtGNTZKCgDfP-26" target="khh2FQEowtGNTZKCgDfP-27">
          <mxGeometry relative="1" as="geometry">
            <Array as="points">
              <mxPoint x="730" y="141" />
              <mxPoint x="730" y="211" />
            </Array>
          </mxGeometry>
        </mxCell>
        <mxCell id="khh2FQEowtGNTZKCgDfP-26" value="Sales Cloud" style="rounded=0;whiteSpace=wrap;html=1;strokeWidth=2;strokeColor=#2354A8;" vertex="1" parent="1">
          <mxGeometry x="600" y="115.75" width="95" height="50" as="geometry" />
        </mxCell>
        <mxCell id="khh2FQEowtGNTZKCgDfP-27" value="Data Cloud" style="rounded=0;whiteSpace=wrap;html=1;strokeWidth=2;strokeColor=#2354A8;" vertex="1" parent="1">
          <mxGeometry x="600" y="186" width="95" height="50" as="geometry" />
        </mxCell>
        <mxCell id="khh2FQEowtGNTZKCgDfP-33" style="edgeStyle=orthogonalEdgeStyle;rounded=0;orthogonalLoop=1;jettySize=auto;html=1;curved=1;entryX=1;entryY=0.5;entryDx=0;entryDy=0;exitX=1;exitY=0.5;exitDx=0;exitDy=0;" edge="1" parent="1" source="khh2FQEowtGNTZKCgDfP-27" target="khh2FQEowtGNTZKCgDfP-28">
          <mxGeometry relative="1" as="geometry">
            <Array as="points">
              <mxPoint x="730" y="211" />
              <mxPoint x="730" y="282" />
            </Array>
          </mxGeometry>
        </mxCell>
        <mxCell id="khh2FQEowtGNTZKCgDfP-28" value="Services Cloud" style="rounded=0;whiteSpace=wrap;html=1;strokeWidth=2;strokeColor=#2354A8;" vertex="1" parent="1">
          <mxGeometry x="600" y="257" width="95" height="50" as="geometry" />
        </mxCell>
      </root>
    </mxGraphModel>
  </diagram>
</mxfile>
